<?xml version="1.0" encoding="iso-8859-1"?>
<!-- Generator: Adobe Illustrator 16.0.0, SVG Export Plug-In . SVG Version: 6.00 Build 0)  -->
<!DOCTYPE svg PUBLIC "-//W3C//DTD SVG 1.1//EN" "http://www.w3.org/Graphics/SVG/1.1/DTD/svg11.dtd">
<svg xmlns="http://www.w3.org/2000/svg"  fill="#040b00" id="Layer_1" data-name="Layer 1" viewBox="0 0 512 512" width="512" height="512"><title>Application</title><path d="M470,335.239V91a47.206,47.206,0,0,0-47.175-47H89.175A47.206,47.206,0,0,0,42,91V335.239C42,361.155,63.259,382,89.175,382H249v72H173.373a7,7,0,0,0,0,14H343.41a7,7,0,1,0,0-14H263V382H422.825C448.741,382,470,361.155,470,335.239Zm-14,0A32.984,32.984,0,0,1,422.825,368H89.175A32.984,32.984,0,0,1,56,335.239V307H456ZM456,293H56V91A33.19,33.19,0,0,1,89.175,58h333.65A33.19,33.19,0,0,1,456,91Z"/><path d="M134.182,105.667a55.182,55.182,0,1,0,55.181,55.182A54.881,54.881,0,0,0,134.182,105.667Zm0,96.364a41.182,41.182,0,1,1,0-82.364,41.182,41.182,0,0,1,0,82.364Z"/><path d="M149.011,144.464l-21.628,17.6-7.125-8.344a7,7,0,1,0-10.647,9.092l11.564,13.541a7,7,0,0,0,9.741.884l26.931-21.91a7,7,0,0,0-8.836-10.86Z"/><path d="M171,228H86a7,7,0,0,0,0,14h85a7,7,0,0,0,0-14Z"/><path d="M142,258H86a7,7,0,0,0,0,14h56a7,7,0,0,0,0-14Z"/><path d="M428.735,94h-200A6.913,6.913,0,0,0,222,101.154v41.519c0,3.867,2.869,7.327,6.735,7.327H238V252.649A7.322,7.322,0,0,0,245.017,260H412.7a7.572,7.572,0,0,0,7.3-7.351V150h8.735A7.515,7.515,0,0,0,436,142.673V101.154A7.363,7.363,0,0,0,428.735,94ZM406,246H252V150h48v49a6.77,6.77,0,0,0,10.344,5.987l18.316-11.128,18.9,11.169A6.948,6.948,0,0,0,351.1,206a6.806,6.806,0,0,0,3.418-.92A6.953,6.953,0,0,0,358,199V150h48Zm-92-59.423V150h30v36.742l-11.921-7.064a6.619,6.619,0,0,0-6.974.041ZM422,136H236V108H422Z"/></svg>