<?xml version="1.0" encoding="iso-8859-1"?>
<!-- Generator: Adobe Illustrator 16.0.0, SVG Export Plug-In . SVG Version: 6.00 Build 0)  -->
<!DOCTYPE svg PUBLIC "-//W3C//DTD SVG 1.1//EN" "http://www.w3.org/Graphics/SVG/1.1/DTD/svg11.dtd">
<svg xmlns="http://www.w3.org/2000/svg"  fill="#040b00" id="Layer_1" data-name="Layer 1" viewBox="0 0 512 512" width="512" height="512"><title>Bill document</title><path d="M86,429H271.012A98.977,98.977,0,1,0,345,292.466V142a7,7,0,0,0-2.05-4.95l-112-112A7,7,0,0,0,226,23H86A35.04,35.04,0,0,0,51,58V394A35.04,35.04,0,0,0,86,429ZM362,305a84.9,84.9,0,1,1-22.181,2.921A85.1,85.1,0,0,1,362,305ZM233,46.9,321.1,135H254a21.024,21.024,0,0,1-21-21ZM65,58A21.024,21.024,0,0,1,86,37H219v77a35.04,35.04,0,0,0,35,35h77V295.971A99.048,99.048,0,0,0,266.2,415H86a21.024,21.024,0,0,1-21-21Z"/><path d="M362.188,439.275c-.063,0-.125-.009-.188-.009s-.125.007-.188.009a19.659,19.659,0,0,1-19.454-19.632,7,7,0,0,0-14,0A33.7,33.7,0,0,0,355,452.547v9.588a7,7,0,0,0,14,0v-9.588A33.642,33.642,0,0,0,362,386a19.642,19.642,0,1,1,19.642-19.641,7,7,0,0,0,14,0A33.7,33.7,0,0,0,369,333.454v-8.376a7,7,0,0,0-14,0v8.376A33.641,33.641,0,0,0,362,400a19.638,19.638,0,0,1,.188,39.275Z"/><path d="M103,341H247a7,7,0,0,0,0-14H103a7,7,0,0,0,0,14Z"/><path d="M103,375H210a7,7,0,0,0,0-14H103a7,7,0,0,0,0,14Z"/><path d="M103,218h8v82.172A6.566,6.566,0,0,0,117.653,307H248.565c3.867,0,7.435-2.961,7.435-6.828V218h7a6.836,6.836,0,0,0,7-6.806V173.828A6.855,6.855,0,0,0,263,167H103a6.855,6.855,0,0,0-7,6.828v37.366A6.836,6.836,0,0,0,103,218Zm139,75H125V218h31v43.892a7.061,7.061,0,0,0,10.7,5.987l16.182-9.8,16.674,9.84a7,7,0,0,0,3.561.972,6.782,6.782,0,0,0,3.411-.921A6.945,6.945,0,0,0,210,261.892V218h32Zm-72-43.535V218h26v31.63l-9.653-5.734a7.029,7.029,0,0,0-7.205.041ZM110,181H256v23H110Z"/></svg>
