<?xml version="1.0" encoding="iso-8859-1"?>
<!-- Generator: Adobe Illustrator 16.0.0, SVG Export Plug-In . SVG Version: 6.00 Build 0)  -->
<!DOCTYPE svg PUBLIC "-//W3C//DTD SVG 1.1//EN" "http://www.w3.org/Graphics/SVG/1.1/DTD/svg11.dtd">
<svg xmlns="http://www.w3.org/2000/svg"  fill="#040b00" id="Layer_1" data-name="Layer 1" viewBox="0 0 512 512" width="512" height="512"><title>Box 2_1</title><path d="M41.7,374.171a46.959,46.959,0,0,1,36.936,36.935,7,7,0,0,0,13.728,0A46.959,46.959,0,0,1,129.3,374.171a7,7,0,0,0,0-13.729,46.959,46.959,0,0,1-36.936-36.935,7,7,0,0,0-13.728,0A46.959,46.959,0,0,1,41.7,360.442a7,7,0,0,0,0,13.729Zm43.8-29.542a60.834,60.834,0,0,0,22.678,22.678A60.824,60.824,0,0,0,85.5,389.984a60.824,60.824,0,0,0-22.678-22.677A60.834,60.834,0,0,0,85.5,344.629Z"/><path d="M424.5,242.307c0-86.571-70.43-157-157-157a156.834,156.834,0,0,0-157,157c0,86.57,70.43,157,157,157S424.5,328.877,424.5,242.307Zm-300,0a142.836,142.836,0,0,1,143-143c78.851,0,143,64.149,143,143s-64.149,143-143,143S124.5,321.157,124.5,242.307Z"/><path d="M169.632,472.609a6.993,6.993,0,0,0,8.472-2.643,31.164,31.164,0,0,1,31.91-13.538,7,7,0,0,0,5.144-12.728,31.158,31.158,0,0,1-13.536-31.907,7,7,0,0,0-12.726-5.146,31.158,31.158,0,0,1-31.91,13.538,7,7,0,0,0-5.145,12.726,31.162,31.162,0,0,1,13.537,31.909A7,7,0,0,0,169.632,472.609Zm18.423-45.57a45.067,45.067,0,0,0,6.712,15.822,45.087,45.087,0,0,0-15.822,6.713,45.05,45.05,0,0,0-6.713-15.822A45.066,45.066,0,0,0,188.055,427.039Z"/><path d="M433.364,132.106A46.959,46.959,0,0,1,470.3,95.171a7,7,0,0,0,0-13.729,46.959,46.959,0,0,1-36.936-36.935,7,7,0,0,0-13.728,0A46.959,46.959,0,0,1,382.7,81.442a7,7,0,0,0,0,13.729,46.959,46.959,0,0,1,36.936,36.935,7,7,0,0,0,13.728,0Zm-29.542-43.8A60.834,60.834,0,0,0,426.5,65.629a60.834,60.834,0,0,0,22.678,22.678A60.824,60.824,0,0,0,426.5,110.984,60.824,60.824,0,0,0,403.822,88.307Z"/><path d="M365.734,303.218A6.793,6.793,0,0,0,369,297.155v-109.7a6.87,6.87,0,0,0-.237-2.521c-.027-.066.2-.135.176-.2-.078-.183-.17-.357-.263-.533-.055-.1-.106-.211-.165-.312-.087-.147-.186-.285-.283-.425-.083-.12-.165-.24-.255-.354s-.2-.235-.305-.349-.216-.238-.332-.35-.22-.2-.333-.293-.258-.216-.4-.316c-.118-.086-.242-.166-.367-.246-.084-.053-.162-.116-.249-.166l-33.074-19.1c-.054-.031-.107-.062-.162-.091L271,126.548a7,7,0,0,0-7,0l-95.165,54.8a7.241,7.241,0,0,0-3.835,6.11v109.7a7.246,7.246,0,0,0,3.75,6.063l95.125,54.847a7.228,7.228,0,0,0,3.563.938,7.113,7.113,0,0,0,3.531-.938ZM355,293.114l-81,46.765V246.338l81-46.766ZM315.414,168.356l-80.991,46.76-10.216-5.9,80.991-46.76ZM227,227.141v42.577l-.166-.33a7.06,7.06,0,0,0-7.966-1.845L217,268.3V221.342Zm40.5-86.448,23.7,13.682-80.991,46.76-23.7-13.682ZM260,339.879l-81-46.765V199.572l24,13.687v65.5a7.139,7.139,0,0,0,9.826,6.469l6.9-2.84,9.254,10.5a7.012,7.012,0,0,0,5.262,2.375,6.356,6.356,0,0,0,2.349-.451A6.893,6.893,0,0,0,241,288.263V235.224l19,11.115ZM248.423,223.2l80.994-46.761,19.074,11.014L267.5,234.214Z"/></svg>
