<?xml version="1.0" encoding="iso-8859-1"?>
<!-- Generator: Adobe Illustrator 16.0.0, SVG Export Plug-In . SVG Version: 6.00 Build 0)  -->
<!DOCTYPE svg PUBLIC "-//W3C//DTD SVG 1.1//EN" "http://www.w3.org/Graphics/SVG/1.1/DTD/svg11.dtd">
<svg xmlns="http://www.w3.org/2000/svg"  fill="#040b00" id="Layer_1" data-name="Layer 1" viewBox="0 0 512 512" width="512" height="512"><title>Box 2</title><path d="M456,58H56c-3.866,0-7,2.639-7,6.5V167.543c0,3.866,3.134,7.457,7,7.457H82V447.5a6.232,6.232,0,0,0,6.564,6.5H423.922c3.867,0,7.078-2.639,7.078-6.5V175h25c3.866,0,7-3.591,7-7.457V64.505C463,60.639,459.866,58,456,58ZM417,440H96V175H205V340.2a6.9,6.9,0,0,0,3.45,6.1,6.79,6.79,0,0,0,3.379.9,6.9,6.9,0,0,0,3.6-1.013l40.3-24.427,41.439,24.468a7.261,7.261,0,0,0,7.169.051A7.133,7.133,0,0,0,308,340.2V175H417ZM219,327.777V175h75V327.943L259.364,307.58a6.921,6.921,0,0,0-7.144.041ZM449,161H63V72H449Z"/></svg>
