<?xml version="1.0" encoding="iso-8859-1"?>
<!-- Generator: Adobe Illustrator 16.0.0, SVG Export Plug-In . SVG Version: 6.00 Build 0)  -->
<!DOCTYPE svg PUBLIC "-//W3C//DTD SVG 1.1//EN" "http://www.w3.org/Graphics/SVG/1.1/DTD/svg11.dtd">

<svg xmlns="http://www.w3.org/2000/svg"  fill="#040b00" id="Layer_1" data-name="Layer 1" viewBox="0 0 512 512" width="512" height="512">
<title>Call Enquiry</title><path d="M119.957,385.938a380.445,380.445,0,0,0,126.475,99.037c17.968,8.594,41.955,18.673,68.149,20.348,1.5.1,3,.1,4.336.1,14.908,0,26.924-5.1,36.734-15.59.077-.082.151-.165.223-.25a216.442,216.442,0,0,1,15.787-16.343l1.9-1.852c2.959-2.876,5.753-5.594,8.556-8.609,11.212-11.687,11.123-24.843-.222-36.079l-46.338-46.339-.07-.069c-2.916-3.159-8.921-8.288-17.159-8.288-6.078,0-12.182,2.89-17.649,8.357l-28.762,28.762c-1.122,1.123-3.752,3.752-7.833,3.752a11.276,11.276,0,0,1-5.071-1.3l-.049-.031c-.236-.147-.475-.291-.712-.422-2.663-1.637-5.6-3.1-8.7-4.654a108.888,108.888,0,0,1-9.733-5.289c-26.338-16.656-50.212-38.391-72.986-66.448-.07-.087-.144-.173-.219-.256-12.291-15.637-20.294-28.671-25.9-42.183l-.154-.465c-1.412-4.494-1.421-7.9,2.663-11.985.066-.067.13-.134.194-.2l.027-.026c7.2-6.462,13.729-12.953,21.3-20.7,1.66-1.605,3.287-3.251,4.862-4.844q1.183-1.2,2.383-2.4c11.6-11.6,11.6-24.372,0-35.97l-22.923-22.922q-2-2.064-3.992-4.075-2-2.031-3.954-4.038c-5.582-5.766-10.324-10.563-15.3-15.215l-.172-.173c-5.193-5.192-11.15-7.936-17.227-7.936-6.015,0-12.091,2.721-17.574,7.868-.054.05-.107.1-.158.153L62.009,198.037a45.387,45.387,0,0,0-13.632,29.355c-1.363,16.631,1.671,33.8,9.831,55.647C71.188,318.11,90.8,350.8,119.957,385.938Zm190.623,4.323c1.589-1.59,4.71-4.257,7.749-4.257,3.089,0,5.88,2.7,6.937,3.855.081.089.165.177.252.262l46.5,46.5c5.822,5.764,5.9,10.188.233,16.213a7.042,7.042,0,0,0-.739.786c-.249.265-.513.52-.765.784l-62.157-62.158ZM100.5,179.342c2.812-2.62,5.549-4,7.916-4,2.886,0,5.578,2.086,7.314,3.822l.266.267c.057.056.113.111.171.165,4.794,4.479,9.419,9.159,14.89,14.81q1.99,2.053,4.034,4.119,1.968,2,3.958,4.041c.024.025.05.05.074.076L162.086,225.6c6.2,6.2,6.2,9.974,0,16.171-.665.666-1.322,1.331-1.98,2L98.094,181.751ZM62.328,228.56a31.5,31.5,0,0,1,9.58-20.624l16.286-16.285,62.043,62.043c-5.573,5.626-10.712,10.631-16.215,15.564l-.03.027a7.935,7.935,0,0,0-1.011,1c-10.49,10.805-6.932,22.07-5.754,25.8.01.035.021.068.033.1l.253.761q.076.231.17.458c6.155,14.907,14.832,29.088,28.135,45.979.108.136.219.268.336.4,23.693,29.144,48.615,51.789,76.178,69.22a121.423,121.423,0,0,0,10.962,5.984c2.88,1.44,5.6,2.8,7.766,4.144.133.083.27.161.409.235l.073.046c.362.227.731.443,1.087.621a25.161,25.161,0,0,0,11.456,2.841c6.556,0,12.522-2.642,17.733-7.853l16.873-16.873,62.11,62.108a220.113,220.113,0,0,0-15.486,16.13c-7.185,7.631-15.335,11.036-26.4,11.036-1.166,0-2.372,0-3.421-.07C291.677,489.83,269.3,480.4,252.5,472.36A366.5,366.5,0,0,1,130.71,376.973c-28.092-33.859-46.958-65.251-59.38-98.813C63.919,258.317,61.144,243.013,62.328,228.56Z"/><path d="M243.631,197.609l75.065,43.31a7.094,7.094,0,0,0,7.051,0l74.877-43.31A6.89,6.89,0,0,0,404,191.547v-86.6a6.879,6.879,0,0,0-3.369-6.062L325.7,55.584a6.938,6.938,0,0,0-6.967,0l-75.114,43.3A7.108,7.108,0,0,0,240,104.947v86.6A7.126,7.126,0,0,0,243.631,197.609ZM390,187.506l-61,35.227V152.286l61-35.22Zm-6.741-82.562-61,35.218-24.237-13.993,61-35.217Zm-61-35.215,22.758,13.14-61,35.217-22.759-13.14ZM254,117.069l61,35.217v70.443l-61-35.223Z"/><path d="M246.058,267.706l-12.492,46.163a7,7,0,0,0,10.775,7.56L293.469,287a142.684,142.684,0,0,0,28.794,2.927c78.117,0,141.67-63.558,141.67-141.68S400.38,6.577,322.263,6.577s-141.68,63.552-141.68,141.67a141.591,141.591,0,0,0,65.475,119.459Zm76.2-247.129a127.675,127.675,0,1,1-28.732,252.108,7.013,7.013,0,0,0-5.586,1.089l-35.819,25.1,8.813-32.572a7,7,0,0,0-3.213-7.865A127.689,127.689,0,0,1,322.263,20.577Z"/></svg>
