<?xml version="1.0" encoding="iso-8859-1"?>
<!-- Generator: Adobe Illustrator 16.0.0, SVG Export Plug-In . SVG Version: 6.00 Build 0)  -->
<!DOCTYPE svg PUBLIC "-//W3C//DTD SVG 1.1//EN" "http://www.w3.org/Graphics/SVG/1.1/DTD/svg11.dtd">

<svg xmlns="http://www.w3.org/2000/svg"  fill="#040b00" id="Layer_1" data-name="Layer 1" viewBox="0 0 512 512" width="512" height="512">
<title>Cargo container 3</title><path d="M496.05,381H263V300h19.96a7.279,7.279,0,0,0,7.04-7.28V197.86a6.916,6.916,0,0,0-7.04-6.86h-1.432L170,118.138V98.476a20.223,20.223,0,0,0,0-37.958V57h6.25a7,7,0,0,0,0-14H170V29.55a7,7,0,0,0-14,0V43h-6.23a7,7,0,0,0,0,14H156v9.27a7,7,0,0,0,7,7,6.24,6.24,0,1,1-6.236,6.24,7,7,0,0,0-14,0A19.862,19.862,0,0,0,156,98.476v19.662L44.491,191H43.06A6.933,6.933,0,0,0,36,197.86V286H15.95A6.724,6.724,0,0,0,9,292.72V482.45c0,3.866,3.184,6.55,7.05,6.55h239.9c.034,0,.067,0,.1,0s.065,0,.1,0h239.9c3.866,0,6.95-2.684,6.95-6.55V387.58C503,383.714,499.916,381,496.05,381ZM163.01,130.427,255.9,191H70.121ZM249,475H23V395H249Zm0-94H23V300H249Zm6.85-95H50V205H276v81ZM489,475H263V395H489Z"/><path d="M325,472.45a7,7,0,0,0,7-7V404.58a7,7,0,1,0-14,0v60.87A7,7,0,0,0,325,472.45Z"/><path d="M290,472.45a7,7,0,0,0,7-7V404.58a7,7,0,1,0-14,0v60.87A7,7,0,0,0,290,472.45Z"/><path d="M393,472.45a7,7,0,0,0,7-7V404.58a7,7,0,1,0-14,0v60.87A7,7,0,0,0,393,472.45Z"/><path d="M428,472.45a7,7,0,0,0,7-7V404.58a7,7,0,1,0-14,0v60.87A7,7,0,0,0,428,472.45Z"/><path d="M359,472.45a7,7,0,0,0,7-7V404.58a7,7,0,1,0-14,0v60.87A7,7,0,0,0,359,472.45Z"/><path d="M462,472.45a7,7,0,0,0,7-7V404.58a7,7,0,1,0-14,0v60.87A7,7,0,0,0,462,472.45Z"/><path d="M85,472.45a7,7,0,0,0,7-7V404.58a7,7,0,0,0-14,0v60.87A7,7,0,0,0,85,472.45Z"/><path d="M50,472.45a7,7,0,0,0,7-7V404.58a7,7,0,0,0-14,0v60.87A7,7,0,0,0,50,472.45Z"/><path d="M153,472.45a7,7,0,0,0,7-7V404.58a7,7,0,1,0-14,0v60.87A7,7,0,0,0,153,472.45Z"/><path d="M187,472.45a7,7,0,0,0,7-7V404.58a7,7,0,1,0-14,0v60.87A7,7,0,0,0,187,472.45Z"/><path d="M119,472.45a7,7,0,0,0,7-7V404.58a7,7,0,1,0-14,0v60.87A7,7,0,0,0,119,472.45Z"/><path d="M222,472.45a7,7,0,0,0,7-7V404.58a7,7,0,1,0-14,0v60.87A7,7,0,0,0,222,472.45Z"/><path d="M112,207.86a7,7,0,0,0-7,7v60.86a7,7,0,0,0,14,0V214.86A7,7,0,0,0,112,207.86Z"/><path d="M77,207.86a7,7,0,0,0-7,7v60.86a7,7,0,0,0,14,0V214.86A7,7,0,0,0,77,207.86Z"/><path d="M180,207.86a7,7,0,0,0-7,7v60.86a7,7,0,0,0,14,0V214.86A7,7,0,0,0,180,207.86Z"/><path d="M214,207.86a7,7,0,0,0-7,7v60.86a7,7,0,0,0,14,0V214.86A7,7,0,0,0,214,207.86Z"/><path d="M146,207.86a7,7,0,0,0-7,7v60.86a7,7,0,0,0,14,0V214.86A7,7,0,0,0,146,207.86Z"/><path d="M249,207.86a7,7,0,0,0-7,7v60.86a7,7,0,0,0,14,0V214.86A7,7,0,0,0,249,207.86Z"/><path d="M84,377.59a7,7,0,0,0,7-7V309.72a7,7,0,0,0-14,0v60.87A7,7,0,0,0,84,377.59Z"/><path d="M50,377.59a7,7,0,0,0,7-7V309.72a7,7,0,0,0-14,0v60.87A7,7,0,0,0,50,377.59Z"/><path d="M153,377.59a7,7,0,0,0,7-7V309.72a7,7,0,0,0-14,0v60.87A7,7,0,0,0,153,377.59Z"/><path d="M187,377.59a7,7,0,0,0,7-7V309.72a7,7,0,0,0-14,0v60.87A7,7,0,0,0,187,377.59Z"/><path d="M119,377.59a7,7,0,0,0,7-7V309.72a7,7,0,0,0-14,0v60.87A7,7,0,0,0,119,377.59Z"/><path d="M222,377.59a7,7,0,0,0,7-7V309.72a7,7,0,0,0-14,0v60.87A7,7,0,0,0,222,377.59Z"/></svg>
