<?xml version="1.0" encoding="iso-8859-1"?>
<!-- Generator: Adobe Illustrator 16.0.0, SVG Export Plug-In . SVG Version: 6.00 Build 0)  -->
<!DOCTYPE svg PUBLIC "-//W3C//DTD SVG 1.1//EN" "http://www.w3.org/Graphics/SVG/1.1/DTD/svg11.dtd">

<svg xmlns="http://www.w3.org/2000/svg"  fill="#040b00" id="Layer_1" data-name="Layer 1" viewBox="0 0 512 512" width="512" height="512">
<title>Cargo container</title><path d="M478,332.857V322.774a15.782,15.782,0,0,0-.887-5.224L463.1,262H478a7,7,0,0,0,0-14H356.616A6.361,6.361,0,0,0,350,254.614V395H188.476a46.181,46.181,0,0,0-40.82,0H103.868a46.2,46.2,0,0,0-40.829,0H20.011A11.279,11.279,0,0,0,9,406.3v27.482A11.212,11.212,0,0,0,20.011,445h17.8a47.631,47.631,0,0,0,13.256,25.081,46.4,46.4,0,0,0,74.705-14.31,46.44,46.44,0,0,0,74.7,14.311A47.63,47.63,0,0,0,213.726,445H378.732a47.619,47.619,0,0,0,13.252,25.078,46.49,46.49,0,0,0,64.794.026A47.663,47.663,0,0,0,470.031,445h25.958A7.194,7.194,0,0,0,503,437.787V374.368A47.046,47.046,0,0,0,478,332.857ZM37.54,431H23V409H46.244C41.552,416,38.565,423,37.54,431Zm78.238,6.616a32.328,32.328,0,0,1-64.639-.062c-.007-.228-.006-.463-.006-.691a32.262,32.262,0,0,1,8.624-21.979l.133-.133c.047-.046.092-.094.138-.143a32.023,32.023,0,0,1,8.01-6.161,32.38,32.38,0,0,1,30.822,0l.03.016a32.014,32.014,0,0,1,8,6.149c.046.049.092.1.139.144l.135.135a32.224,32.224,0,0,1,8.623,21.977C115.786,437.091,115.787,437.326,115.778,437.616Zm10-19.915a56.921,56.921,0,0,0-5.1-8.7h10.19A57.78,57.78,0,0,0,125.777,417.7ZM200,436.863v.831c0,17.371-14.734,31.491-32.125,31.491a32.449,32.449,0,0,1-32.218-31.654c-.009-.22.042-.447.042-.668a32.339,32.339,0,0,1,16.914-28.406c.009,0,.032-.01.039-.015a31.942,31.942,0,0,1,15.412-3.9,32.359,32.359,0,0,1,15.4,3.9l.032.017a31.972,31.972,0,0,1,16.62,26.008C200.17,435.21,200,435.994,200,436.863ZM350,431H214c-1.036-8-4.048-15-8.661-22H350Zm63-169h35.661l14.95,59.264a5.775,5.775,0,0,0,.208.583,2.472,2.472,0,0,1,.181.927v5.291A47.225,47.225,0,0,0,455.989,327H426.257C419.089,327,413,321.537,413,314.368Zm-49,0h35v52.368c0,12.6,9,23.214,21,26.175V359H364Zm92.7,175.622a32.325,32.325,0,0,1-64.633-.04c-.006-.239,0-.484,0-.72a32.322,32.322,0,0,1,64.557-2.369c.058.762.087,1.559.087,2.369C456.7,437.105,456.7,437.358,456.7,437.622ZM489,431H470.3a46.312,46.312,0,0,0-91.827,0H364V402.432c0-.045.007-.089.007-.135s-.007-.09-.007-.136V373h62.633c3.866,0,7.367-2.646,7.367-6.513V341h21.989c18.2,0,33.011,15.172,33.011,33.368Z"/><path d="M69,255.767a7,7,0,0,0-7,7V343.3a7,7,0,0,0,14,0V262.767A7,7,0,0,0,69,255.767Z"/><path d="M123,255.767a7,7,0,0,0-7,7V343.3a7,7,0,0,0,14,0V262.767A7,7,0,0,0,123,255.767Z"/><path d="M176,255.767a7,7,0,0,0-7,7V343.3a7,7,0,0,0,14,0V262.767A7,7,0,0,0,176,255.767Z"/><path d="M229,255.767a7,7,0,0,0-7,7V343.3a7,7,0,0,0,14,0V262.767A7,7,0,0,0,229,255.767Z"/><path d="M283,255.767a7,7,0,0,0-7,7V343.3a7,7,0,0,0,14,0V262.767A7,7,0,0,0,283,255.767Z"/><path d="M26,382H326c3.866,0,7-3.622,7-7.488V231.55c0-.229,0-.458,0-.685v-.023a3.245,3.245,0,0,0-.111-.606,7.045,7.045,0,0,0-.41-1.349.118.118,0,0,1-.011-.019c-.068-.161-.149-.317-.227-.472-.024-.047-.046-.1-.07-.144-.063-.115-.133-.224-.2-.335-.052-.084-.1-.171-.156-.253s-.1-.137-.15-.2c-.084-.117-.167-.234-.259-.346-.024-.03-.052-.057-.076-.086a6.918,6.918,0,0,0-1.533-1.343c-.155-.1-.314-.2-.479-.289-.012-.007-.027-.012-.04-.019q-.293-.156-.6-.284l.131-.005L185,165.756v-8.008c10-3.641,18.273-13.777,18.273-25.688A27.309,27.309,0,0,0,183,105.841V83h3.067a6.964,6.964,0,0,0,6.791-5.261l10.067-40.247a6.786,6.786,0,0,0-1.274-5.9A6.905,6.905,0,0,0,196.134,29H155.866a6.867,6.867,0,0,0-6.791,8.559l10.067,40.2A6.942,6.942,0,0,0,165.933,83H169v28.926a7,7,0,0,0,7,7,13.134,13.134,0,1,1-13.134,13.134,7,7,0,0,0-7-7,6.882,6.882,0,0,0-6.86,7A26.764,26.764,0,0,0,171,158.675v7.041L23.524,225.066c-.01,0-.09.01-.1.015-.162.066-.353.141-.508.219-.056.028-.132.052-.186.082-.128.068-.259.145-.382.22-.077.048-.162.091-.237.141s-.15.11-.224.164c-.114.082-.229.162-.335.25-.01.007-.018.016-.028.024A6.909,6.909,0,0,0,19.2,229.9c-.017.071-.039.141-.055.213-.019.1-.032.2-.047.295-.023.134-.047.267-.062.4-.007.065-.008.132-.014.2-.013.17-.024.341-.025.513,0,.012,0,.023,0,.035V374.512C19,378.378,22.134,382,26,382ZM171.4,69l-6.567-26h22.338L180.6,69Zm6.292,109.442L290.647,225H62.111ZM33,239H319V368H33Z"/></svg>
