<?xml version="1.0" encoding="iso-8859-1"?>
<!-- Generator: Adobe Illustrator 16.0.0, SVG Export Plug-In . SVG Version: 6.00 Build 0)  -->
<!DOCTYPE svg PUBLIC "-//W3C//DTD SVG 1.1//EN" "http://www.w3.org/Graphics/SVG/1.1/DTD/svg11.dtd">

<svg xmlns="http://www.w3.org/2000/svg"  fill="#040b00" id="Layer_1" data-name="Layer 1" viewBox="0 0 512 512" width="512" height="512">
<title>Cargo 2</title><path d="M494,242H450V105.33c0-3.866-2.692-7.33-6.559-7.33H308.251a27.315,27.315,0,0,0-26.582,22.658L260.136,242H230.468A48.143,48.143,0,0,0,186.4,271H159V241.93c0-3.867-3.612-6.93-7.479-6.93H118.654A6.653,6.653,0,0,0,112,241.93V332H34.318a6.79,6.79,0,0,0-5.724,2.743L12.275,357.819A7.113,7.113,0,0,0,18,369H151.521A7.655,7.655,0,0,0,159,361.732V346h23v10.828A7.552,7.552,0,0,0,189.457,364h25.819c2.546,28,25.049,49.842,52.353,49.842S317.437,392,319.982,364h50.551c2.545,28,25.049,49.756,52.353,49.756,27.355,0,49.89-22.043,52.365-50.044C489.7,362.161,501,349.365,501,333.913V248.552C501,244.686,497.866,242,494,242ZM145,355H31.485l6.467-9h80.7A7.706,7.706,0,0,0,126,338.542V249h19Zm37-65.438V332H159V285h23.721A25.214,25.214,0,0,0,182,289.562ZM295.452,122.805A13.058,13.058,0,0,1,308.251,112H436V242H398V149.163A7.477,7.477,0,0,0,390.617,142H292.05ZM289.558,156H384v86H274.356ZM267.629,399.67c-21.284,0-38.6-18.447-38.6-41.123s17.316-41.123,38.6-41.123,38.6,18.447,38.6,41.123S288.913,399.67,267.629,399.67Zm155.257,0c-21.284,0-38.6-18.447-38.6-41.123s17.316-41.123,38.6-41.123,38.6,18.447,38.6,41.123S444.17,399.67,422.886,399.67ZM487,333.913c0,7.854-5.293,14.382-12.221,15.669-4.1-26.144-25.8-46.072-51.893-46.072-26.173,0-47.935,20.49-51.936,46.49H319.565c-4-26-25.763-46.4-51.936-46.4S219.694,324,215.694,350H196V289.562C196,270.809,211.714,256,230.468,256H487Z"/></svg>
