<?xml version="1.0" encoding="iso-8859-1"?>
<!-- Generator: Adobe Illustrator 16.0.0, SVG Export Plug-In . SVG Version: 6.00 Build 0)  -->
<!DOCTYPE svg PUBLIC "-//W3C//DTD SVG 1.1//EN" "http://www.w3.org/Graphics/SVG/1.1/DTD/svg11.dtd">

<svg xmlns="http://www.w3.org/2000/svg"  fill="#040b00" id="Layer_1" data-name="Layer 1" viewBox="0 0 512 512" width="512" height="512">
<title>Cargo Crane 3</title><path d="M404.73,47H255V27.5a6.33,6.33,0,0,0-6.69-6.5H178.7c-.015,0-.03-.248-.046-.248-.16,0-.32-.113-.479-.1-.077,0-.155-.055-.232-.047-.126.014-.25,0-.374.026-.108.017-.217.016-.325.038-.069.015-.138.029-.207.046-.156.038-.312.072-.464.12l-.011,0a6.957,6.957,0,0,0-1.792.872c-.065.044-.126.095-.19.141-.114.084-.231.165-.34.256-.127.1-.247.218-.366.332-.042.04-.087.076-.128.117-.108.108-.209.225-.31.341-.048.055-.1.106-.146.163-.074.09-.142.187-.211.282s-.139.18-.2.275c-.046.068-.086.141-.129.212-.08.129-.16.259-.232.394-.028.053-.051.108-.078.161-.079.159-.155.318-.222.483l-.016.034c-.018.047-.03.094-.048.141-.059.158-.116.317-.165.48-.025.088-.045.176-.068.265-.032.13-.066.26-.091.393s-.041.254-.058.381c-.013.1-.029.192-.038.289-.015.163.128.325.126.487,0,.055.141.109.141.164V47H107.27A7.286,7.286,0,0,0,100,54.06V75.31c0,3.866,3.4,6.69,7.27,6.69H172V424H155.08a7.4,7.4,0,0,0-7.08,7.38V484.5c0,3.866,3.214,7.5,7.08,7.5H378.17c3.866,0,6.83-3.634,6.83-7.5V431.38c0-3.866-2.964-7.38-6.83-7.38H255V82h57V96.55a7.57,7.57,0,0,0,7.2,7.45H344v54.346a22.931,22.931,0,0,0,0,43.679V217.37a23.581,23.581,0,0,0,11.559,20.2,8.98,8.98,0,0,1,4.418,8.151,9.073,9.073,0,0,1-8.478,8.487,8.938,8.938,0,0,1-9.362-8.928,7,7,0,1,0-14,0,23.047,23.047,0,0,0,7.1,16.587,22.73,22.73,0,0,0,15.823,6.351c.361,0,.725-.009,1.089-.025a22.926,22.926,0,0,0,10.537-42.673A9.53,9.53,0,0,1,358,217.37V202.023a22.934,22.934,0,0,0,0-43.676V104h24.95c3.866,0,7.05-3.584,7.05-7.45V82h14.73c3.867,0,7.27-2.824,7.27-6.69V54.06A7.286,7.286,0,0,0,404.73,47ZM241,35V45L215.054,35Zm-55,2.839L232.485,56.43,186,82.768Zm55,29.513v44.929L194.515,93.689Zm-55,37.767,46.487,18.592L186,150.057Zm55,29.514v44.938l-46.487-18.592Zm-55,37.776L232.485,191,186,217.338Zm55,29.513v44.929L194.515,228.26Zm-55,37.767,46.485,18.591L186,284.618ZM241,269.2v44.929L194.515,295.54Zm-55,37.767,46.485,18.592L186,351.9Zm55,29.513v44.929L194.515,362.82Zm-55,37.767,46.487,18.592L186,419.187Zm55,29.514V424H204.932ZM114,68V61h58v7ZM371,438v40H162V438ZM360.01,180.19a8.935,8.935,0,1,1-8.93-8.94A8.94,8.94,0,0,1,360.01,180.19ZM376,90H326V82h50Zm22-22H255V61H398Z"/></svg>
