<?xml version="1.0" encoding="iso-8859-1"?>
<!-- Generator: Adobe Illustrator 16.0.0, SVG Export Plug-In . SVG Version: 6.00 Build 0)  -->
<!DOCTYPE svg PUBLIC "-//W3C//DTD SVG 1.1//EN" "http://www.w3.org/Graphics/SVG/1.1/DTD/svg11.dtd">

<svg xmlns="http://www.w3.org/2000/svg"  fill="#040b00" id="Layer_1" data-name="Layer 1" viewBox="0 0 512 512" width="512" height="512">
<title>Clipboard</title><path d="M223.4,29.981A6.974,6.974,0,0,0,218.491,28H64.284C40.417,28,21,48.132,21,72.95V440.373C21,465.191,40.417,485,64.284,485h247.94C336.091,485,356,465.191,356,440.373V162.905a7.222,7.222,0,0,0-2.336-4.974Zm-1.4,18.7L336.564,161H239.656C230.178,161,222,152.746,222,142.634Zm120,391.7c0,17.1-13.629,30.627-29.776,30.627H64.284C48.137,471,35,457.472,35,440.373V72.95C35,55.852,48.137,42,64.284,42H208V142.634C208,160.466,222.458,175,239.656,175H342Z"/><path d="M81.473,320a7,7,0,0,0,7,7H281.987a7,7,0,1,0,0-14H88.473A7,7,0,0,0,81.473,320Z"/><path d="M88.473,251H191.278a7,7,0,1,0,0-14H88.473a7,7,0,0,0,0,14Z"/><path d="M281.987,389H88.473a7,7,0,0,0,0,14H281.987a7,7,0,1,0,0-14Z"/><path d="M484,72h-1.936l.084-15.762a29.248,29.248,0,0,0-8.6-21.136A27.413,27.413,0,0,0,453.99,27h-.2C438.369,27,426,39.813,426,55.787V71.479L393.811,71h-.047a6.867,6.867,0,0,0-4.816,2.167,7.208,7.208,0,0,0-1.948,5.1V212.143a7,7,0,1,0,14,0V85.313l16,.107v328.2a6.915,6.915,0,0,0,.581,2.948l30.035,64.766a6.979,6.979,0,0,0,12.671,0l30.066-64.766a6.974,6.974,0,0,0,.647-2.948V78.57C491,74.7,487.866,72,484,72ZM440,55.787C440,47.479,446.134,41,453.892,41h.1a13.414,13.414,0,0,1,9.66,3.892,15.821,15.821,0,0,1,4.5,11.351L468.063,72H440Zm13.93,406.357L434.827,421h38.2ZM477,407H431V246h46Zm0-175H431V215h46Zm0-31H431V86h46Z"/></svg>
