<?xml version="1.0" encoding="iso-8859-1"?>
<!-- Generator: Adobe Illustrator 16.0.0, SVG Export Plug-In . SVG Version: 6.00 Build 0)  -->
<!DOCTYPE svg PUBLIC "-//W3C//DTD SVG 1.1//EN" "http://www.w3.org/Graphics/SVG/1.1/DTD/svg11.dtd">

<svg xmlns="http://www.w3.org/2000/svg"  fill="#040b00" id="Layer_1" data-name="Layer 1" viewBox="0 0 512 512" width="512" height="512">
<title>Clipboard 2</title><path d="M400.893,99H349.4a38.447,38.447,0,0,0-38.011-32h-11.9a38.654,38.654,0,0,0-38.456-38h-9.575A38.633,38.633,0,0,0,213,67H201.1a37.985,37.985,0,0,0-27.2,11.012A37.523,37.523,0,0,0,163.085,99H111.107C96.219,99,84,111.513,84,126.4V455.88A27.225,27.225,0,0,0,111.107,483H400.893A27.225,27.225,0,0,0,428,455.88V126.4C428,111.513,415.781,99,400.893,99ZM251.458,43h9.568a24.427,24.427,0,0,1,17.307,7.285A25.116,25.116,0,0,1,285.483,67H227C227.376,54,238.2,43,251.458,43ZM177,105.363A24.063,24.063,0,0,1,201.1,81H311.387A24.527,24.527,0,0,1,336,105.365v36l-159,0Zm-7.188,50,173.051,0a7.16,7.16,0,0,0,5.018-2.05,7.067,7.067,0,0,0,2.119-4.95V143h18V423H144V143h19v5.363A6.841,6.841,0,0,0,169.812,155.363ZM414,455.88A13.209,13.209,0,0,1,400.893,469H111.107A13.209,13.209,0,0,1,98,455.88V126.4A13.454,13.454,0,0,1,111.107,113H163v16H136.744A6.851,6.851,0,0,0,130,136.075v294.1A6.637,6.637,0,0,0,136.744,437H375.256A6.637,6.637,0,0,0,382,430.176v-294.1A6.851,6.851,0,0,0,375.256,129H350V113h50.893A13.454,13.454,0,0,1,414,126.4Z"/><path d="M218.1,328.773a7,7,0,0,0,9.779,2.051l96-64a7,7,0,1,0-7.766-11.648L226.051,315.22,197.9,271.227a7,7,0,1,0-11.792,7.546Z"/></svg>
