<?xml version="1.0" encoding="iso-8859-1"?>
<!-- Generator: Adobe Illustrator 16.0.0, SVG Export Plug-In . SVG Version: 6.00 Build 0)  -->
<!DOCTYPE svg PUBLIC "-//W3C//DTD SVG 1.1//EN" "http://www.w3.org/Graphics/SVG/1.1/DTD/svg11.dtd">

<svg xmlns="http://www.w3.org/2000/svg" fill="#040b00" id="Layer_1" data-name="Layer 1" viewBox="0 0 512 512" width="512" height="512">
<title>Containers 2</title><path d="M456,85H56a7.267,7.267,0,0,0-7,7.306v40A6.745,6.745,0,0,0,56,139H73V373H56a6.745,6.745,0,0,0-7,6.694v40A7.267,7.267,0,0,0,56,427H456a7.267,7.267,0,0,0,7-7.306v-40A6.745,6.745,0,0,0,456,373H439V139h17a6.745,6.745,0,0,0,7-6.694v-40A7.267,7.267,0,0,0,456,85Zm-7,302v26H63V387ZM202,260.078a7,7,0,0,0,7-7V139H313V253.078a7,7,0,0,0,14,0V139h98V373H377V259.078a7,7,0,0,0-14,0V373H267.219l.754-113.761A7.152,7.152,0,0,0,261.019,252h-.047a7.167,7.167,0,0,0-7,7.145L253.219,373H148.6l.754-113.761A7.152,7.152,0,0,0,142.4,252h-.047a7.167,7.167,0,0,0-7,7.145L134.6,373H87V139H195V253.078A7,7,0,0,0,202,260.078ZM449,125H63V99H449Z"/></svg>
