<?xml version="1.0" encoding="iso-8859-1"?>
<!-- Generator: Adobe Illustrator 16.0.0, SVG Export Plug-In . SVG Version: 6.00 Build 0)  -->
<!DOCTYPE svg PUBLIC "-//W3C//DTD SVG 1.1//EN" "http://www.w3.org/Graphics/SVG/1.1/DTD/svg11.dtd">

<svg xmlns="http://www.w3.org/2000/svg" fill="#040b00" id="Layer_1" data-name="Layer 1" viewBox="0 0 512 512" width="512" height="512">
<title>Container shipping</title><path d="M114,325.805a7,7,0,0,0-7,7V440.188a7,7,0,0,0,14,0V332.805A7,7,0,0,0,114,325.805Z"/><path d="M185,325.805a7,7,0,0,0-7,7V440.188a7,7,0,0,0,14,0V332.805A7,7,0,0,0,185,325.805Z"/><path d="M256,325.805a7,7,0,0,0-7,7V440.188a7,7,0,0,0,14,0V332.805A7,7,0,0,0,256,325.805Z"/><path d="M327,325.805a7,7,0,0,0-7,7V440.188a7,7,0,0,0,14,0V332.805A7,7,0,0,0,327,325.805Z"/><path d="M398,325.805a7,7,0,0,0-7,7V440.188a7,7,0,0,0,14,0V332.805A7,7,0,0,0,398,325.805Z"/><path d="M56,489H456a7.175,7.175,0,0,0,7-7.2V291.183c0-.216-.013-.43-.033-.643,0-.022,0-.044,0-.066-.017-.17-.047-.337-.077-.5a6.936,6.936,0,0,0-.672-1.99c-.015-.029-.027-.06-.043-.089-.07-.131-.149-.255-.227-.381-.042-.069-.081-.14-.126-.207-.057-.085-.121-.165-.182-.248-.074-.1-.146-.2-.227-.3-.037-.044-.078-.085-.115-.128-.111-.129-.223-.257-.343-.377l-.026-.024a7,7,0,0,0-1.065-.865c-.176-.117-.357-.227-.544-.328l-.013-.006a6.935,6.935,0,0,0-.628-.3l-.155,0L265,205.019V191.066a34.216,34.216,0,0,0,24.7-32.537A33.774,33.774,0,0,0,263,125.412V91h6.423a7.049,7.049,0,0,0,6.791-5.356l13.423-53.718a7.246,7.246,0,0,0-1.274-6.12A7.11,7.11,0,0,0,282.846,23H229.154a7.149,7.149,0,0,0-6.791,8.849l13.423,53.77A7.071,7.071,0,0,0,242.577,91H249v40.684a7,7,0,0,0,7,7,19.846,19.846,0,1,1-19.846,19.845,7,7,0,0,0-7-7,7.127,7.127,0,0,0-7.147,7A34.154,34.154,0,0,0,251,192.04v12.938L53.237,284.7c-.012,0,.051.011.039.016-.157.064-.272.138-.423.213-.061.03-.105.057-.164.088-.121.065-.228.138-.344.209-.084.051-.167.1-.248.153-.065.044-.124.094-.187.14a6.89,6.89,0,0,0-2.7,3.994c-.02.08-.044.158-.061.238s-.03.187-.046.28c-.023.139-.048.277-.063.417-.007.063-.008.128-.013.191-.014.173-.025.345-.026.52l0,.034V481.8A7.175,7.175,0,0,0,56,489ZM248.042,77,238.12,37h35.76l-9.922,40Zm10.222,140.069L420.648,284H92.112ZM63,298H449V475H63Z"/></svg>
