<?xml version="1.0" encoding="iso-8859-1"?>
<!-- Generator: Adobe Illustrator 16.0.0, SVG Export Plug-In . SVG Version: 6.00 Build 0)  -->
<!DOCTYPE svg PUBLIC "-//W3C//DTD SVG 1.1//EN" "http://www.w3.org/Graphics/SVG/1.1/DTD/svg11.dtd">

<svg xmlns="http://www.w3.org/2000/svg"  fill="#040b00" id="Layer_1" data-name="Layer 1" viewBox="0 0 512 512" width="512" height="512">
<title>Container shipping_1</title><path d="M367.089,290H338.244L263,243V227.24a46.2,46.2,0,0,0,39-45.4v-.33c0-23.265-17.654-42.522-40-45.766V118.938l33.3-35.012a6.783,6.783,0,0,0,1.7-4.844v-50c0-3.866-2.634-7.082-6.5-7.082h-69c-3.866,0-7.5,3.216-7.5,7.082v50a7.265,7.265,0,0,0,2.2,4.844L248,116.851v25.415A6.778,6.778,0,0,0,255,149h.282A32.908,32.908,0,0,1,288,181.608v.236a32.214,32.214,0,0,1-32.166,31.97,32.915,32.915,0,0,1-32.628-32.664A7.192,7.192,0,0,0,216.17,174h-.036a7.149,7.149,0,0,0-6.965,7.22A46.976,46.976,0,0,0,249,227.307V243l-75.244,47H144.911A6.855,6.855,0,0,0,138,296.918v186A7,7,0,0,0,144.911,490H367.089A7,7,0,0,0,374,482.918v-186A6.855,6.855,0,0,0,367.089,290ZM228,36h55V50H228Zm0,40.27V64h55V76.27l-27.5,28.7Zm28,178.942L311.787,290H200.213ZM274,304v96.187l-36,22.146V304Zm86,172H152V304h72V434.782a6.9,6.9,0,0,0,3.465,6.1,6.807,6.807,0,0,0,3.378.9,6.909,6.909,0,0,0,3.611-1.019l50.3-30.66A6.892,6.892,0,0,0,288,404.122V304h72Z"/></svg>
