<?xml version="1.0" encoding="iso-8859-1"?>
<!-- Generator: Adobe Illustrator 16.0.0, SVG Export Plug-In . SVG Version: 6.00 Build 0)  -->
<!DOCTYPE svg PUBLIC "-//W3C//DTD SVG 1.1//EN" "http://www.w3.org/Graphics/SVG/1.1/DTD/svg11.dtd">

<svg xmlns="http://www.w3.org/2000/svg" fill="#040b00" id="Layer_1" data-name="Layer 1" viewBox="0 0 512 512" width="512" height="512">
<title>Conveyor 3</title><path d="M410.74,312H101.26a62.5,62.5,0,0,0,0,125H410.74a62.5,62.5,0,0,0,0-125Zm34.13,96.725A48.079,48.079,0,0,1,410.74,423H101.26a48.5,48.5,0,0,1,0-97H410.74a48.5,48.5,0,0,1,34.13,82.725Z"/><path d="M205.56,334.31a40.16,40.16,0,1,0,40.16,40.16A40.206,40.206,0,0,0,205.56,334.31Zm0,66.32a26.16,26.16,0,1,1,26.16-26.16A26.189,26.189,0,0,1,205.56,400.63Z"/><path d="M410.17,334.31a40.16,40.16,0,1,0,40.15,40.16A40.206,40.206,0,0,0,410.17,334.31Zm0,66.32a26.16,26.16,0,1,1,26.15-26.16A26.189,26.189,0,0,1,410.17,400.63Z"/><path d="M103.25,334.31a40.16,40.16,0,1,0,40.16,40.16A40.2,40.2,0,0,0,103.25,334.31Zm0,66.32a26.16,26.16,0,1,1,26.16-26.16A26.185,26.185,0,0,1,103.25,400.63Z"/><path d="M307.86,334.31a40.16,40.16,0,1,0,40.16,40.16A40.206,40.206,0,0,0,307.86,334.31Zm0,66.32a26.16,26.16,0,1,1,26.16-26.16A26.189,26.189,0,0,1,307.86,400.63Z"/><path d="M155.17,292H356.83A16.019,16.019,0,0,0,373,276.03V149.21a7.006,7.006,0,0,0-1.1-3.763L331.935,82.616A16.212,16.212,0,0,0,318.3,75H193.7a16.212,16.212,0,0,0-13.633,7.612L140.1,145.38a7.233,7.233,0,0,0-1.1,3.83V276.03A16.019,16.019,0,0,0,155.17,292ZM280,278H232V192.694l48,19.9ZM263,89h55.3a2.208,2.208,0,0,1,1.827,1.032L353.236,142H263Zm-71.125,1.029A2.206,2.206,0,0,1,193.7,89H249v53H158.764ZM153,156H359V276.03a2.01,2.01,0,0,1-2.17,1.97H294V207.94a7.123,7.123,0,0,0-4.424-6.456l-61.545-25.77a7.321,7.321,0,0,0-6.745.627A7.16,7.16,0,0,0,218,182.17V278H155.17a2.01,2.01,0,0,1-2.17-1.97Z"/></svg>
