<?xml version="1.0" encoding="iso-8859-1"?>
<!-- Generator: Adobe Illustrator 16.0.0, SVG Export Plug-In . SVG Version: 6.00 Build 0)  -->
<!DOCTYPE svg PUBLIC "-//W3C//DTD SVG 1.1//EN" "http://www.w3.org/Graphics/SVG/1.1/DTD/svg11.dtd">

<svg xmlns="http://www.w3.org/2000/svg" fill="#040b00" id="Layer_1" data-name="Layer 1" viewBox="0 0 512 512" width="512" height="512">
<title>Customer service</title><path d="M157.467,304H179v15.859a20.106,20.106,0,0,0-18.934,20.427A20.251,20.251,0,0,0,180.3,360.2l.24,0,38.984-.6a6.982,6.982,0,0,0,5.011-2.229c4.129-.02,8.463-.039,12.249-.055a2.47,2.47,0,0,1,.312.015c3.352.214,5.9,3.33,5.9,6.945v17.514A7.493,7.493,0,0,0,250.353,389h86.732a7.174,7.174,0,0,0,6.98-7.676c-.033-.458-3.342-46.155-.01-81.954.739-7.938,7.934-27.136,10.809-34.279a97.192,97.192,0,0,0-2.372-94.038,95.386,95.386,0,0,0-79.342-47.771q-1.336-.048-2.68-.062a103.9,103.9,0,0,0-105.224,98.431c-.1,1.68-.146,13.922-.161,19.311l-18.194,47.661A11.337,11.337,0,0,0,157.467,304ZM180.362,346.2a6.241,6.241,0,0,1-6.266-6.108A6.027,6.027,0,0,1,180.144,334h32l.173,11.8ZM284,138.54c24,4.227,43.961,18.451,56.229,39.544a83.271,83.271,0,0,1,2.065,80.821q-.156.3-.283.614c-1.105,2.727-10.821,27.087-11.9,38.633C327.46,326.673,328.81,360,329.631,375H257V364.273a20.916,20.916,0,0,0-10.212-18.217,39.747,39.747,0,0,0,36.831-39.881l-.018-6.78a36.329,36.329,0,0,0,30.337-36.3l-.2-3.66A36.163,36.163,0,0,0,284,224.247ZM277.387,238h.209A22.189,22.189,0,0,1,299.9,259.816l.05,3.563a22.226,22.226,0,0,1-22.1,22.512,22.351,22.351,0,0,1-22.516-22.009l-.05-3.66A21.981,21.981,0,0,1,277.387,238Zm-98.765,6.769a7.037,7.037,0,0,0,.46-2.485c.021-8.691.076-18.693.142-19.939,2.6-48.226,42.425-85.177,90.776-85.337V224.34a36.249,36.249,0,0,0-28.793,36.071l.09,3.661a36.419,36.419,0,0,0,28.322,34.917l.078,7.316a25.644,25.644,0,0,1-25.358,25.863l-18.215.112-.081-5.481a6.914,6.914,0,0,0-7-6.8H193V296.979A6.877,6.877,0,0,0,186.124,290H161.358Z"/><path d="M234.4,47.466,248,33.837V80.688a7,7,0,0,0,14,0V31.962l15.535,15.5a7.01,7.01,0,0,0,9.928-9.9L260.948,11.05a7,7,0,0,0-9.9,0L224.533,37.567a6.989,6.989,0,1,0,9.869,9.9Z"/><path d="M257,424.312a7,7,0,0,0-7,7v48.726l-15.535-15.5a7.008,7.008,0,0,0-9.924,9.9l26.513,26.517a7,7,0,0,0,9.9,0l26.516-26.517a6.989,6.989,0,1,0-9.869-9.9L264,478.163V431.312A7,7,0,0,0,257,424.312Z"/><path d="M37.566,287.467a6.99,6.99,0,1,0,9.9-9.869L33.837,264H80.688a7,7,0,0,0,0-14H31.962l15.505-15.536a7.008,7.008,0,0,0-9.9-9.922L11.05,251.054a7,7,0,0,0,0,9.9Z"/><path d="M474.434,224.534a6.989,6.989,0,0,0-9.9,9.868l13.63,13.6H431.312a7,7,0,0,0,0,14h48.726l-15.5,15.536a7.01,7.01,0,1,0,9.9,9.926l26.516-26.514a7,7,0,0,0,0-9.9Z"/><path d="M86,130.794a7,7,0,0,0,7-7V104.52l33.275,33.128a7.147,7.147,0,0,0,5.024,2.05,7.065,7.065,0,0,0,4.987-2.05A7.181,7.181,0,0,0,136.3,127.6L101.869,93h21.925a7,7,0,1,0,0-14h-37.5A7.512,7.512,0,0,0,79,86.294v37.5A7,7,0,0,0,86,130.794Z"/><path d="M426,381.206a7,7,0,0,0-7,7V407.48l-33.275-33.128a7.091,7.091,0,0,0-9.974,0,7.18,7.18,0,0,0-.036,10.047L410.131,419H388.206a7,7,0,0,0,0,14h37.5A7.512,7.512,0,0,0,433,425.706v-37.5A7,7,0,0,0,426,381.206Z"/><path d="M379.3,138.373a7.317,7.317,0,0,0,5.1-2.051L419,101.868v21.926a7,7,0,1,0,14,0v-37.5A7.512,7.512,0,0,0,425.706,79h-37.5a7,7,0,0,0,0,14h19.273l-33.127,33.276a7.112,7.112,0,0,0,4.95,12.1Z"/><path d="M127.6,375.678,93,410.132V388.206a7,7,0,0,0-14,0v37.5A7.512,7.512,0,0,0,86.294,433h37.5a7,7,0,1,0,0-14H104.521l33.127-33.276A7.1,7.1,0,0,0,127.6,375.678Z"/></svg>
