<?xml version="1.0" encoding="iso-8859-1"?>
<!-- Generator: Adobe Illustrator 16.0.0, SVG Export Plug-In . SVG Version: 6.00 Build 0)  -->
<!DOCTYPE svg PUBLIC "-//W3C//DTD SVG 1.1//EN" "http://www.w3.org/Graphics/SVG/1.1/DTD/svg11.dtd">

<svg xmlns="http://www.w3.org/2000/svg" fill="#040b00" id="Layer_1" data-name="Layer 1" viewBox="0 0 512 512" width="512" height="512">
<title>Delivery Email</title><path d="M21.154,441.26a9.2,9.2,0,0,0,1.019,1.071A47.077,47.077,0,0,0,56,457H336a47.076,47.076,0,0,0,33.793-14.633,8.1,8.1,0,0,0,1.044-.968,7.29,7.29,0,0,0,1.3-1.818A46.954,46.954,0,0,0,383,409.5V309.309c66.785-3.647,120-59.127,120-126.808a127.024,127.024,0,0,0-227.012-78.32A125.207,125.207,0,0,0,249.236,175H56A47.092,47.092,0,0,0,9.4,216.027a7.075,7.075,0,0,0-.315,3.345c-.051.889-.082,1.8-.082,2.7V409.5a46.783,46.783,0,0,0,10.846,30A6.983,6.983,0,0,0,21.154,441.26ZM287.008,112.854a112.965,112.965,0,1,1,22.128,160.8,6.96,6.96,0,0,0-.934-.706A115.257,115.257,0,0,1,293.855,260.1a113.017,113.017,0,0,1-6.847-147.247ZM56,189H249.173a126.857,126.857,0,0,0,34.507,80.68,130.591,130.591,0,0,0,9.791,9.356l-78.665,66.726a28.907,28.907,0,0,1-37.5.02L23.631,215.622A33.082,33.082,0,0,1,56,189ZM23,233.471l145.261,123a42.86,42.86,0,0,0,55.6-.023l80.986-68.685A125.392,125.392,0,0,0,369,309.313V409.5a32.794,32.794,0,0,1-4.041,15.807l-84.131-85.6a7,7,0,0,0-9.984,9.813l84.913,86.645A33.048,33.048,0,0,1,336,443H56a33.04,33.04,0,0,1-19.8-6.867l84.449-86.5a7.073,7.073,0,0,0-.111-9.961,7,7,0,0,0-9.9.08l-83.629,85.52A32.864,32.864,0,0,1,23,409.5Z"/><path d="M302.5,228.978l70,40.415a7,7,0,0,0,7,0l70-40.415a7,7,0,0,0,3.5-6.062V142.087a7,7,0,0,0-3.5-6.062l-70-40.415a7,7,0,0,0-7,0l-70,40.415a7,7,0,0,0-3.5,6.062v80.829A7,7,0,0,0,302.5,228.978Zm136.5-10.1-56,32.331V186.537l56-32.331Zm-7-76.791L376,174.413l-21.687-12.521,56-32.329ZM376,109.755l20.309,11.726-56,32.328-20.308-11.725Zm-63,44.451,56,32.331v64.669l-56-32.331Z"/></svg>
