<?xml version="1.0" encoding="iso-8859-1"?>
<!-- Generator: Adobe Illustrator 16.0.0, SVG Export Plug-In . SVG Version: 6.00 Build 0)  -->
<!DOCTYPE svg PUBLIC "-//W3C//DTD SVG 1.1//EN" "http://www.w3.org/Graphics/SVG/1.1/DTD/svg11.dtd">

<svg xmlns="http://www.w3.org/2000/svg" fill="#040b00" id="Layer_1" data-name="Layer 1" viewBox="0 0 512 512" width="512" height="512">
<title>Delivery package</title><path d="M459.454,134.443l-69.776-40.2L386,100.319V100.3l3.667-6.053L259.414,19a6.917,6.917,0,0,0-6.957,0L52.609,134.394A6.981,6.981,0,0,0,49,140.53V371.47a7,7,0,0,0,3.5,6.062L252.5,493a7,7,0,0,0,7,0l200-115.47a7,7,0,0,0,3.5-6.062V140.53A7.032,7.032,0,0,0,459.454,134.443ZM372.34,100.31,186.357,207.688,149.381,186.34,335.362,78.962ZM179,219.606v114.6l-14.156-16.08a7.293,7.293,0,0,0-8.116-1.845L142,322.285V198.464ZM256,33.143l65.362,37.736L135.381,178.257,70.02,140.52Zm-7,441.672L63,367.429v-214.8l65,37.747V332.75a7.26,7.26,0,0,0,9.957,6.47l19.636-8.091,23.129,26.246A7.015,7.015,0,0,0,193,352.75V227.689l56,32.332ZM256,247.9l-55.642-32.126L386.344,108.39l55.637,32.13ZM449,367.429,263,474.815V260.021L449,152.633Z"/><path d="M291.076,304.335a7,7,0,0,0,9.48-2.851L305,293.216V337.06a7,7,0,0,0,14,0V283.025l6.559,6.95a7,7,0,1,0,10.181-9.61l-18.649-19.76a7,7,0,0,0-11.257,1.491l-17.61,32.759A7,7,0,0,0,291.076,304.335Z"/><path d="M340.312,270.634a7.044,7.044,0,0,0,9.593-2.6l5.1-8.828V311.23a7,7,0,0,0,14,0V251.969l6,6.4a6.989,6.989,0,1,0,10.148-9.612L366.494,229a7,7,0,0,0-11.167,1.328l-17.611,30.75A7,7,0,0,0,340.312,270.634Z"/><path d="M82,332.17a7,7,0,0,0-7,7v27a7,7,0,0,0,14,0v-27A7,7,0,0,0,82,332.17Z"/><path d="M111,352.17a7,7,0,0,0-7,7V383.5a7,7,0,0,0,14,0V359.17A7,7,0,0,0,111,352.17Z"/><path d="M141,372.17a7,7,0,0,0-7,7v21.42a7,7,0,0,0,14,0V379.17A7,7,0,0,0,141,372.17Z"/><path d="M171,392.17a7,7,0,0,0-7,7v18.52a7,7,0,1,0,14,0V399.17A7,7,0,0,0,171,392.17Z"/><path d="M193,435.17a7,7,0,1,0,14,0v-16a7,7,0,0,0-14,0Z"/><path d="M345.331,337.277a7,7,0,1,0,7,12.126l40.86-23.58a7,7,0,1,0-7-12.126Z"/><path d="M327.15,347.778l-33.22,19.18a7,7,0,1,0,7,12.124l33.22-19.18a7,7,0,1,0-7-12.124Z"/></svg>
