<?xml version="1.0" encoding="iso-8859-1"?>
<!-- Generator: Adobe Illustrator 16.0.0, SVG Export Plug-In . SVG Version: 6.00 Build 0)  -->
<!DOCTYPE svg PUBLIC "-//W3C//DTD SVG 1.1//EN" "http://www.w3.org/Graphics/SVG/1.1/DTD/svg11.dtd">

<svg xmlns="http://www.w3.org/2000/svg" fill="#040b00" id="Layer_1" data-name="Layer 1" viewBox="0 0 512 512" width="512" height="512">
<title>Delivery Security 3</title><path d="M502.972,394.208c-.008-.109-.019-.216-.033-.323s-.033-.235-.053-.352-.041-.222-.066-.332-.054-.221-.086-.331-.062-.22-.1-.328-.076-.214-.117-.32-.084-.212-.13-.315-.1-.206-.15-.309-.1-.2-.161-.3-.114-.194-.175-.289-.131-.2-.2-.3-.127-.173-.193-.258-.159-.2-.243-.293c-.039-.044-.072-.091-.111-.134l-37.386-40.9A21.707,21.707,0,0,0,447.92,342H408V325.15A20.8,20.8,0,0,0,386.99,304H381.6a139.672,139.672,0,0,0,3.4-30.03V114.69a6.919,6.919,0,0,0-3.824-6.283L200.151,19.477a6.952,6.952,0,0,0-6.142,0l-181.1,88.7A6.991,6.991,0,0,0,9,114.46V273.97c0,46.051,28.7,100.346,66.766,126.293l117.38,80.06a7,7,0,0,0,7.888,0L236.228,456.4A21.6,21.6,0,0,0,255.27,468h11.911c3.209,14,16.167,25.4,31.629,25.4S327.23,482,330.439,468H413.03c3.209,14,16.168,25.4,31.63,25.4S473.08,482,476.289,468h5.2A21.672,21.672,0,0,0,503,446.33V394.76c0-.059-.008-.115-.009-.174C502.988,394.46,502.982,394.334,502.972,394.208ZM234,441.063l-36.785,25L83.716,388.7C49.138,365.124,23,315.8,23,273.97V118.826l174.017-85.27L371,119.051V273.97A126.717,126.717,0,0,1,367.2,304h-32.2c3.73-11,6.006-22.234,6.006-32.09V144.12a7.154,7.154,0,0,0-4.074-6.283l-136.67-67.08a7.091,7.091,0,0,0-6.205,0L57.191,137.644A7.259,7.259,0,0,0,53,143.93V271.91c0,32.395,22.045,73.617,48.836,91.893l91.185,62.1a7.192,7.192,0,0,0,4.006,1.217,7.5,7.5,0,0,0,4.1-1.217L234,403.588Zm0-115.913v61.491l-36.785,25.006-87.428-59.41C86.764,336.531,67,299.746,67,271.91V148.3l130-63.46,130,63.645V271.91c0,9.651-2.591,20.09-6.891,32.09H255.27A21.018,21.018,0,0,0,234,325.15Zm64.81,154.09a18.4,18.4,0,1,1,18.4-18.4A18.421,18.421,0,0,1,298.81,479.24ZM394,394.76V454H330.439a32.4,32.4,0,0,0-63.258,0H255.27a7.452,7.452,0,0,1-7.27-7.67V325.15a7.009,7.009,0,0,1,7.27-7.15H386.99a6.8,6.8,0,0,1,7.01,7.15ZM408,356h39.92a7.807,7.807,0,0,1,5.533,2.714L480.074,388H408Zm36.66,123.24a18.4,18.4,0,1,1,18.4-18.4A18.421,18.421,0,0,1,444.66,479.24ZM489,446.33a7.657,7.657,0,0,1-7.51,7.67h-5.2a32.4,32.4,0,0,0-63.259,0H408V402h81Z"/><path d="M238.713,215.638,183.2,266.486l-27.31-29.611a7,7,0,1,0-10.291,9.491l32.04,34.739a7,7,0,0,0,9.873.417l60.66-55.56a7,7,0,1,0-9.455-10.324Z"/></svg>
