<?xml version="1.0" encoding="iso-8859-1"?>
<!-- Generator: Adobe Illustrator 16.0.0, SVG Export Plug-In . SVG Version: 6.00 Build 0)  -->
<!DOCTYPE svg PUBLIC "-//W3C//DTD SVG 1.1//EN" "http://www.w3.org/Graphics/SVG/1.1/DTD/svg11.dtd">

<svg xmlns="http://www.w3.org/2000/svg" fill="#040b00" id="Layer_1" data-name="Layer 1" viewBox="0 0 512 512" width="512" height="512">
<title>Delivery 4</title><path d="M256,9C177.339,9,113.344,73.091,113.344,151.752A6.9,6.9,0,0,0,114.709,156h-.172L214,291.049V337.2c0,3.866,3.475,6.8,7.341,6.8h19.894l-23.18,29H185.539c-3.866,0-6.539,3.41-6.539,7.276V496c0,3.866,2.673,7,6.539,7H326.461c3.866,0,6.539-3.134,6.539-7V380.276c0-3.866-2.673-7.276-6.539-7.276H293.917l-23.495-29h20.61A6.808,6.808,0,0,0,298,337.2V290.542L397.275,156h.009a6.9,6.9,0,0,0,1.368-4.248C398.652,73.091,334.661,9,256,9ZM128.035,150.42c1.595-4.928,4.314-11.414,7.169-14.1.1-.1.2-.229.3-.331a25.76,25.76,0,0,1,18.755-7.877,26.293,26.293,0,0,1,18.9,8.005c.051.05.1.095.153.144a25.739,25.739,0,0,1,7.86,18.752,6.967,6.967,0,0,0,.472,2.509l0,.128L229.41,282h-4.531Zm67.167,3.5a25.784,25.784,0,0,1,7.83-17.6c.1-.1.2-.229.3-.331a25.756,25.756,0,0,1,18.754-7.877,26.3,26.3,0,0,1,18.9,8.005c.05.05.1.095.152.144A25.735,25.735,0,0,1,249,155.01V282h-4.591Zm85.408,272.34a7.231,7.231,0,0,0,3.39-5.85V387h35V489H193V387h35v33.406a7,7,0,0,0,9.777,6.426l17.99-7.772,17.988,7.772a6.986,6.986,0,0,0,2.775.574A7.78,7.78,0,0,0,280.61,426.256ZM242,409.757V387h28v22.757l-11.223-4.748a7.285,7.285,0,0,0-5.671,0ZM275.918,373h-39.96L255.8,348.1ZM284,330H228V296h56Zm-21-48V155.01a25.744,25.744,0,0,1,7.86-18.754c.1-.1.2-.2.3-.3a25.747,25.747,0,0,1,18.755-7.859,26.307,26.307,0,0,1,18.9,8.011c.05.05.1.1.152.148a25.934,25.934,0,0,1,7.83,17.675L268.174,282Zm24.121,0H283.15l47.221-124.378,0-.065a7.144,7.144,0,0,0,.462-2.516,25.778,25.778,0,0,1,7.86-18.769c.1-.1.2-.206.3-.308a25.746,25.746,0,0,1,18.754-7.863,26.309,26.309,0,0,1,18.9,8.009c.049.05.1.1.151.147,2.855,2.687,5.575,9.238,7.17,14.163Zm70.621-167.9a39.815,39.815,0,0,0-28.8,12.11,37.891,37.891,0,0,0-5.11,6,37.932,37.932,0,0,0-5.187-6.077,40.3,40.3,0,0,0-57.53.073,37.845,37.845,0,0,0-5.111,6,37.887,37.887,0,0,0-5.188-6.077,40.3,40.3,0,0,0-57.53.073,37.891,37.891,0,0,0-5.11,6,37.925,37.925,0,0,0-5.187-6.076,40.427,40.427,0,0,0-52.066-4.661C144.536,65.046,195.45,23,256,23c60.589,0,111.529,42.1,125.107,98.582A39.563,39.563,0,0,0,357.742,114.1Z"/></svg>
