<?xml version="1.0" encoding="iso-8859-1"?>
<!-- Generator: Adobe Illustrator 16.0.0, SVG Export Plug-In . SVG Version: 6.00 Build 0)  -->
<!DOCTYPE svg PUBLIC "-//W3C//DTD SVG 1.1//EN" "http://www.w3.org/Graphics/SVG/1.1/DTD/svg11.dtd">

<svg xmlns="http://www.w3.org/2000/svg" fill="#040b00" id="Layer_1" data-name="Layer 1" viewBox="0 0 512 512" width="512" height="512">
<title>Delivery Tracking</title><path d="M34,204.967V408.849C34,426.173,48.375,440,65.7,440H89.724a49.725,49.725,0,0,0,98.461,0H335.109a49.724,49.724,0,0,0,98.46,0H446.3c17.324,0,31.7-13.827,31.7-31.151V322.083c0-.057-.147-.113-.149-.17,0-.129-.149-.257-.159-.385-.008-.106-.019-.211-.032-.316-.015-.121-.034-.24-.055-.36s-.041-.217-.065-.325-.055-.225-.087-.338-.061-.215-.1-.322-.077-.217-.119-.325-.083-.208-.128-.31-.1-.209-.151-.313-.1-.2-.159-.3-.116-.195-.177-.291-.129-.2-.2-.295-.127-.174-.195-.26-.158-.2-.241-.292c-.039-.044-.071-.09-.111-.133L412.978,249a31.33,31.33,0,0,0-23.148-10H319V204.967C319,187.642,304.642,174,287.317,174h-2.578c4.233-14,5.925-26.666,5.016-39.982a113.712,113.712,0,0,0-33.715-73.3,111.18,111.18,0,0,0-155.312-.085,113.957,113.957,0,0,0-33.715,73.4C66.1,147.349,67.8,160,72.028,174H65.7C48.375,174,34,187.642,34,204.967ZM384.339,469a35.733,35.733,0,1,1,35.732-35.732A35.773,35.773,0,0,1,384.339,469ZM319,253h70.83a17.255,17.255,0,0,1,12.833,5.421L454.793,315H319Zm0,76H464v79.849c0,9.605-8.094,17.151-17.7,17.151H433.569a49.724,49.724,0,0,0-98.46,0H319ZM138.955,469a35.733,35.733,0,1,1,35.733-35.732A35.772,35.772,0,0,1,138.955,469ZM80.98,134.745a99.446,99.446,0,0,1,29.564-64.161,97.214,97.214,0,0,1,135.679,0,99.441,99.441,0,0,1,29.564,64.161,92.2,92.2,0,0,1-5.808,38.658c-4.594,12.339-12.133,24.033-22.406,34.756l-69.189,72.22L109.2,208.159C98.922,197.437,91.384,185.743,86.789,173.4A92.215,92.215,0,0,1,80.98,134.745ZM77.655,188a132.829,132.829,0,0,0,21.43,30.071l74.244,77.382a6.947,6.947,0,0,0,5.055,2.1,7.026,7.026,0,0,0,5.054-2.185l74.244-77.285A132.834,132.834,0,0,0,279.113,188h8.2c9.605,0,17.683,7.362,17.683,16.967V426H188.185a49.724,49.724,0,0,0-98.461,0H65.7c-9.6,0-17.7-7.546-17.7-17.151V204.967C48,195.362,56.094,188,65.7,188Z"/><path d="M157.958,159.117A7,7,0,0,0,167.7,160l43.108-35.071a7,7,0,1,0-8.835-10.86l-37.806,30.758L153.63,132.49a7,7,0,1,0-10.646,9.091Z"/><path d="M178.384,208.8c41.535,0,75.327-33.984,75.327-75.756s-33.792-75.757-75.327-75.757-75.328,33.985-75.328,75.757S136.848,208.8,178.384,208.8Zm0-137.513c33.816,0,61.327,27.7,61.327,61.757S212.2,194.8,178.384,194.8s-61.328-27.7-61.328-61.756S144.567,71.282,178.384,71.282Z"/></svg>
