<?xml version="1.0" encoding="iso-8859-1"?>
<!-- Generator: Adobe Illustrator 16.0.0, SVG Export Plug-In . SVG Version: 6.00 Build 0)  -->
<!DOCTYPE svg PUBLIC "-//W3C//DTD SVG 1.1//EN" "http://www.w3.org/Graphics/SVG/1.1/DTD/svg11.dtd">

<svg xmlns="http://www.w3.org/2000/svg" fill="#040b00" id="Layer_1" data-name="Layer 1" viewBox="0 0 512 512" width="512" height="512">
<title>Delivery location map</title><path d="M266.865,250.634a7.011,7.011,0,0,0-11.267,1.491l-16.9,31.44a7,7,0,0,0,6.158,10.316,7.185,7.185,0,0,0,6.292-3.687L255,283.247V343.42a7,7,0,1,0,14,0V273.051l5.69,6.155a6.929,6.929,0,0,0,9.836.284,7,7,0,0,0,.254-9.9Z"/><path d="M41,338.45a7,7,0,0,0-7,7v25.92a7,7,0,0,0,14,0V345.45A7,7,0,0,0,41,338.45Z"/><path d="M69,357.65a7,7,0,0,0-7,7V388a7,7,0,0,0,14,0V364.65A7,7,0,0,0,69,357.65Z"/><path d="M98,376.85a7,7,0,0,0-7,7v20.56a7,7,0,0,0,14,0V383.85A7,7,0,0,0,98,376.85Z"/><path d="M126,396.05a7,7,0,0,0-7,7v17.77a7,7,0,0,0,14,0V403.05A7,7,0,0,0,126,396.05Z"/><path d="M148,437.61a7,7,0,0,0,14,0V422.25a7,7,0,0,0-14,0Z"/><path d="M276.16,353.467l-31.89,18.41a7,7,0,1,0,7,12.125l31.89-18.41a7,7,0,1,0-7-12.125Z"/><path d="M464.021,297.883A90.474,90.474,0,0,0,407,272.117V135.55a7.03,7.03,0,0,0-3.54-6.083L211.5,18.638a7,7,0,0,0-7,0L12.628,129.415A7,7,0,0,0,9,135.55v240.9a7,7,0,0,0,3.5,6.062l192,110.85a7,7,0,0,0,7,0l120-69.273c1.009,1.144,2.045,2.282,3.12,3.4l60.33,62.97a7,7,0,0,0,10.11,0l60.331-62.971A95.4,95.4,0,0,0,486.321,394.9,87.585,87.585,0,0,0,491.8,358.2,93.49,93.49,0,0,0,464.021,297.883ZM319.126,96.942,141.141,199.7,106.21,179.53,284.191,76.772ZM134,211.624V339.933l-13.195-14.878a7.229,7.229,0,0,0-8.076-1.845L99,328.816V191.648ZM208,32.783l62.191,35.906L92.205,171.45,30.02,135.541Zm-7,442.392L23,372.409V147.654l62,35.917V339.28a7.135,7.135,0,0,0,9.821,6.47l18.654-7.691,22.058,25.046a7.01,7.01,0,0,0,5.262,2.375,7.553,7.553,0,0,0,2.573-.451A7.094,7.094,0,0,0,148,358.48V219.707l53,30.714ZM208,238.3l-52.859-30.518L333.126,105.025,385.98,135.54Zm7,236.879V250.421L393,147.653V272.117a90.474,90.474,0,0,0-57.021,25.766A93.49,93.49,0,0,0,308.2,358.2a87.585,87.585,0,0,0,5.485,36.7,88.952,88.952,0,0,0,9.223,17.98Zm258.2-85.158a81.52,81.52,0,0,1-17.925,27.789L400,475.5l-55.277-57.695a91.7,91.7,0,0,1-6.113-7.043A77.85,77.85,0,0,1,326.8,390.021a73.678,73.678,0,0,1-4.637-30.864A79.489,79.489,0,0,1,345.8,307.865a77.686,77.686,0,0,1,108.408,0,79.489,79.489,0,0,1,23.632,51.293A73.67,73.67,0,0,1,473.2,390.018Z"/><path d="M400,294.81c-34.474,0-62.52,28.2-62.52,62.87s28.046,62.87,62.52,62.87,62.52-28.2,62.52-62.87S434.474,294.81,400,294.81Zm0,111.74a48.871,48.871,0,1,1,48.52-48.87A48.751,48.751,0,0,1,400,406.55Z"/></svg>
