<?xml version="1.0" encoding="iso-8859-1"?>
<!-- Generator: Adobe Illustrator 16.0.0, SVG Export Plug-In . SVG Version: 6.00 Build 0)  -->
<!DOCTYPE svg PUBLIC "-//W3C//DTD SVG 1.1//EN" "http://www.w3.org/Graphics/SVG/1.1/DTD/svg11.dtd">

<svg xmlns="http://www.w3.org/2000/svg" fill="#040b00" id="Layer_1" data-name="Layer 1" viewBox="0 0 512 512" width="512" height="512">
<title>Derivery location 3</title><path d="M467.475,158.765a7,7,0,0,0-3.757,9.158A224.694,224.694,0,0,1,126.573,437.857l31.746-43.086a7,7,0,0,0-6.537-11.093L76.914,393.4a7,7,0,0,0-6,8.137l12.9,74.387a7,7,0,0,0,12.533,2.957l21.92-29.751A238.661,238.661,0,0,0,495,254.464a237.048,237.048,0,0,0-18.366-91.942A7,7,0,0,0,467.475,158.765ZM111.244,435.06c-.021.027-.045.051-.065.079-.034.045-.062.093-.095.139L94.806,457.37,85.96,406.343l51.357-6.669Z"/><path d="M31,257.536A224.667,224.667,0,0,1,385.427,74.143l-31.746,43.086a7,7,0,0,0,6.537,11.093l74.868-9.722a7,7,0,0,0,6-8.137l-12.9-74.387a7,7,0,0,0-12.533-2.957L393.733,62.87A238.661,238.661,0,0,0,17,257.536a237.048,237.048,0,0,0,18.366,91.942,7,7,0,0,0,12.916-5.4A223.12,223.12,0,0,1,31,257.536ZM400.756,76.94c.021-.027.045-.051.065-.079.034-.045.062-.093.095-.139L417.194,54.63l8.846,51.027-51.357,6.669Z"/><path d="M339.513,132.526a62.61,62.61,0,0,0-44.191,17.99q-2.16,2.124-4.1,4.423l-59.636-34.43a7,7,0,0,0-7,0L112.5,185.223a7,7,0,0,0-3.5,6.062v129.43a7,7,0,0,0,3.5,6.062l112.089,64.714a7,7,0,0,0,7,0l112-64.714A6.92,6.92,0,0,0,347,320.715V279.072l37.57-39.124a65.826,65.826,0,0,0,14.461-22.464,60.508,60.508,0,0,0,3.812-25.37,64.448,64.448,0,0,0-19.15-41.6A62.584,62.584,0,0,0,339.513,132.526Zm-111.424,2.128,40.937,23.635-98.081,56.627-40.937-23.635ZM221,373.3l-98-56.63V203.4l98,56.632Zm7.089-125.4L184.945,223l98.081-56.627.369.213a64.328,64.328,0,0,0-7.234,25.529,60.49,60.49,0,0,0,3.789,25.37c.049.131.108.26.158.391ZM333,316.674,235,373.3V260.033L286.545,230.3a71.252,71.252,0,0,0,7.711,9.649L333,280.459ZM385.956,212.6a51.811,51.811,0,0,1-11.407,17.663l-35.036,36.571-35.036-36.571A51.826,51.826,0,0,1,293.07,212.6a46.581,46.581,0,0,1-2.941-19.533,50.48,50.48,0,0,1,15.009-32.57,49.275,49.275,0,0,1,68.75,0,50.475,50.475,0,0,1,15.009,32.57A46.576,46.576,0,0,1,385.956,212.6Z"/><path d="M339.513,160.777a31.149,31.149,0,1,0,31,31.15A31.11,31.11,0,0,0,339.513,160.777Zm0,48.3a17.15,17.15,0,1,1,17-17.148A17.093,17.093,0,0,1,339.513,209.075Z"/></svg>
