<?xml version="1.0" encoding="iso-8859-1"?>
<!-- Generator: Adobe Illustrator 16.0.0, SVG Export Plug-In . SVG Version: 6.00 Build 0)  -->
<!DOCTYPE svg PUBLIC "-//W3C//DTD SVG 1.1//EN" "http://www.w3.org/Graphics/SVG/1.1/DTD/svg11.dtd">

<svg xmlns="http://www.w3.org/2000/svg" fill="#040b00" id="Layer_1" data-name="Layer 1" viewBox="0 0 512 512" width="512" height="512">
<title>Distribution Logistic</title><path d="M453.3,152H317.861a6.822,6.822,0,0,0-5.014,1.919l-32.861,33.633a6.87,6.87,0,0,0-1.973,4.77c0,.087-.013.122-.013.209v32.024a7,7,0,0,0,.739,3.131c.014.028.168.063.183.091A28.516,28.516,0,0,0,301,243.418v80.556A24.846,24.846,0,0,0,325.909,349H444.091A24.846,24.846,0,0,0,469,323.974v-80.55a28.521,28.521,0,0,0,22.081-15.653,7.154,7.154,0,0,0,.919-3.216V192.338c0-.042-.006-.083-.006-.126,0-.076-.008-.151-.012-.227a6.982,6.982,0,0,0-.074-.728c-.01-.063-.017-.126-.029-.189a6.87,6.87,0,0,0-.221-.886c-.009-.029-.022-.056-.031-.085a7.138,7.138,0,0,0-.316-.772c-.027-.056-.052-.111-.08-.165a6.752,6.752,0,0,0-.463-.784c-.022-.033-.048-.063-.071-.1a7.084,7.084,0,0,0-.518-.639c-.028-.031-.049-.066-.078-.1L458.4,154.01A6.822,6.822,0,0,0,453.3,152ZM373,335H351V302h22Zm82-11.026A10.831,10.831,0,0,1,444.091,335H387V295.078c0-3.867-2.679-7.078-6.545-7.078H344.091A7.144,7.144,0,0,0,337,295.078V335H325.909A10.831,10.831,0,0,1,315,323.974V242.091a27.2,27.2,0,0,0,10.137-6.153,29.622,29.622,0,0,0,39.889.135,29.16,29.16,0,0,0,39.971,0,29.444,29.444,0,0,0,39.865-.095A27.109,27.109,0,0,0,455,242.1Zm23-101.281a15.519,15.519,0,0,1-26.789-1.354,7,7,0,0,0-6.219-3.779h0a7.008,7.008,0,0,0-6.22,3.787,15.514,15.514,0,0,1-27.518.078,7,7,0,0,0-6.215-3.866,7.1,7.1,0,0,0-6.267,3.787,15.514,15.514,0,0,1-27.558,0c-.018-.034-.039.148-.058.114A6.8,6.8,0,0,0,364.994,218h-.059a6.756,6.756,0,0,0-6.159,3.562,15.539,15.539,0,0,1-27.56-.167,7,7,0,0,0-12.443-.026A15.525,15.525,0,0,1,292,222.705V199H478ZM301.592,185l19.222-19H450.272l18.543,19Z"/><polygon points="385.009 244 385.005 244 385.002 244 385.009 244"/><path d="M435,270H408a7,7,0,0,0-7,7v27a7,7,0,0,0,7,7h27a7,7,0,0,0,7-7V277A7,7,0,0,0,435,270Zm-7,27H415V284h13Z"/><path d="M325.817,113.669a7,7,0,0,0,2.506,7.3l24.556,18.911a7,7,0,0,0,9.994-1.515l17.85-25.337a7,7,0,0,0-6.772-10.952l-11.078,1.679a101.133,101.133,0,0,0-27.7-51.1,102.147,102.147,0,0,0-166.65,33.372,7,7,0,1,0,12.952,5.315,88.125,88.125,0,0,1,167.541,14.508L331.545,108.5A7,7,0,0,0,325.817,113.669Zm32.284,4.967.032,0c.024,0,.046-.009.069-.013l1.628-.246-4.2,5.956-5.772-4.446Z"/><path d="M220.274,419.715a7,7,0,0,0-4.656-6.152L186.39,403.251a7,7,0,0,0-9.024,4.555l-9.06,29.639a7,7,0,0,0,9.848,8.3l10-5.049a102.308,102.308,0,0,0,88.234,50.958,102.238,102.238,0,0,0,101.953-94.713,7,7,0,0,0-13.964-1.011,88.125,88.125,0,0,1-163.713,38.451l15.776-7.963A7,7,0,0,0,220.274,419.715Zm-32.221,5.346-.032.014c-.018.008-.033.019-.05.028l-1.481.747,2.13-6.967,6.87,2.424Z"/><path d="M28.008,247.353a6.355,6.355,0,0,0,3.849-1.3L48,234.381V350.242c0,3.866,3.554,6.758,7.42,6.758H220.58c3.866,0,7.42-2.892,7.42-6.758V234.35l16.137,11.695a6.875,6.875,0,0,0,9.661-1.62,7.011,7.011,0,0,0-1.672-9.766L142.247,156.065a7.023,7.023,0,0,0-8.152,0L23.941,234.654a7,7,0,0,0,4.067,12.7ZM178,343H98v-9h80Zm0-23H98V309h80Zm0-25H98V283h80Zm0-26H98V258h80ZM62,224.392l76.142-54.031L214,224.333V343H192V250.8a7.035,7.035,0,0,0-7.231-6.8H91.231A7.035,7.035,0,0,0,84,250.8V343H62Z"/></svg>
