<?xml version="1.0" encoding="iso-8859-1"?>
<!-- Generator: Adobe Illustrator 16.0.0, SVG Export Plug-In . SVG Version: 6.00 Build 0)  -->
<!DOCTYPE svg PUBLIC "-//W3C//DTD SVG 1.1//EN" "http://www.w3.org/Graphics/SVG/1.1/DTD/svg11.dtd">

<svg xmlns="http://www.w3.org/2000/svg" fill="#040b00" id="Layer_1" data-name="Layer 1" viewBox="0 0 512 512" width="512" height="512">
<title>Distribution</title><path d="M508.367,423.477l-93.75-74.832a7,7,0,0,0-8.734,0l-93.75,74.832a7,7,0,0,0-.815,10.176l18.707,20.6a6.753,6.753,0,0,0,9.359.757l.616-.654V477H125V389H264a7.146,7.146,0,0,0,7-7.169V347h55.851c3.866,0,7.149-2.766,7.149-6.632V296.441l.741.654a6.873,6.873,0,0,0,4.336,1.537,6.946,6.946,0,0,0,5.166-2.294l18.7-20.6a7,7,0,0,0-.822-10.176l-93.751-74.832a7,7,0,0,0-8.734,0l-93.75,74.832a7,7,0,0,0-.816,10.176l18.707,20.6a6.908,6.908,0,0,0,9.484.757l.741-.654v43.927c0,3.866,3.283,6.632,7.149,6.632H257v28H125V209h75.58c3.866,0,7.42-2.934,7.42-6.8V86.309L224.137,98a6.876,6.876,0,0,0,9.661-1.62,7.012,7.012,0,0,0-1.672-9.767L122.247,8.022a7.02,7.02,0,0,0-8.152,0L3.94,86.612a7,7,0,0,0,4.067,12.7,6.358,6.358,0,0,0,3.85-1.3L28,86.34V202.2c0,3.866,3.554,6.8,7.42,6.8H111V484.222A6.6,6.6,0,0,0,117.75,491H340v7.284c0,3.866,3.533,6.716,7.4,6.716H473.1a6.677,6.677,0,0,0,6.9-6.716V454.357l.866.654a7.047,7.047,0,0,0,9.6-.757l18.714-20.6a7,7,0,0,0-.809-10.176ZM189.716,282.055l-9.269-10.207L264,205.155l83.553,66.693-9.269,10.207-69.908-56a7,7,0,0,0-8.752,0ZM208,333V285.226l56-44.743,56,44.743V333ZM158,172H78V161h80Zm0-25H78V135h80Zm0-26H78V110h80ZM64,102.761V195H42V76.35l76.142-54.031L194,76.292V195H172V102.761A7,7,0,0,0,164.769,96H71.231A7,7,0,0,0,64,102.761ZM78,195v-9h80v9ZM466,491H354V443.142L410,398.4l56,44.743Zm18.534-51.029-69.908-56a7,7,0,0,0-8.752,0l-69.908,56L326.7,429.764l83.553-66.693L493.8,429.764Z"/></svg>
