<?xml version="1.0" encoding="iso-8859-1"?>
<!-- Generator: Adobe Illustrator 16.0.0, SVG Export Plug-In . SVG Version: 6.00 Build 0)  -->
<!DOCTYPE svg PUBLIC "-//W3C//DTD SVG 1.1//EN" "http://www.w3.org/Graphics/SVG/1.1/DTD/svg11.dtd">

<svg xmlns="http://www.w3.org/2000/svg" fill="#040b00" id="Layer_1" data-name="Layer 1" viewBox="0 0 512 512" width="512" height="512">
<title>E-commerce</title><path d="M266.865,250.634a7.01,7.01,0,0,0-11.267,1.492l-16.9,31.44a7,7,0,0,0,6.158,10.315,7.183,7.183,0,0,0,6.292-3.687L255,283.248V343.42a7,7,0,1,0,14,0V273.051l5.69,6.155a6.929,6.929,0,0,0,9.836.284,7,7,0,0,0,.254-9.9Z"/><path d="M41,338.45a7,7,0,0,0-7,7v25.92a7,7,0,0,0,14,0V345.45A7,7,0,0,0,41,338.45Z"/><path d="M69,357.65a7,7,0,0,0-7,7V388a7,7,0,0,0,14,0V364.65A7,7,0,0,0,69,357.65Z"/><path d="M98,376.85a7,7,0,0,0-7,7v20.56a7,7,0,0,0,14,0V383.85A7,7,0,0,0,98,376.85Z"/><path d="M126,396.05a7,7,0,0,0-7,7v17.77a7,7,0,0,0,14,0V403.05A7,7,0,0,0,126,396.05Z"/><path d="M148,437.61a7,7,0,0,0,14,0V422.25a7,7,0,0,0-14,0Z"/><path d="M276.16,353.467l-31.89,18.41a7,7,0,1,0,7,12.125l31.89-18.41a7,7,0,1,0-7-12.125Z"/><path d="M500,284H478.65A24.777,24.777,0,0,0,454.2,305.027c-.009.057-.017.387-.025.444L452.938,315H407V135.55a7.03,7.03,0,0,0-3.535-6.081L211.5,18.638a7,7,0,0,0-7,0L12.617,129.422A7,7,0,0,0,9,135.55v240.9a7,7,0,0,0,3.5,6.062l192,110.85a7,7,0,0,0,3.5.938,6.91,6.91,0,0,0,3.5-.853L376.965,398h64.876l-4.557,34.088A10.64,10.64,0,0,1,426.66,441h-.882a19.289,19.289,0,0,0-35.257,0H365.389a18.915,18.915,0,0,0-17.629-11.455,19.3,19.3,0,0,0,0,38.609A18.867,18.867,0,0,0,366.045,455h23.82a19.288,19.288,0,0,0,36.57,0h.225a24.651,24.651,0,0,0,24.463-20.877c.01-.058.018-.113.025-.171l16.888-126.8A10.84,10.84,0,0,1,478.65,298H500a7,7,0,0,0,0-14ZM347.76,454.16a5.305,5.305,0,1,1,5.31-5.31A5.311,5.311,0,0,1,347.76,454.16Zm60.39,0a5.305,5.305,0,1,1,5.31-5.31A5.316,5.316,0,0,1,408.15,454.16ZM319.126,96.942,141.141,199.7,106.21,179.53,284.191,76.772ZM134,211.624V339.933l-13.195-14.878a7.228,7.228,0,0,0-8.076-1.845L99,328.816V191.648ZM208,32.783l62.191,35.906L92.205,171.45,30.019,135.541Zm-7,442.392L23,372.409V147.654l62,35.917V339.28a7.136,7.136,0,0,0,9.822,6.47l18.653-7.691,22.057,25.046a7.015,7.015,0,0,0,5.263,2.375,7.559,7.559,0,0,0,2.574-.451A7.1,7.1,0,0,0,148,358.48V219.707l53,30.714ZM208,238.3l-52.859-30.518L333.126,105.025,385.98,135.54Zm7,236.878V250.421L393,147.653V315H300a6.73,6.73,0,0,0-6.614,8.993l19.849,57.313A24.81,24.81,0,0,0,336.63,398h12.336ZM443.708,384H336.63a10.7,10.7,0,0,1-10.166-7.171l-.312-.829H444.793Zm2.952-22H321.3l-2.079-6H447.459Zm2.666-20H314.371l-4.536-13H451.071Z"/></svg>
