<?xml version="1.0" encoding="iso-8859-1"?>
<!-- Generator: Adobe Illustrator 16.0.0, SVG Export Plug-In . SVG Version: 6.00 Build 0)  -->
<!DOCTYPE svg PUBLIC "-//W3C//DTD SVG 1.1//EN" "http://www.w3.org/Graphics/SVG/1.1/DTD/svg11.dtd">

<svg xmlns="http://www.w3.org/2000/svg" fill="#040b00" id="Layer_1" data-name="Layer 1" viewBox="0 0 512 512" width="512" height="512">
<title>Email Package Bill</title><path d="M452.946,226.608c-.008-.073-.014-.146-.025-.219a6.97,6.97,0,0,0-.165-.808c-.01-.041-.026-.081-.038-.122-.066-.228-.145-.453-.234-.675-.027-.068-.056-.135-.086-.2a6.883,6.883,0,0,0-.319-.637c-.02-.036-.038-.073-.059-.109a6.945,6.945,0,0,0-.481-.708c-.025-.033-.054-.063-.08-.095a6.947,6.947,0,0,0-.473-.532c-.056-.056-.113-.112-.171-.167q-.234-.222-.493-.424c-.056-.044-.109-.091-.167-.134-.024-.017-.249-.037-.273-.054L387,176.654V85.1A27.8,27.8,0,0,0,359.183,57H152.817A27.8,27.8,0,0,0,125,85.1v83.819L61.7,222.051l-.1,0A7.075,7.075,0,0,0,59,227.405V412.858a33.385,33.385,0,0,0,9.121,22.947,5.721,5.721,0,0,0,1.018.851A33.236,33.236,0,0,0,92.515,446h326.97A33.236,33.236,0,0,0,453,412.858V227.405c0-.045-.008-.088-.009-.133C452.987,227.05,452.972,226.828,452.946,226.608ZM387,193.9l45.972,33.055L387,255.246ZM139,85.1A13.791,13.791,0,0,1,152.817,71H359.183A13.791,13.791,0,0,1,373,85.1V263.862L266.042,329.814a18.883,18.883,0,0,1-20.17-.011L139,263.669ZM125,187.221V255.03L78.526,226.354ZM73,412.858V239.646l135.237,83.448L75.085,421.586A19.372,19.372,0,0,1,73,412.858ZM419.485,432H92.515a19.288,19.288,0,0,1-6.79-1.056L221.072,330.92l17.346,10.75a33.347,33.347,0,0,0,35.166.044l17.051-10.482,135.37,99.8A19.307,19.307,0,0,1,419.485,432ZM439,412.858a19.375,19.375,0,0,1-2.19,8.946L303.489,323.333,439,239.933Z"/><path d="M190.5,230a7,7,0,0,0,0,14h91a7,7,0,0,0,0-14Z"/><path d="M300.5,230a7,7,0,0,0,0,14h21a7,7,0,0,0,0-14Z"/><path d="M221.5,260h-31a7,7,0,0,0,0,14h31a7,7,0,0,0,0-14Z"/><path d="M328.5,267a7,7,0,0,0-7-7h-81a7,7,0,0,0,0,14h81A7,7,0,0,0,328.5,267Z"/><path d="M192,144v57.686A7.6,7.6,0,0,0,199.37,209H312.794A7.452,7.452,0,0,0,320,201.686V144h3.644A7.312,7.312,0,0,0,331,137v-34.85A7.442,7.442,0,0,0,323.644,95H188.356A7.442,7.442,0,0,0,181,102.151V137a7.312,7.312,0,0,0,7.356,7Zm114,51H206V144h28v31.4a7.029,7.029,0,0,0,10.664,5.987l11.266-6.826,11.633,6.868A6.909,6.909,0,0,0,278,175.4V144h28Zm-58-32.028V144h16v19.137l-4.617-2.763a6.979,6.979,0,0,0-7.176.042ZM195,109H317v21H195Z"/></svg>
