<?xml version="1.0" encoding="iso-8859-1"?>
<!-- Generator: Adobe Illustrator 16.0.0, SVG Export Plug-In . SVG Version: 6.00 Build 0)  -->
<!DOCTYPE svg PUBLIC "-//W3C//DTD SVG 1.1//EN" "http://www.w3.org/Graphics/SVG/1.1/DTD/svg11.dtd">

<svg xmlns="http://www.w3.org/2000/svg" fill="#040b00" id="Layer_1" data-name="Layer 1" viewBox="0 0 512 512" width="512" height="512">
<title>Fast Delivery</title><path d="M411.372,170H338V147.63A26.63,26.63,0,0,0,311.1,121H147.624A26.4,26.4,0,0,0,121,147.63V329.37A26.4,26.4,0,0,0,147.624,356h18.6a41.991,41.991,0,0,0,82.81,0h107.19a41.991,41.991,0,0,0,82.81,0h18.6C472.512,356,485,344.257,485,329.37V239.8c0-.057-.195-.113-.2-.17,0-.129-.2-.257-.207-.385-.008-.106-.019-.211-.032-.316-.015-.121-.034-.24-.055-.36s-.04-.217-.065-.324-.055-.226-.087-.338-.061-.216-.1-.322-.077-.218-.119-.326-.082-.208-.128-.31-.1-.209-.151-.313-.1-.2-.159-.3-.116-.2-.177-.291-.129-.2-.2-.294-.128-.175-.195-.261-.159-.2-.242-.292c-.038-.043-.071-.09-.111-.133l-51.517-56.229A27.16,27.16,0,0,0,411.372,170ZM207.624,377.37a28,28,0,1,1,28-28A28.032,28.032,0,0,1,207.624,377.37ZM324,239.8V342H249.029c-3.343-19-20.632-35-41.4-35s-38.062,16-41.4,35H147.624A12.386,12.386,0,0,1,135,329.37V147.63A12.386,12.386,0,0,1,147.624,135H311.1A12.616,12.616,0,0,1,324,147.63ZM397.624,377.37a28,28,0,1,1,28-28A28.032,28.032,0,0,1,397.624,377.37Zm73.376-48c0,7.168-6.208,12.63-13.376,12.63h-18.6c-3.343-19-20.632-35-41.4-35s-38.062,16-41.405,35H338V247H471ZM338,233V184h73.372a13.223,13.223,0,0,1,9.577,4.406L461.7,233Z"/><path d="M104.376,224h-50a7,7,0,1,0,0,14h50a7,7,0,0,0,0-14Z"/><path d="M34.376,288h70a7,7,0,0,0,0-14h-70a7,7,0,1,0,0,14Z"/><path d="M104.376,174h-30a7,7,0,0,0,0,14h30a7,7,0,0,0,0-14Z"/><path d="M283.357,180.845l-50.422-29.071a7.065,7.065,0,0,0-7.036,0l-50.376,29.071A7.02,7.02,0,0,0,172,186.907v58.142a7,7,0,0,0,3.5,6.062l50.355,29.071a7,7,0,0,0,7,0l50.494-29.071A7.136,7.136,0,0,0,287,245.049V186.907A7.137,7.137,0,0,0,283.357,180.845Zm-53.994-14.926,10.679,6.166-36.349,20.986-10.679-6.166ZM222,262l-36-20.988v-41.98l36,20.988Zm7.363-54.1-11.67-6.738,36.349-20.986,11.67,6.737ZM273,241.008,236,262v-41.98l37-20.988Z"/></svg>
