<?xml version="1.0" encoding="iso-8859-1"?>
<!-- Generator: Adobe Illustrator 16.0.0, SVG Export Plug-In . SVG Version: 6.00 Build 0)  -->
<!DOCTYPE svg PUBLIC "-//W3C//DTD SVG 1.1//EN" "http://www.w3.org/Graphics/SVG/1.1/DTD/svg11.dtd">

<svg xmlns="http://www.w3.org/2000/svg" fill="#040b00" id="Layer_1" data-name="Layer 1" viewBox="0 0 512 512" width="512" height="512">
<title>Fragile Box</title><path d="M72.667,447H439.333C452.383,447,463,436.868,463,423.818V193.23a6.6,6.6,0,0,0-1.1-3.641L389.228,75.7A23.336,23.336,0,0,0,369.271,65H142.729a23.336,23.336,0,0,0-19.957,10.7L50.1,189.589A6.6,6.6,0,0,0,49,193.23V423.818C49,436.868,59.617,447,72.667,447ZM285,433H227V266.086l58,37.722ZM263,79H369.271a9.305,9.305,0,0,1,8.151,4.113L443.236,186H263ZM134.578,83.113A9.305,9.305,0,0,1,142.729,79H249V186H68.764ZM63,200H449V423.818c0,5.33-4.336,9.182-9.667,9.182H299V300.019a7.057,7.057,0,0,0-3.23-5.862l-71.8-46.863A7.107,7.107,0,0,0,213,253.155V433H72.667C67.336,433,63,429.148,63,423.818Z"/><path d="M375,371.526V410H362.251a7,7,0,0,0,0,14h39.794a7,7,0,1,0,0-14H389V371.526a41.681,41.681,0,0,0,35-41.04V266.979A7.165,7.165,0,0,0,416.789,260H347.508c-3.866,0-6.508,3.113-6.508,6.979v63.507C341,351.06,356,368.187,375,371.526ZM355,274h12v28.178a7.033,7.033,0,0,0,9.391,6.592l7.539-2.691-3.15,18.8a7,7,0,1,0,13.809,2.317l5.127-30.559a7.008,7.008,0,0,0-9.282-7.75L381,292.244V274h29v56.486a27.5,27.5,0,1,1-55,0Z"/></svg>
