<?xml version="1.0" encoding="iso-8859-1"?>
<!-- Generator: Adobe Illustrator 16.0.0, SVG Export Plug-In . SVG Version: 6.00 Build 0)  -->
<!DOCTYPE svg PUBLIC "-//W3C//DTD SVG 1.1//EN" "http://www.w3.org/Graphics/SVG/1.1/DTD/svg11.dtd">

<svg xmlns="http://www.w3.org/2000/svg" fill="#040b00" id="Layer_1" data-name="Layer 1" viewBox="0 0 512 512" width="512" height="512">
<title>Fragile Items</title><path d="M58,422.877a7,7,0,0,0-7,7v12.131a7,7,0,0,0,14,0V429.877A7,7,0,0,0,58,422.877Z"/><path d="M492.9,182.7a6.951,6.951,0,0,0-.166-.766c-.009-.037-.017-.074-.028-.111a6.976,6.976,0,0,0-.316-.854c-.019-.043-.041-.085-.062-.128a6.868,6.868,0,0,0-.38-.7c-.017-.029-.03-.061-.049-.09L408.326,49.022A25.974,25.974,0,0,0,386.262,37H125.738a25.974,25.974,0,0,0-22.064,12.022L20.1,180.092c-.019.029-.032.042-.049.071a6.827,6.827,0,0,0-.381.692c-.02.042-.042.079-.061.121a6.961,6.961,0,0,0-.316.853c-.011.036-.019.072-.028.109a6.7,6.7,0,0,0-.166.767c-.012.071-.024.14-.033.212a7,7,0,0,0-.064.9V448.991A26.062,26.062,0,0,0,45.167,475H466.833A26.062,26.062,0,0,0,493,448.991V183.815a7,7,0,0,0-.064-.9C492.927,182.845,492.915,182.775,492.9,182.7ZM263,51H386.262a12.125,12.125,0,0,1,10.259,5.64L473.236,177H263Zm22,140v96.35l-58-28.906V191ZM115.479,56.64A12.125,12.125,0,0,1,125.738,51H249V177H38.764ZM479,448.991A12.047,12.047,0,0,1,466.833,461H45.167A12.047,12.047,0,0,1,33,448.991V191H213v71.744a7.231,7.231,0,0,0,4.076,6.244l71.158,36a7.244,7.244,0,0,0,3.224.756,7.985,7.985,0,0,0,3.936-1.035A7.266,7.266,0,0,0,299,298.744V191H479Z"/><path d="M285,332.1v45a37.12,37.12,0,0,0,30,36.326V435H304.5a7,7,0,0,0,0,14h34.463a7,7,0,0,0,0-14H329V413.428A37.12,37.12,0,0,0,359,377.1v-45a7.32,7.32,0,0,0-7.269-7.1h-60A6.862,6.862,0,0,0,285,332.1Zm14,6.9h46v38.1a23,23,0,0,1-46,0Z"/><path d="M381.731,379H415v53.4a2.5,2.5,0,1,1-5,0v-4.891a7,7,0,1,0-14,0V432.4a16.5,16.5,0,1,0,33,0V379h32.731a7.135,7.135,0,0,0,7-7.157,47,47,0,1,0-94,0A7.136,7.136,0,0,0,381.731,379Zm40-40a32.9,32.9,0,0,1,32.253,26h-64.5A32.9,32.9,0,0,1,421.731,339Z"/><path d="M96,422.877a7,7,0,0,0-7,7v12.131a7,7,0,1,0,14,0V429.877A7,7,0,0,0,96,422.877Z"/><path d="M134,422.877a7,7,0,0,0-7,7v12.131a7,7,0,1,0,14,0V429.877A7,7,0,0,0,134,422.877Z"/><path d="M172,422.877a7,7,0,0,0-7,7v12.131a7,7,0,1,0,14,0V429.877A7,7,0,0,0,172,422.877Z"/><path d="M210,422.877a7,7,0,0,0-7,7v12.131a7,7,0,1,0,14,0V429.877A7,7,0,0,0,210,422.877Z"/><path d="M248,422.877a7,7,0,0,0-7,7v12.131a7,7,0,1,0,14,0V429.877A7,7,0,0,0,248,422.877Z"/></svg>
