<?xml version="1.0" encoding="iso-8859-1"?>
<!-- Generator: Adobe Illustrator 16.0.0, SVG Export Plug-In . SVG Version: 6.00 Build 0)  -->
<!DOCTYPE svg PUBLIC "-//W3C//DTD SVG 1.1//EN" "http://www.w3.org/Graphics/SVG/1.1/DTD/svg11.dtd">

<svg xmlns="http://www.w3.org/2000/svg" fill="#040b00" id="Layer_1" data-name="Layer 1" viewBox="0 0 512 512" width="512" height="512">
<title>Global Logistic app</title><path d="M248.1,481.266a200.053,200.053,0,0,0,138.268-54.809c36.321-34.415,57.672-80.288,60.422-129.527A38.241,38.241,0,0,0,463,265.667V69.019A38.1,38.1,0,0,0,424.715,31H330.86A37.74,37.74,0,0,0,293,69.019v26.8a208.762,208.762,0,0,0-44.746-4.933c-109.752,0-199.148,87.563-199.148,195.192S138.343,481.266,248.1,481.266ZM376.707,416.3a185.341,185.341,0,0,1-92.52,47.518,182.02,182.02,0,0,0,50.243-56.5,206.677,206.677,0,0,0,11.076-22.376,181.614,181.614,0,0,1,34.93,27.712C379.21,413.88,377.972,415.1,376.707,416.3Zm13.245-13.934a195.557,195.557,0,0,0-39.326-30.641A251.936,251.936,0,0,0,364.073,304h60.642a38.347,38.347,0,0,0,7.542-.774A177.849,177.849,0,0,1,389.952,402.361ZM449,265.667A24.354,24.354,0,0,1,424.715,290H330.86A23.994,23.994,0,0,1,307,265.667V241H449ZM449,227H307V81H449ZM330.86,45h93.855c12.878,0,23.442,10,24.232,22H306.628C307.418,55,317.982,45,330.86,45ZM293,110.176v4.633c-3-2.229-5.449-4.375-8.268-6.431C287.5,108.916,290,109.513,293,110.176Zm-38-3.432c14,7.059,26,16.052,38,26.808v75.623a199.231,199.231,0,0,1-38,5.131Zm0,121.577a213.588,213.588,0,0,0,38-4.787v42.133A36.9,36.9,0,0,0,295,279H255ZM255,293h49.167a37.1,37.1,0,0,0,26.693,11h19.193a243.479,243.479,0,0,1-11.889,60.931A202.594,202.594,0,0,0,255,343.841Zm0,64.85a185.79,185.79,0,0,1,78.2,20.217,193.383,193.383,0,0,1-10.936,22.266C305.663,429.18,283,451.041,255,465.405ZM115.228,412.1A180.733,180.733,0,0,1,150.3,384.6c13.739,32.489,34.625,59.589,61.454,79.158A186.049,186.049,0,0,1,115.228,412.1ZM241,465.4c-35-18.162-62.253-48.757-78.371-87.617A188.648,188.648,0,0,1,241,357.847Zm0-121.559a205.355,205.355,0,0,0-83.289,20.738C150.35,342.761,146.184,319,145.54,293H241ZM241,279H145.54c.644-26,4.81-49.687,12.171-71.5A205.432,205.432,0,0,0,241,228.31Zm0-64.7a188.648,188.648,0,0,1-78.371-19.933C178.747,155.508,206,124.913,241,106.751ZM211.759,108.389c-26.83,19.569-47.716,46.669-61.455,79.158a180.733,180.733,0,0,1-35.076-27.5A186.048,186.048,0,0,1,211.759,108.389Zm-106,61.941A194.791,194.791,0,0,0,145.2,200.738C136.893,224.56,132.2,251,131.532,279H63.151A178.666,178.666,0,0,1,105.755,170.33ZM63.151,293h68.381c.668,28,5.361,54.5,13.667,78.317a194.8,194.8,0,0,0-39.443,30.409A178.818,178.818,0,0,1,63.151,293Z"/><path d="M363.318,273h28.939a7,7,0,1,0,0-14H363.318a7,7,0,0,0,0,14Z"/><path d="M324.4,185.983l49.946,28.868a6.926,6.926,0,0,0,6.961,0l50.1-28.868a7.094,7.094,0,0,0,3.6-6.062V122.187a7.1,7.1,0,0,0-3.605-6.062L381.341,87.257a7.048,7.048,0,0,0-7.027,0l-49.907,28.868A6.913,6.913,0,0,0,321,122.187v57.734A6.9,6.9,0,0,0,324.4,185.983ZM421,175.88l-36,20.785V155.092l36-20.785Zm-7.215-53.695-36,20.782L366.3,136.333l36-20.783Zm-36-20.783,10.506,6.066-36,20.782-10.506-6.065ZM335,134.307l36,20.785v41.573L335,175.88Z"/></svg>
