<?xml version="1.0" encoding="iso-8859-1"?>
<!-- Generator: Adobe Illustrator 16.0.0, SVG Export Plug-In . SVG Version: 6.00 Build 0)  -->
<!DOCTYPE svg PUBLIC "-//W3C//DTD SVG 1.1//EN" "http://www.w3.org/Graphics/SVG/1.1/DTD/svg11.dtd">

<svg xmlns="http://www.w3.org/2000/svg" fill="#040b00" id="Layer_1" data-name="Layer 1" viewBox="0 0 512 512" width="512" height="512">
<title>Global distribution</title><path d="M469.588,222.477A33.557,33.557,0,0,0,436.868,249H391.855a136.342,136.342,0,0,0-35.334-84.448l31.918-31.864a33.215,33.215,0,1,0-9.741-10l-32.124,32.13A136.4,136.4,0,0,0,262,120.329V75.276a33.056,33.056,0,0,0,27.418-32.864,33.411,33.411,0,1,0-66.822,0A33,33,0,0,0,248,74.847v45.585a135.637,135.637,0,0,0-83.485,35.207l-31.9-31.9a33.4,33.4,0,1,0-10.122,9.68l32.162,32.043A136.187,136.187,0,0,0,120.105,250H75.316c-2.741-15-16.447-27.529-32.9-27.529a33.4,33.4,0,1,0,0,66.8A32.955,32.955,0,0,0,74.8,264h45.414a135.748,135.748,0,0,0,35.058,83.432L123.561,379.2a33.673,33.673,0,1,0,9.741,10.115L165.2,357.418A135.494,135.494,0,0,0,249,392.077v44.842a33.412,33.412,0,1,0,14,0V392.077a135.514,135.514,0,0,0,84.4-35.183l31.736,31.736a33.432,33.432,0,1,0,9.989-9.81l-31.863-31.974A135.993,135.993,0,0,0,391.855,263h45.116a33.4,33.4,0,1,0,32.617-40.523ZM393.3,91.244a19.409,19.409,0,1,1-5.687,13.727A19.346,19.346,0,0,1,393.3,91.244ZM118.7,118.7a19.409,19.409,0,1,1,5.687-13.726A19.285,19.285,0,0,1,118.7,118.7ZM42.412,275.412A19.412,19.412,0,1,1,61.824,256,19.434,19.434,0,0,1,42.412,275.412ZM118.7,420.756a19.429,19.429,0,1,1-.739-28.124,6.855,6.855,0,0,0,1.96,2.016,19.4,19.4,0,0,1-1.221,26.108ZM393.3,393.3a19.409,19.409,0,1,1-5.687,13.726A19.285,19.285,0,0,1,393.3,393.3ZM236.588,42.412A19.412,19.412,0,1,1,256,61.824,19.434,19.434,0,0,1,236.588,42.412Zm38.824,427.176a19.412,19.412,0,1,1-20.827-19.341,7.024,7.024,0,0,0,2.83,0A19.424,19.424,0,0,1,275.412,469.588ZM256,378.255A122.033,122.033,0,1,1,378.033,256.223,122.171,122.171,0,0,1,256,378.255ZM469.588,275.412A19.412,19.412,0,1,1,489,256,19.434,19.434,0,0,1,469.588,275.412Z"/><path d="M328.347,191.461a96.8,96.8,0,0,0-69.307-32.409,6.948,6.948,0,0,0-1.231-.029c-.6-.011-1.205-.023-1.809-.023s-1.217.012-1.823.023a6.981,6.981,0,0,0-1.191.028,96.793,96.793,0,0,0-69.322,32.4h0a7,7,0,0,0-1.164,1.322,96.812,96.812,0,0,0,0,126.456,7,7,0,0,0,1.164,1.322h0a96.8,96.8,0,0,0,69.2,32.393,6.9,6.9,0,0,0,.859.058c.125,0,.249-.019.373-.026.633.012,1.267.024,1.9.024s1.271-.012,1.9-.024c.124.007.248.026.373.026a6.883,6.883,0,0,0,.858-.058,96.794,96.794,0,0,0,69.212-32.405,7.014,7.014,0,0,0,1.156-1.314,96.81,96.81,0,0,0,0-126.45A7.014,7.014,0,0,0,328.347,191.461ZM224.509,179.223a95.9,95.9,0,0,0-16.686,25.8,82.771,82.771,0,0,1-9.88-8.266A83.222,83.222,0,0,1,224.509,179.223Zm-35.718,28.159a96.84,96.84,0,0,0,14.055,11.2A128.992,128.992,0,0,0,197.814,249h-24.5A82.516,82.516,0,0,1,188.791,207.382ZM173.316,263h24.5a128.967,128.967,0,0,0,5.031,30.422,96.832,96.832,0,0,0-14.054,11.2A82.513,82.513,0,0,1,173.316,263Zm24.627,52.24a82.752,82.752,0,0,1,9.879-8.265,95.931,95.931,0,0,0,16.682,25.8A83.228,83.228,0,0,1,197.943,315.24ZM249,335.35c-12.74-8.226-22.622-20.481-29.018-35.562a82.9,82.9,0,0,1,29.018-7.9Zm0-57.5a96.8,96.8,0,0,0-33.565,8.6A115.967,115.967,0,0,1,211.824,263H249ZM249,249H211.824a115.948,115.948,0,0,1,3.611-23.453A96.681,96.681,0,0,0,249,234.15Zm0-28.889a82.8,82.8,0,0,1-29.017-7.9c6.395-15.08,16.277-27.334,29.017-35.559Zm65.079-23.329a81.818,81.818,0,0,1-9.87,8.317,95.954,95.954,0,0,0-16.718-25.876A83.214,83.214,0,0,1,314.079,196.782ZM263,176.654c12.766,8.241,22.661,20.526,29.055,35.648A81.876,81.876,0,0,1,263,220.142Zm0,57.521a95.786,95.786,0,0,0,33.59-8.53A116.059,116.059,0,0,1,300.176,249H263ZM263,263h37.176a116.091,116.091,0,0,1-3.584,23.351A95.679,95.679,0,0,0,263,277.821Zm0,72.35v-43.5a81.812,81.812,0,0,1,29.057,7.843C285.663,314.82,275.767,327.107,263,335.35Zm24.5-2.575A95.974,95.974,0,0,0,304.211,306.9a81.969,81.969,0,0,1,9.868,8.317A83.225,83.225,0,0,1,287.5,332.775Zm35.733-28.186a95.91,95.91,0,0,0-14.048-11.255,129.012,129.012,0,0,0,5-30.334h24.5A82.505,82.505,0,0,1,323.229,304.589ZM314.186,249a129.011,129.011,0,0,0-5.006-30.335,95.858,95.858,0,0,0,14.049-11.254A82.5,82.5,0,0,1,338.684,249Z"/></svg>
