<?xml version="1.0" encoding="iso-8859-1"?>
<!-- Generator: Adobe Illustrator 16.0.0, SVG Export Plug-In . SVG Version: 6.00 Build 0)  -->
<!DOCTYPE svg PUBLIC "-//W3C//DTD SVG 1.1//EN" "http://www.w3.org/Graphics/SVG/1.1/DTD/svg11.dtd">

<svg xmlns="http://www.w3.org/2000/svg" fill="#040b00" id="Layer_1" data-name="Layer 1" viewBox="0 0 512 512" width="512" height="512">
<title>Global location 2</title><path d="M412.836,29.938a7.009,7.009,0,0,0-9.906,0L336.675,96.192A143.146,143.146,0,0,0,219.984,65.617,5.278,5.278,0,0,0,218,65.3V66a137.447,137.447,0,0,0-36.107,12.124c-1.239-1.473-2.579-2.895-3.962-4.256a59.77,59.77,0,0,0-83.472,0,60.86,60.86,0,0,0-18.091,39.27,57.141,57.141,0,0,0,3.575,23.96,62.033,62.033,0,0,0,13.606,21.2l12.578,13.13A143.613,143.613,0,0,0,134.561,298.38L80.917,352.456a7,7,0,1,0,9.939,9.859l26.606-26.82a188.365,188.365,0,0,0,129.081,50.8c2.771,0,5.457-.07,8.457-.188V470H194.915a7,7,0,1,0,0,14H328.4a7,7,0,0,0,0-14H269V384.987A189.256,189.256,0,0,0,384.867,67.839l27.98-28A7,7,0,0,0,412.836,29.938Zm-167.5,47.4a129.52,129.52,0,0,1,103.022,51.029,167.615,167.615,0,0,0-36.875-4.083c-4.238,0-8.509.17-12.756.489A22.186,22.186,0,0,0,274.346,114.2a169.23,169.23,0,0,0-35.864-36.662C240.762,77.412,243.045,77.338,245.333,77.338ZM158.475,282.2a22.28,22.28,0,0,0,8-40.472,152.869,152.869,0,0,1,93.7-94.636,22.166,22.166,0,0,0,19.247,11.038,22.392,22.392,0,0,0,2.5-.142,152.418,152.418,0,0,1,9.587,53.448,154.088,154.088,0,0,1-2.328,26.658,22.24,22.24,0,0,0-12.548,39.281,153.494,153.494,0,0,1-48.433,58.152,129.252,129.252,0,0,1-69.574-32.215c-.29-3.885-.445-7.8-.445-11.67C158.175,288.505,158.283,285.348,158.475,282.2ZM153,268.519a8.266,8.266,0,0,1,1.227-16.441,8.135,8.135,0,0,1,2,.247A8.266,8.266,0,0,1,153,268.519Zm118.15-132.655a8.289,8.289,0,0,1,4.112-7.14,8.26,8.26,0,0,1,12.183,5.149,8.391,8.391,0,0,1,.24,1.991,8.268,8.268,0,1,1-16.535,0Zm21.886,116.447a8.275,8.275,0,1,1-2.168-.287A8.267,8.267,0,0,1,293.038,252.311Zm-3.344,30.2c.392.02.783.052,1.176.052A22.258,22.258,0,0,0,302.79,241.5a168,168,0,0,0,2.713-30.061,166.294,166.294,0,0,0-10.841-59.328,22.037,22.037,0,0,0,6.848-13.491c3.324-.213,6.658-.334,9.97-.334a152.907,152.907,0,0,1,48.264,7.761A128.845,128.845,0,0,1,375,207c0,70.206-56.087,127.552-125.806,129.6A167.215,167.215,0,0,0,289.694,282.507Zm-186.037-133.9a48.11,48.11,0,0,1-10.595-16.4,43.247,43.247,0,0,1-2.731-18.123,46.873,46.873,0,0,1,13.937-30.241,45.739,45.739,0,0,1,63.814,0,46.874,46.874,0,0,1,13.938,30.241,43.238,43.238,0,0,1-2.731,18.122,48.147,48.147,0,0,1-10.6,16.4l-32.518,33.944ZM115.672,207a130.643,130.643,0,0,1,2.119-23.4l13.329,13.914a7,7,0,0,0,10.109,0L178.8,158.3a62.011,62.011,0,0,0,13.6-21.2,57.107,57.107,0,0,0,3.578-23.96,60.7,60.7,0,0,0-6.381-23.225,129.452,129.452,0,0,1,28.076-9.586,154.983,154.983,0,0,1,44.7,41.232,22.358,22.358,0,0,0-5.069,11.691A166.874,166.874,0,0,0,152.908,238.121a22.25,22.25,0,0,0-8.346,42.26q-.255,3.839-.342,7.687A129.034,129.034,0,0,1,115.672,207Zm306.092-10.1A175.273,175.273,0,0,1,127.326,325.551L144,308.739a143.281,143.281,0,0,0,87.672,41.27l.095.14.115-.078.055-.038c4.412.409,8.876.629,13.392.629C324.549,350.662,389,286.216,389,207a143.205,143.205,0,0,0-41.962-101.369l27.886-27.886A174.036,174.036,0,0,1,421.764,196.9Z"/><path d="M166.076,112.986a29.9,29.9,0,1,0-29.9,30.045A30.007,30.007,0,0,0,166.076,112.986Zm-45.8,0a15.9,15.9,0,1,1,15.9,16.045A15.991,15.991,0,0,1,120.274,112.986Z"/></svg>
