<?xml version="1.0" encoding="iso-8859-1"?>
<!-- Generator: Adobe Illustrator 16.0.0, SVG Export Plug-In . SVG Version: 6.00 Build 0)  -->
<!DOCTYPE svg PUBLIC "-//W3C//DTD SVG 1.1//EN" "http://www.w3.org/Graphics/SVG/1.1/DTD/svg11.dtd">

<svg xmlns="http://www.w3.org/2000/svg" fill="#040b00" id="Layer_1" data-name="Layer 1" viewBox="0 0 512 512" width="512" height="512">
<title>Home Delivery</title><path d="M35.183,280.448,19.023,476.525A6.918,6.918,0,0,0,26,484H486a6.946,6.946,0,0,0,5.149-2.2,6.875,6.875,0,0,0,1.828-5.261l-16.16-196.089A7.019,7.019,0,0,0,469.841,274H368.916c46.492-59,43.215-146.8-9.837-201.974C331.7,43.548,295.184,27.876,256.27,27.876S180.843,43.542,153.46,72.021C100.405,127.2,97.13,215,143.622,274H42.159A7.019,7.019,0,0,0,35.183,280.448Zm89.924-101.743c0-36.738,13.654-71.169,38.445-96.952C188.271,56.045,221.2,41.888,256.27,41.888s68,14.157,92.717,39.865c24.791,25.782,38.444,60.214,38.444,96.952s-13.653,71.169-38.44,96.947l-92.977,96.553-92.462-96.549C138.761,249.873,125.107,215.442,125.107,178.705ZM156.033,288l94.911,98.974A6.871,6.871,0,0,0,255.99,389H256a6.878,6.878,0,0,0,5.042-2.012L356.491,288h106.9l15,182H33.6L48.606,288Z"/><path d="M256.27,278.6a100,100,0,1,0-100-100A100.109,100.109,0,0,0,256.27,278.6Zm0-185.991a86,86,0,1,1-86,86A86.093,86.093,0,0,1,256.27,92.6Z"/><path d="M198,230.838A7.41,7.41,0,0,0,205.31,238H307.229A6.949,6.949,0,0,0,314,230.838v-49.38a7.806,7.806,0,0,0,3,.647,7.1,7.1,0,0,0,5.525-2.623,7,7,0,0,0-1.057-9.839L260.632,120.9a6.993,6.993,0,0,0-8.746,0l-60.842,48.745a7.021,7.021,0,0,0-1.238,9.839A6.733,6.733,0,0,0,198,181.476Zm14-60.29,44-35.217,44,35.216V224H212Z"/></svg>
