<?xml version="1.0" encoding="iso-8859-1"?>
<!-- Generator: Adobe Illustrator 16.0.0, SVG Export Plug-In . SVG Version: 6.00 Build 0)  -->
<!DOCTYPE svg PUBLIC "-//W3C//DTD SVG 1.1//EN" "http://www.w3.org/Graphics/SVG/1.1/DTD/svg11.dtd">

<svg xmlns="http://www.w3.org/2000/svg" fill="#040b00" id="Layer_1" data-name="Layer 1" viewBox="0 0 512 512" width="512" height="512">
<title>International package</title><path d="M241.547,293.045a6.961,6.961,0,0,0,3.307.836,7.185,7.185,0,0,0,6.292-3.687L255,283.247V343.42a7,7,0,1,0,14,0V273.051l5.69,6.154a6.927,6.927,0,0,0,9.835.285,7,7,0,0,0,.255-9.9l-17.915-18.959a7.01,7.01,0,0,0-11.267,1.49l-16.9,31.44A7,7,0,0,0,241.547,293.045Z"/><path d="M41,338.45a7,7,0,0,0-7,7v25.92a7,7,0,0,0,14,0V345.45A7,7,0,0,0,41,338.45Z"/><path d="M69,357.65a7,7,0,0,0-7,7V388a7,7,0,0,0,14,0V364.65A7,7,0,0,0,69,357.65Z"/><path d="M98,376.85a7,7,0,0,0-7,7v20.56a7,7,0,0,0,14,0V383.85A7,7,0,0,0,98,376.85Z"/><path d="M126,396.05a7,7,0,0,0-7,7v17.77a7,7,0,0,0,14,0V403.05A7,7,0,0,0,126,396.05Z"/><path d="M148,437.61a7,7,0,0,0,14,0V422.25a7,7,0,0,0-14,0Z"/><path d="M276.16,353.467l-31.89,18.41a7,7,0,1,0,7,12.125l31.89-18.41a7,7,0,0,0-7-12.125Z"/><path d="M477.525,308.423l-.027-.032c-.034-.04-.07-.078-.105-.117-.05-.055-.095-.113-.148-.167l-.013-.012A103.232,103.232,0,0,0,407,273.464V135.55a7.031,7.031,0,0,0-3.539-6.083L211.5,18.638a7,7,0,0,0-7,0L12.628,129.415A7,7,0,0,0,9,135.55v240.9a7,7,0,0,0,3.5,6.062l192,110.85a7,7,0,0,0,7,0l103.141-59.541a102.559,102.559,0,0,0,7.587,9.91c.08.1.166.2.252.3l.025.028c.03.035.061.068.092.1.053.059.1.121.158.178l.015.014a103.287,103.287,0,0,0,73.939,34.806,6.9,6.9,0,0,0,.847.055c.115,0,.229-.018.344-.023.7.013,1.4.025,2.1.025.741,0,1.479-.012,2.224-.027.074,0,.148.015.222.015.23,0,.46-.016.69-.039a103.282,103.282,0,0,0,74.1-34.813l.013-.013c.053-.053.1-.111.148-.166.033-.038.067-.074.1-.112l.027-.032c.083-.1.166-.191.243-.29a102.936,102.936,0,0,0,0-135.036C477.688,308.61,477.606,308.517,477.525,308.423ZM319.126,96.942,141.141,199.7,106.21,179.53,284.191,76.772ZM134,211.624V339.933l-13.2-14.878a7.232,7.232,0,0,0-8.075-1.845L99,328.816V191.648ZM208,32.783l62.191,35.906L92.205,171.45,30.02,135.541Zm-7,442.393L23,372.409V147.654l62,35.917V339.28a7.135,7.135,0,0,0,9.821,6.47l18.654-7.691,22.058,25.046a7.013,7.013,0,0,0,5.262,2.375,7.559,7.559,0,0,0,2.574-.451A7.1,7.1,0,0,0,148,358.48V219.707l53,30.714ZM208,238.3l-52.859-30.518L333.126,105.025,385.98,135.54ZM323.008,420.766A86.071,86.071,0,0,1,311.286,383h27.088a134.106,134.106,0,0,0,5.506,33.238,103.084,103.084,0,0,0-15.656,12.581A89.893,89.893,0,0,1,323.008,420.766Zm20.878-84.825A140.767,140.767,0,0,0,338.375,369H311.292a90.1,90.1,0,0,1,16.923-45.486A101.678,101.678,0,0,0,343.886,335.941ZM337.386,313a89.246,89.246,0,0,1,30.708-19.836,101.05,101.05,0,0,0-19.234,29.428A88.145,88.145,0,0,1,337.386,313Zm0,126.458a88.507,88.507,0,0,1,11.465-9.584,101.115,101.115,0,0,0,19.215,29.4A89.356,89.356,0,0,1,337.389,439.453ZM393,461.7c-14.028-8.809-24.931-22.1-31.986-39.008A88.97,88.97,0,0,1,393,414.01Zm0-61.738a102.844,102.844,0,0,0-36.529,9.29A125.752,125.752,0,0,1,352.406,383H393ZM393,369H352.406a123.474,123.474,0,0,1,4.07-26.025A103.088,103.088,0,0,0,393,352.486Zm0-30.552a88.769,88.769,0,0,1-31.977-8.692c7.051-16.9,17.951-30.2,31.977-39.008Zm0-64.984A103.223,103.223,0,0,0,322.767,308.1l-.012.011c-.047.048-.087.1-.132.149s-.077.084-.115.127l-.029.036c-.083.1-.165.189-.241.287a102.989,102.989,0,0,0-14.651,113.021L215,475.176V250.421L393,147.653Zm69.637,39.554a87.187,87.187,0,0,1-11.457,9.647,101.078,101.078,0,0,0-19.261-29.5A89.277,89.277,0,0,1,462.637,313.018ZM407,290.746c14.058,8.826,24.974,22.154,32.024,39.107A88.031,88.031,0,0,1,407,338.471Zm0,61.767a102.1,102.1,0,0,0,36.554-9.432A123.225,123.225,0,0,1,447.593,369H407ZM407,383h40.594a125.344,125.344,0,0,1-4.039,26.152A101.2,101.2,0,0,0,407,399.921Zm0,78.7v-47.73a87.862,87.862,0,0,1,32.023,8.63C431.97,439.555,421.054,452.882,407,461.7Zm24.935-2.437a101.1,101.1,0,0,0,19.245-29.479,86.929,86.929,0,0,1,11.455,9.642A89.361,89.361,0,0,1,431.935,459.267Zm39.871-30.638a100.474,100.474,0,0,0-15.66-12.483A133.907,133.907,0,0,0,461.625,383h27.083A87.372,87.372,0,0,1,471.806,428.629ZM461.625,369a140.675,140.675,0,0,0-5.48-32.965,100.664,100.664,0,0,0,15.662-12.492A90.057,90.057,0,0,1,488.708,369Z"/></svg>
