<?xml version="1.0" encoding="iso-8859-1"?>
<!-- Generator: Adobe Illustrator 16.0.0, SVG Export Plug-In . SVG Version: 6.00 Build 0)  -->
<!DOCTYPE svg PUBLIC "-//W3C//DTD SVG 1.1//EN" "http://www.w3.org/Graphics/SVG/1.1/DTD/svg11.dtd">

<svg xmlns="http://www.w3.org/2000/svg" fill="#040b00" id="Layer_1" data-name="Layer 1" viewBox="0 0 512 512" width="512" height="512">
<title>International delivery</title><path d="M398.83,220.327a64.28,64.28,0,0,0,4.027-26.955,68.522,68.522,0,0,0-20.367-44.216,67.246,67.246,0,0,0-93.928,0c-.2.2-.4.413-.6.617a134.394,134.394,0,0,0-46.276-8.145C168.523,141.628,109,200.021,109,271.8s59.523,130.166,132.686,130.166c.9,0,1.791-.016,2.683-.033.166.012.329.035.5.035a6.9,6.9,0,0,0,.927-.07c71.271-2.137,128.581-59.672,128.581-130.1,0-3.31-.156-11.411-.521-17.516l9.649-10.072A69.841,69.841,0,0,0,398.83,220.327ZM208,160.4a126.075,126.075,0,0,0-31.372,43.386A115.772,115.772,0,0,1,158.2,189.307,119.326,119.326,0,0,1,208,160.4ZM148.742,199.74a130.3,130.3,0,0,0,22.726,17.48A170.536,170.536,0,0,0,163.1,265H123.222A113.213,113.213,0,0,1,148.742,199.74ZM123.222,279H163.1a169.431,169.431,0,0,0,8.371,47.625,130.313,130.313,0,0,0-22.726,17.481A115.487,115.487,0,0,1,123.222,279ZM158.2,354.282A115.887,115.887,0,0,1,176.625,339.8,126.069,126.069,0,0,0,208,383.187,119.321,119.321,0,0,1,158.2,354.282ZM235,385.1c-21-11.444-35.891-29.511-45.744-52.13A122.29,122.29,0,0,1,235,321.3Zm0-77.83a135.82,135.82,0,0,0-50.821,12.648A160.346,160.346,0,0,1,177.109,279H235ZM235,265H177.109a154.592,154.592,0,0,1,7.07-41.127A135.62,135.62,0,0,0,235,236.316Zm0-42.707a122.328,122.328,0,0,1-45.744-11.677C199.11,188,214,169.929,235,158.486Zm43.683-60.9c-.275.433-.532.876-.8,1.314-.843-.791-1.692-1.573-2.555-2.337Q277.015,160.851,278.683,161.388ZM249,158.474a111.249,111.249,0,0,1,22.793,17.709,68.333,68.333,0,0,0-3.44,17.189,64.016,64.016,0,0,0,3.484,25.379A129.957,129.957,0,0,1,249,222.275Zm0,77.822a132.427,132.427,0,0,0,28.944-4.668,74.9,74.9,0,0,0,9.685,12.631l18.586,19.533c.017.367.032.208.046,1.208H249Zm0,42.7h57.263a160.621,160.621,0,0,1-6.819,41.115A137.192,137.192,0,0,0,249,307.277Zm0,106.1V321.3a120.369,120.369,0,0,1,45.656,11.871C284.8,355.7,269,373.694,249,385.1Zm26.375-1.917a126.019,126.019,0,0,0,31.248-43.109,116.371,116.371,0,0,1,18.227,14.51A119.348,119.348,0,0,1,275.375,383.187Zm58.974-38.893a130.552,130.552,0,0,0-22.537-17.5,169.953,169.953,0,0,0,8.481-48.415l10.179,10.625a7,7,0,0,0,10.109,0l19.759-20.625c.021,1.325.033,2.5.033,3.412A114.084,114.084,0,0,1,334.349,344.294Zm39.043-109.772-37.866,39.524L297.66,234.522a55.969,55.969,0,0,1-12.318-19.08,50.38,50.38,0,0,1-3.179-21.117,54.533,54.533,0,0,1,16.216-35.188,53.248,53.248,0,0,1,74.295,0,54.536,54.536,0,0,1,16.215,35.188,50.357,50.357,0,0,1-3.179,21.116A55.964,55.964,0,0,1,373.392,234.522Z"/><path d="M335.526,160.284a32.854,32.854,0,1,0,32.692,32.853A32.81,32.81,0,0,0,335.526,160.284Zm0,51.707a18.854,18.854,0,1,1,18.692-18.854A18.795,18.795,0,0,1,335.526,211.991Z"/><path d="M481,254.463A224.667,224.667,0,0,1,126.573,437.857l31.746-43.086a7,7,0,0,0-6.537-11.094L76.914,393.4a7,7,0,0,0-6,8.138l12.9,74.387a7,7,0,0,0,12.532,2.956l21.922-29.751A238.661,238.661,0,0,0,495,254.463a237.066,237.066,0,0,0-18.366-91.942,7,7,0,0,0-12.916,5.4A223.126,223.126,0,0,1,481,254.463Zm-369.756,180.6c-.021.026-.045.05-.065.077-.034.045-.061.093-.094.138L94.806,457.37,85.96,406.343l51.357-6.67Z"/><path d="M41.827,353.78a7.005,7.005,0,0,0,6.455-9.7A224.694,224.694,0,0,1,385.427,74.143l-31.746,43.086a7,7,0,0,0,6.537,11.094l74.868-9.723a7,7,0,0,0,6-8.138l-12.9-74.387a7,7,0,0,0-12.532-2.956L393.732,62.87A238.661,238.661,0,0,0,17,257.537a237.066,237.066,0,0,0,18.366,91.942A7,7,0,0,0,41.827,353.78ZM400.756,76.94c.021-.027.045-.051.065-.078.034-.045.061-.093.094-.138L417.194,54.63l8.846,51.027-51.357,6.67Z"/></svg>
