<?xml version="1.0" encoding="iso-8859-1"?>
<!-- Generator: Adobe Illustrator 16.0.0, SVG Export Plug-In . SVG Version: 6.00 Build 0)  -->
<!DOCTYPE svg PUBLIC "-//W3C//DTD SVG 1.1//EN" "http://www.w3.org/Graphics/SVG/1.1/DTD/svg11.dtd">

<svg xmlns="http://www.w3.org/2000/svg" fill="#040b00" id="Layer_1" data-name="Layer 1" viewBox="0 0 512 512" width="512" height="512">
<title>Logistics call center 2</title><path d="M241.546,293.045a6.968,6.968,0,0,0,3.308.836,7.185,7.185,0,0,0,6.292-3.687L255,283.247V343.42a7,7,0,1,0,14,0V273.051l5.69,6.155a6.968,6.968,0,1,0,10.09-9.612l-17.915-18.96a7.011,7.011,0,0,0-11.267,1.491l-16.9,31.44A7,7,0,0,0,241.546,293.045Z"/><path d="M41,338.45a7,7,0,0,0-7,7v25.92a7,7,0,0,0,14,0V345.45A7,7,0,0,0,41,338.45Z"/><path d="M69,357.65a7,7,0,0,0-7,7V388a7,7,0,0,0,14,0V364.65A7,7,0,0,0,69,357.65Z"/><path d="M98,376.85a7,7,0,0,0-7,7v20.56a7,7,0,0,0,14,0V383.85A7,7,0,0,0,98,376.85Z"/><path d="M126,396.05a7,7,0,0,0-7,7v17.77a7,7,0,0,0,14,0V403.05A7,7,0,0,0,126,396.05Z"/><path d="M148,437.61a7,7,0,0,0,14,0V422.25a7,7,0,0,0-14,0Z"/><path d="M276.16,353.467l-31.89,18.41a7,7,0,1,0,7,12.125l31.89-18.41a7,7,0,1,0-7-12.125Z"/><path d="M478.852,362h-.208l-1.443-.066-.071-10.271A77.533,77.533,0,0,0,407,274.987V135.55a7.03,7.03,0,0,0-3.54-6.083L211.5,18.638a7,7,0,0,0-7,0L12.628,129.415A7,7,0,0,0,9,135.55v240.9a7,7,0,0,0,3.5,6.062l192,110.85a7,7,0,0,0,7,0l104.362-60.107a24.067,24.067,0,0,0,5.27.745h.222l19.74-.32a7.121,7.121,0,0,0,6.935-7.169l-.52-56.493a7.07,7.07,0,0,0-7-7.018h-.063l-4.266.1-.072-10.4C335.876,317.782,364.1,289,398.97,289h.977a63.454,63.454,0,0,1,63.183,62.9l.071,10.177-4.3,0a6.979,6.979,0,0,0-6.931,7.04l.52,56.4a6.492,6.492,0,0,0,2.1,4.706,6.8,6.8,0,0,0,4.9,1.778h.068l4.278.179.044,4.889a13.439,13.439,0,0,1-13.252,13.605l-10.074.074a19.575,19.575,0,0,0-18.419-12.4l-24.76.232A19.608,19.608,0,0,0,378,458.18v.191A19.627,19.627,0,0,0,397.5,478h.171l24.824-.33a19.7,19.7,0,0,0,18.2-12.864l10.044-.084a27.409,27.409,0,0,0,27.147-27.671l-.044-4.785,1.462-.015A23.924,23.924,0,0,0,503,408.105l-.21-22.482A23.9,23.9,0,0,0,478.852,362ZM319.126,96.942,141.141,199.7,106.21,179.53,284.191,76.772ZM134,211.624V339.933l-13.195-14.878a7.229,7.229,0,0,0-8.076-1.845L99,328.816V191.648ZM208,32.783l62.191,35.906L92.206,171.449,30.02,135.541Zm-7,442.393L23,372.409V147.654l62,35.917V339.28a7.135,7.135,0,0,0,9.821,6.47l18.654-7.691,22.058,25.046a7.01,7.01,0,0,0,5.262,2.375,7.563,7.563,0,0,0,2.574-.451A7.1,7.1,0,0,0,148,358.48V219.707l53,30.714ZM208,238.3l-52.859-30.518L333.126,105.025,385.98,135.54ZM321.228,419.721a9.9,9.9,0,0,1-10.019-9.826L311,387.323a9.844,9.844,0,0,1,2.84-7.038,9.989,9.989,0,0,1,7-3.09l8.409-.195h.051l4.279.077.39,42.47ZM393,274.933a77.641,77.641,0,0,0-70.89,77.715l.073,10.649-1.48.014A23.928,23.928,0,0,0,297,387.455l.21,22.574a23.878,23.878,0,0,0,5.2,14.688L215,475.176V250.421L393,147.653ZM428,457.98c0,3.062-2.564,6.02-5.63,6.02H397.491A5.641,5.641,0,0,1,392,458.31v-.13a5.722,5.722,0,0,1,5.5-5.775l24.771-.4h.058a5.825,5.825,0,0,1,3.956,1.778A5.934,5.934,0,0,1,428,457.85Zm51.163-39.73-12.738.123-.391-42.331L478.77,376h.086a9.88,9.88,0,0,1,9.935,9.755L489,408.277A9.9,9.9,0,0,1,479.163,418.25Z"/></svg>
