<?xml version="1.0" encoding="iso-8859-1"?>
<!-- Generator: Adobe Illustrator 16.0.0, SVG Export Plug-In . SVG Version: 6.00 Build 0)  -->
<!DOCTYPE svg PUBLIC "-//W3C//DTD SVG 1.1//EN" "http://www.w3.org/Graphics/SVG/1.1/DTD/svg11.dtd">

<svg xmlns="http://www.w3.org/2000/svg" fill="#040b00" id="Layer_1" data-name="Layer 1" viewBox="0 0 512 512" width="512" height="512">
<title>Logistics Application Ipad</title><path d="M183.3,465h27.308a7,7,0,0,0,0-14H183.3a7,7,0,0,0,0,14Z"/><path d="M69.642,502H324.271A33.039,33.039,0,0,0,357,469.175V244.344s.591.018.954.018a117.076,117.076,0,0,0,116.934-117c0-64.514-52.553-117-117.067-117A116.985,116.985,0,0,0,244.5,98H69.642A32.7,32.7,0,0,0,37,130.518V469.175A32.964,32.964,0,0,0,69.642,502Zm233.8-462.128a102.989,102.989,0,1,1,25.535,186.387,6.986,6.986,0,0,0-4.08.045L289.04,237.656l2.421-27.713a7,7,0,0,0-2.307-5.826A103,103,0,0,1,303.439,39.872ZM277.215,212.115l-3.034,34.755a7,7,0,0,0,6.974,7.626,8.566,8.566,0,0,0,2.343-.327l21.5-6.736V420H89V154H243.921A117.351,117.351,0,0,0,277.215,212.115ZM51,130.518A18.684,18.684,0,0,1,69.642,112H241.811a118.412,118.412,0,0,0-.99,15.3,113.6,113.6,0,0,0,.7,12.7H82.373A7.386,7.386,0,0,0,75,147.068V427.161c0,3.866,3.507,6.839,7.373,6.839H311.54c3.866,0,7.46-2.973,7.46-6.839V243l8.484-2.717A95.691,95.691,0,0,0,343,243.391V469.175A19.026,19.026,0,0,1,324.271,488H69.642A18.95,18.95,0,0,1,51,469.175Z"/><path d="M123.479,346.323l69.989,40.414a6.984,6.984,0,0,0,6.992,0l70.019-40.414A7.017,7.017,0,0,0,274,340.261V259.432a7.018,7.018,0,0,0-3.521-6.062l-70.011-40.415a7.007,7.007,0,0,0-7,0L123.481,253.37A6.981,6.981,0,0,0,120,259.432v80.829A6.978,6.978,0,0,0,123.479,346.323ZM260,336.219l-56,32.332V303.882l56-32.332Zm-7.048-76.79-55.995,32.328-21.686-12.52,56-32.329ZM196.957,227.1l20.309,11.725-55.995,32.329-20.309-11.725ZM134,271.55l56,32.332v64.669l-56-32.332Z"/><path d="M334.928,99h89.961a7,7,0,0,0,0-14H334.928a7,7,0,0,0,0,14Z"/><path d="M290.753,99h21.09a7,7,0,0,0,0-14h-21.09a7,7,0,0,0,0,14Z"/><path d="M424.889,125H404.6a7,7,0,0,0,0,14h20.286a7,7,0,0,0,0-14Z"/><path d="M290.753,139h89.711a7,7,0,0,0,0-14H290.753a7,7,0,0,0,0,14Z"/><path d="M424.889,165H378.757a7,7,0,0,0,0,14h46.132a7,7,0,0,0,0-14Z"/><path d="M290.753,179h64.262a7,7,0,0,0,0-14H290.753a7,7,0,0,0,0,14Z"/></svg>
