<?xml version="1.0" encoding="iso-8859-1"?>
<!-- Generator: Adobe Illustrator 16.0.0, SVG Export Plug-In . SVG Version: 6.00 Build 0)  -->
<!DOCTYPE svg PUBLIC "-//W3C//DTD SVG 1.1//EN" "http://www.w3.org/Graphics/SVG/1.1/DTD/svg11.dtd">

<svg xmlns="http://www.w3.org/2000/svg" fill="#040b00" id="Layer_1" data-name="Layer 1" viewBox="0 0 512 512" width="512" height="512">
<title>Logistics Application_1</title><path d="M371.25,208A38.25,38.25,0,0,0,333,246.25v218.5A38.25,38.25,0,0,0,371.25,503h93.5A38.25,38.25,0,0,0,503,464.75V246.25A38.25,38.25,0,0,0,464.75,208ZM489,464.75A24.277,24.277,0,0,1,464.75,489H371a24.065,24.065,0,0,1-24-24.25V441H489ZM489,427H347V258H489Zm-.053-183H346.8c.794-12,11.34-22,24.2-22h93.75C477.607,222,488.153,232,488.947,244Z"/><path d="M403.422,472h28.906a7,7,0,0,0,0-14H403.422a7,7,0,0,0,0,14Z"/><path d="M112.155,331.665a7,7,0,1,0-13.992.477,135.232,135.232,0,0,0,148.9,130.287l5.616,26.535a7,7,0,0,0,5.567,5.432,6.89,6.89,0,0,0,1.282.119,7,7,0,0,0,5.867-3.183l25.644-39.416a7,7,0,0,0-2.05-9.685l-39.416-25.644a7,7,0,0,0-10.665,7.316l5.239,24.753A121.492,121.492,0,0,1,112.155,331.665Zm163.33,118.483-12.61,19.384-3.355-15.849,0-.018a7.071,7.071,0,0,0-.169-.791L256.1,437.538Z"/><path d="M401.425,171.85a7,7,0,0,0,6.992,6.761c.08,0,.161,0,.242,0a7,7,0,0,0,6.758-7.234,135.5,135.5,0,0,0-148.9-130.3L260.9,14.551a7,7,0,0,0-12.715-2.368L222.541,51.6a7,7,0,0,0,2.05,9.684l39.416,25.645a7,7,0,0,0,10.665-7.317l-5.239-24.752A121.492,121.492,0,0,1,401.425,171.85ZM238.094,53.366l12.611-19.384,3.354,15.849,0,.019a7.371,7.371,0,0,0,.169.792l3.247,15.335Z"/><path d="M364.261,380.509l50.233,29.07a6.784,6.784,0,0,0,3.441.938,6.891,6.891,0,0,0,3.47-.938l50.224-29.07A6.884,6.884,0,0,0,475,374.446V316.3a6.9,6.9,0,0,0-3.386-6.063l-50.3-29.07a6.948,6.948,0,0,0-6.971,0l-50.1,29.07A6.776,6.776,0,0,0,361,316.3v58.142A6.788,6.788,0,0,0,364.261,380.509ZM461,370.4l-36,20.988V349.413l36-20.988Zm-6.776-54.1-36.349,20.986-11.669-6.737,36.348-20.986Zm-36.349-20.986,10.678,6.165-36.348,20.986L381.526,316.3ZM375,328.425l36,20.988v41.979L375,370.4Z"/><path d="M24.125,294h140A6.685,6.685,0,0,0,171,287.25v-107.2A6.935,6.935,0,0,0,164.125,173H146.69L101,144.632v-6.37c14-3.255,25-15.792,25-30.727v-.219c-1-15.162-11-27.841-26-30.976v-7.4l20.738-21.311A7.341,7.341,0,0,0,123,42.782V11.276A7.358,7.358,0,0,0,115.864,4H72.386A7.579,7.579,0,0,0,65,11.276V42.782a6.951,6.951,0,0,0,1.892,4.844L86,67.622V82.6A7.791,7.791,0,0,0,93.5,90h.177C103.479,90,111,97.555,112,107.4v.137a17.781,17.781,0,0,1-17.78,17.556,18.234,18.234,0,0,1-18.073-18.009A7.206,7.206,0,0,0,69.027,100h-.036a7.143,7.143,0,0,0-7.027,7.154A32.444,32.444,0,0,0,87,138.333v6.3L41.56,173H24.125A7.148,7.148,0,0,0,17,180.047v107.2A6.9,6.9,0,0,0,24.125,294ZM79,18h30v4H79Zm0,21.97V36h30v3.97L94,55.35ZM94.125,156.72,120.232,173H68.018ZM103,187v46.663L85,244.469V187Zm-72,0H71v69.918a7.115,7.115,0,0,0,3.689,6.1,7.231,7.231,0,0,0,3.491.9,7.1,7.1,0,0,0,3.668-1.02l31.779-19.319A7.007,7.007,0,0,0,117,237.6V187h40v93H31Z"/></svg>
