<?xml version="1.0" encoding="iso-8859-1"?>
<!-- Generator: Adobe Illustrator 16.0.0, SVG Export Plug-In . SVG Version: 6.00 Build 0)  -->
<!DOCTYPE svg PUBLIC "-//W3C//DTD SVG 1.1//EN" "http://www.w3.org/Graphics/SVG/1.1/DTD/svg11.dtd">

<svg xmlns="http://www.w3.org/2000/svg" fill="#040b00" id="Layer_1" data-name="Layer 1" viewBox="0 0 512 512" width="512" height="512">
<title>Logistics company2</title><path d="M25.328,296.729l45.025,4.34a188.352,188.352,0,0,0,22.948,54.5L64.619,390.2a7,7,0,0,0,.442,9.415l47.628,47.628a7,7,0,0,0,9.414.441l34.684-28.723a192.764,192.764,0,0,0,54.445,22.987l4.34,44.876A6.871,6.871,0,0,0,222.54,493h67.523a6.871,6.871,0,0,0,6.968-6.178l4.339-44.949a188.24,188.24,0,0,0,54.5-22.91l34.635,28.7a7,7,0,0,0,9.414-.432l47.628-47.623a7,7,0,0,0,.442-9.412l-28.723-34.683a192.744,192.744,0,0,0,22.988-54.451l44.431-4.334a7,7,0,0,0,6.32-6.967V222.238a7,7,0,0,0-6.328-6.967l-45.025-4.34A188.34,188.34,0,0,0,418.7,156.436L447.381,121.8a7,7,0,0,0-.41-9.383L399.946,64.791a7,7,0,0,0-9.446-.474L355.816,93.041a192.788,192.788,0,0,0-54.445-22.987l-4.34-44.876A6.871,6.871,0,0,0,290.063,19H222.54a6.871,6.871,0,0,0-6.968,6.178l-4.339,44.949a188.257,188.257,0,0,0-54.5,22.91L122.1,64.336a7,7,0,0,0-9.414.433L65.061,112.392a7,7,0,0,0-.442,9.412l28.723,34.683a192.776,192.776,0,0,0-22.987,54.445l-45.027,4.339A7,7,0,0,0,19,222.238v67.523A7,7,0,0,0,25.328,296.729ZM33,228.6l43.711-4.213a7,7,0,0,0,6.17-5.488,178.946,178.946,0,0,1,24.964-59.179,7,7,0,0,0-.49-8.259L79.466,117.78l38.616-38.615,33.676,27.888a7,7,0,0,0,8.348.433A173.681,173.681,0,0,1,219.2,82.58a6.832,6.832,0,0,0,5.489-6.02L228.9,33h54.807l4.213,43.56a6.916,6.916,0,0,0,5.489,6.095,178.811,178.811,0,0,1,59.178,24.926,7,7,0,0,0,8.26-.509L394.49,79.2l38.069,38.554-27.914,33.705a7,7,0,0,0-.433,8.346A173.688,173.688,0,0,1,429.119,218.9a7,7,0,0,0,6.17,5.488L479,228.6v54.815l-43.116,4.207a7,7,0,0,0-6.162,5.487,178.928,178.928,0,0,1-24.965,59.179,7,7,0,0,0,.491,8.259l27.888,33.677-38.615,38.615-33.676-27.888a7,7,0,0,0-8.348-.433,173.673,173.673,0,0,1-59.09,24.906,6.832,6.832,0,0,0-5.489,6.02L283.705,479H228.9l-4.213-43.56a6.916,6.916,0,0,0-5.489-6.095,178.805,178.805,0,0,1-59.178-24.927,7,7,0,0,0-8.26.51l-33.676,27.9L79.466,394.215l27.889-33.674a7,7,0,0,0,.433-8.346A173.688,173.688,0,0,1,82.881,293.1a7,7,0,0,0-6.17-5.488L33,283.4Z"/><path d="M256.3,408c83.814,0,152-68.187,152-152s-68.186-152-152-152-152,68.187-152,152S172.488,408,256.3,408Zm0-290c76.094,0,138,61.907,138,138S332.4,394,256.3,394s-138-61.907-138-138S180.208,118,256.3,118Z"/><path d="M173.5,346h165A14.5,14.5,0,0,0,353,331.518V227.754A6.989,6.989,0,0,0,351.9,224l-32.7-51.3a14.428,14.428,0,0,0-12.227-6.7H205.028a14.426,14.426,0,0,0-12.227,6.7L160.1,224a6.989,6.989,0,0,0-1.1,3.758V331.518A14.5,14.5,0,0,0,173.5,346ZM274,332H238V265.245l36,15.218ZM263,180h43.972c.172,0,.329.2.421.345L333.236,221H263Zm-58.394.345c.093-.145.25-.345.422-.345H249v41H178.764ZM173,235H339v96.518a.485.485,0,0,1-.5.482H288V275.808a6.931,6.931,0,0,0-4.219-6.455l-50.26-21.089a6.816,6.816,0,0,0-6.49.627A6.914,6.914,0,0,0,224,254.72V332H173.5a.485.485,0,0,1-.5-.482Z"/></svg>
