<?xml version="1.0" encoding="iso-8859-1"?>
<!-- Generator: Adobe Illustrator 16.0.0, SVG Export Plug-In . SVG Version: 6.00 Build 0)  -->
<!DOCTYPE svg PUBLIC "-//W3C//DTD SVG 1.1//EN" "http://www.w3.org/Graphics/SVG/1.1/DTD/svg11.dtd">

<svg xmlns="http://www.w3.org/2000/svg" fill="#040b00" id="Layer_1" data-name="Layer 1" viewBox="0 0 512 512" width="512" height="512">
<title>Logistic Website 3</title><path d="M470.074,33H146.617C128.462,33,114,48.2,114,66.354V171.163A78.28,78.28,0,0,0,146.51,320.64,75.218,75.218,0,0,0,185.8,310H252v60H234.588c-.144,0-.285.156-.427.164A134.774,134.774,0,0,0,144.4,336.106C69.738,336.106,9,397.093,9,471.75A7.217,7.217,0,0,0,16,479H272.79a7.313,7.313,0,0,0,7-7.356A136.583,136.583,0,0,0,247.808,384H392.7a7,7,0,0,0,0-14H365V310H470.074A32.987,32.987,0,0,0,503,277.047V66.354C503,48.2,488.229,33,470.074,33ZM265.591,465H23.2a121.4,121.4,0,0,1,242.392,0ZM146.433,306.626a64.331,64.331,0,1,1,64.331-64.33A64.4,64.4,0,0,1,146.433,306.626ZM351,370H266V310h85Zm138-92.953A18.971,18.971,0,0,1,470.074,296H203.4a78.3,78.3,0,0,0,19.232-36H489ZM489,246H224.657c.07-1,.107-2.524.107-3.892a78.208,78.208,0,0,0-78.177-78.237A76.906,76.906,0,0,0,128,166.247V66.354C128,55.918,136.182,47,146.617,47H470.074C480.51,47,489,55.918,489,66.354Z"/><path d="M252.79,84H173.937a7,7,0,0,0,0,14H252.79a7,7,0,1,0,0-14Z"/><path d="M252.79,118H173.937a7,7,0,0,0,0,14H252.79a7,7,0,1,0,0-14Z"/><path d="M252.79,148H173.937a7,7,0,0,0,0,14H252.79a7,7,0,1,0,0-14Z"/><path d="M440.93,84H305.642A6.655,6.655,0,0,0,299,90.944v34.85c0,3.866,2.775,7.206,6.642,7.206H310v87.479A6.318,6.318,0,0,0,316.655,227H430.08c3.866,0,6.92-2.655,6.92-6.521V133h3.93a7.239,7.239,0,0,0,7.07-7.206V90.944A7.013,7.013,0,0,0,440.93,84ZM423,213H324V133h27v51.191a7.206,7.206,0,0,0,10.873,5.987l11.3-6.826,11.653,6.868a7.038,7.038,0,0,0,3.569.971,6.283,6.283,0,0,0,3.271-.92,6.822,6.822,0,0,0,3.33-6.08V133h28Zm-58-41.235V133h16v38.93l-4.475-2.763a7.107,7.107,0,0,0-7.248.042ZM434,119H313V98H434Z"/></svg>
