<?xml version="1.0" encoding="iso-8859-1"?>
<!-- Generator: Adobe Illustrator 16.0.0, SVG Export Plug-In . SVG Version: 6.00 Build 0)  -->
<!DOCTYPE svg PUBLIC "-//W3C//DTD SVG 1.1//EN" "http://www.w3.org/Graphics/SVG/1.1/DTD/svg11.dtd">

<svg xmlns="http://www.w3.org/2000/svg" fill="#040b00" id="Layer_1" data-name="Layer 1" viewBox="0 0 512 512" width="512" height="512">
<title>Logistics</title><path d="M448.105,301.247l-8.553-49a48.174,48.174,0,0,0-2.756-10A47.025,47.025,0,0,0,393.358,213H330.323A7.635,7.635,0,0,0,323,220.4V329h-9V113.945A46.843,46.843,0,0,0,267.048,67H66.175A47.033,47.033,0,0,0,19,113.945v278.6C19,398.614,23.935,404,30,404H71.873a50.13,50.13,0,0,0,14.291,27.285,50.05,50.05,0,0,0,69.5.056A50.247,50.247,0,0,0,169.956,404H351.087a50.137,50.137,0,0,0,14.291,27.285,50.049,50.049,0,0,0,69.5.056A50.242,50.242,0,0,0,449.17,404H482c6.065,0,11-5.386,11-11.451V357.378C493,332.662,473.17,302.965,448.105,301.247ZM33,113.945A33.017,33.017,0,0,1,66.175,81H267.048A32.827,32.827,0,0,1,300,113.945V329H33ZM156.591,396.387a35.688,35.688,0,0,1-71.357-.044c-.007-.264-.006-.535-.006-.8A35.546,35.546,0,0,1,94.833,371.2h0l.076-.08.132-.136a35.654,35.654,0,0,1,51.745,0c.044.046.063.067.108.112l.1.105a35.546,35.546,0,0,1,9.607,24.347C156.6,395.808,156.6,396.079,156.591,396.387ZM323,390H170.225a48.366,48.366,0,0,0-13-28.135c-.034-.037-.075-.306-.11-.343-.069-.073-.139-.147-.209-.219a49.655,49.655,0,0,0-71.981,0c-.07.072-.141.147-.214.225-.035.036-.071.3-.105.336A48.362,48.362,0,0,0,71.6,390H33V343H323Zm70-163h.358a33.067,33.067,0,0,1,30.5,20.587,32.616,32.616,0,0,1,1.9,6.883L433.879,301H393Zm-56,0h42v74H337Zm98.805,169.387a35.688,35.688,0,0,1-71.357-.044c-.008-.264-.007-.535-.007-.8a35.686,35.686,0,1,1,71.371,0C435.812,395.808,435.813,396.079,435.805,396.387ZM479,390H449.438a49.673,49.673,0,0,0-98.622,0H337V315H445.825C460.448,315,479,335.04,479,357.378Z"/><path d="M245.306,155.522l-75.1-43.3a7.087,7.087,0,0,0-7.048,0l-74.83,43.3A6.845,6.845,0,0,0,85,161.584v86.6a6.825,6.825,0,0,0,3.306,6.062l74.9,43.3a6.826,6.826,0,0,0,3.452.938,6.913,6.913,0,0,0,3.476-.938l75.182-43.3A7.175,7.175,0,0,0,249,248.187v-86.6A7.188,7.188,0,0,0,245.306,155.522Zm-78.7-29.156,22.76,13.14-60.995,35.215-22.76-13.14Zm-6.611,153L99,244.145V173.7l61,35.219Zm6.611-82.567L142.376,182.8l61-35.215,24.235,13.992ZM235,244.145l-61,35.218V208.921L235,173.7Z"/></svg>
