<?xml version="1.0" encoding="iso-8859-1"?>
<!-- Generator: Adobe Illustrator 16.0.0, SVG Export Plug-In . SVG Version: 6.00 Build 0)  -->
<!DOCTYPE svg PUBLIC "-//W3C//DTD SVG 1.1//EN" "http://www.w3.org/Graphics/SVG/1.1/DTD/svg11.dtd">

<svg xmlns="http://www.w3.org/2000/svg" fill="#040b00" id="Layer_1" data-name="Layer 1" viewBox="0 0 512 512" width="512" height="512">
<title>Logistic Data</title><path d="M184,337a7,7,0,0,0,7-7V249a7,7,0,0,0-7-7H135a7,7,0,0,0-7,7v81a7,7,0,0,0,7,7Zm-42-81h36v66H142Z"/><path d="M90,329V191a7,7,0,0,0-7-7H34a7,7,0,0,0-7,7V329a7,7,0,0,0,7,7H83A7,7,0,0,0,90,329Zm-13-7H41V198H77Z"/><path d="M58.926,150.7a34.879,34.879,0,0,0,27.586-13.543L126.3,164.858a34.925,34.925,0,1,0,68.819,8.418,35.292,35.292,0,0,0-.267-4.25l42.009-35.43A34.915,34.915,0,0,0,294.3,96.922L332.2,62.179a34.906,34.906,0,1,0-4.4-16.936c0,.646.02,1.287.055,1.924L286.785,84.815a34.9,34.9,0,0,0-57.719,37.042l-39.185,33.048a34.884,34.884,0,0,0-57.423-2.82l-39.7-27.641A34.928,34.928,0,1,0,58.926,150.7ZM362.731,24.317a20.926,20.926,0,1,1-20.925,20.926A20.95,20.95,0,0,1,362.731,24.317ZM261.463,87.906a20.926,20.926,0,1,1-20.926,20.926A20.95,20.95,0,0,1,261.463,87.906ZM160.194,152.35a20.926,20.926,0,1,1-20.925,20.926A20.95,20.95,0,0,1,160.194,152.35ZM58.926,94.844A20.926,20.926,0,1,1,38,115.771,20.951,20.951,0,0,1,58.926,94.844Z"/><path d="M394,256.974V120.141c0-3.866-2.674-7.141-6.54-7.141H338a7.124,7.124,0,0,0-7,7.141V257.505a135.922,135.922,0,0,0-38,17.567V183.479c0-3.867-2.941-7.479-6.808-7.479H236.734c-3.866,0-6.734,3.612-6.734,7.479v146A6.386,6.386,0,0,0,236.734,336h9.608a128.968,128.968,0,0,0-6.9,41.165c0,68.529,55.752,124.4,124.281,124.4S487.77,445.872,487.77,377.343C487.77,319.422,448,270.69,394,256.974ZM345,127h35V254.255a116.278,116.278,0,0,0-16.511-1.131A120.007,120.007,0,0,0,345,254.544ZM244,322V190h35v96.3A131.4,131.4,0,0,0,252.223,322ZM363.721,487.683A110.28,110.28,0,1,1,474,377.4,110.406,110.406,0,0,1,363.721,487.683Z"/><path d="M427.36,336.7l-60.069-34.641a7.063,7.063,0,0,0-7.035,0L300.378,336.7A6.889,6.889,0,0,0,297,342.762v69.282a6.873,6.873,0,0,0,3.36,6.062l59.931,34.641a6.9,6.9,0,0,0,6.947,0l60.131-34.641A7.125,7.125,0,0,0,431,412.044V342.762A7.134,7.134,0,0,0,427.36,336.7Zm-63.639-20.5,15.407,8.9-46,26.555-15.407-8.895ZM357,434.561,311,408v-53.12l46,26.558Zm6.721-65.246-16.589-9.577,46-26.556,16.589,9.578ZM417,408l-46,26.559V381.44l46-26.558Z"/></svg>
