<?xml version="1.0" encoding="iso-8859-1"?>
<!-- Generator: Adobe Illustrator 16.0.0, SVG Export Plug-In . SVG Version: 6.00 Build 0)  -->
<!DOCTYPE svg PUBLIC "-//W3C//DTD SVG 1.1//EN" "http://www.w3.org/Graphics/SVG/1.1/DTD/svg11.dtd">

<svg xmlns="http://www.w3.org/2000/svg" fill="#040b00" id="Layer_1" data-name="Layer 1" viewBox="0 0 512 512" width="512" height="512">
<title>Logistic Website</title><path d="M475,332.923V95.246C475,75.26,458.428,59,438.441,59H73.559C53.572,59,37,75.26,37,95.246V332.923C37,352.909,53.572,369,73.559,369H193v70H166.111a7,7,0,0,0,0,14H351.152a7,7,0,1,0,0-14H319V369H438.441C458.428,369,475,352.909,475,332.923ZM51,95.246A22.54,22.54,0,0,1,73.559,73H438.441A22.54,22.54,0,0,1,461,95.246V299H51ZM305,439H207V369h98ZM73.559,355C61.292,355,51,345.19,51,332.923V313H461v19.923C461,345.19,450.708,355,438.441,355Z"/><path d="M329.5,140.977l-70-40.415a7,7,0,0,0-7,0l-70,40.415a7,7,0,0,0-3.5,6.062v80.829a7,7,0,0,0,3.5,6.063l70,40.414a7.005,7.005,0,0,0,7,0l70-40.414a7,7,0,0,0,3.5-6.063V147.039A7,7,0,0,0,329.5,140.977ZM256,114.707l20.309,11.725-56,32.329-20.309-11.725Zm-7,141.451-56-32.331V159.158l56,32.332Zm7-76.793-21.686-12.52,56-32.329L312,147.036Zm63,44.462-56,32.331V191.49l56-32.332Z"/></svg>
