<?xml version="1.0" encoding="iso-8859-1"?>
<!-- Generator: Adobe Illustrator 16.0.0, SVG Export Plug-In . SVG Version: 6.00 Build 0)  -->
<!DOCTYPE svg PUBLIC "-//W3C//DTD SVG 1.1//EN" "http://www.w3.org/Graphics/SVG/1.1/DTD/svg11.dtd">

<svg xmlns="http://www.w3.org/2000/svg" fill="#040b00" id="Layer_1" data-name="Layer 1" viewBox="0 0 512 512" width="512" height="512">
<title>Logistics Transportation</title><path d="M464.4,249.074,442.187,183h20.055A10.851,10.851,0,0,0,473,171.951V149.434c0-6.065-4.693-11.434-10.758-11.434h-85.1C356.451,138,340,155.264,340,175.951V337H188.48a46.176,46.176,0,0,0-40.818,0H103.874a46.2,46.2,0,0,0-40.829,0H16.016A6.71,6.71,0,0,0,9,343.633v31.483A10.928,10.928,0,0,0,20.016,386h17.8a44.692,44.692,0,0,0,13.257,25.249,46.338,46.338,0,0,0,74.7-14.163,46.273,46.273,0,0,0,74.7,14.162A44.688,44.688,0,0,0,213.731,386H378.738a44.674,44.674,0,0,0,13.252,25.246A46.3,46.3,0,0,0,470.6,381.367a42.127,42.127,0,0,0,20.615-12.586c7.377-7.936,11.784-17.9,11.784-26.667v-49.4A44.045,44.045,0,0,0,464.4,249.074ZM37.545,372H23V351H46.249A42.262,42.262,0,0,0,37.545,372Zm78.239,6.952a32.328,32.328,0,0,1-64.64-.062c-.007-.228-.006-.462-.006-.69a32.262,32.262,0,0,1,8.625-21.98l.132-.132c.047-.047.093-.1.139-.143a31.98,31.98,0,0,1,8.009-6.162,32.381,32.381,0,0,1,30.824,0l.028.015a31.994,31.994,0,0,1,8,6.15c.046.049.093.1.14.144l.134.134a32.226,32.226,0,0,1,8.624,21.978C115.792,378.428,115.793,378.662,115.784,378.952Zm10-19.251c-1.367-3.064-3.079-6.7-5.1-8.7h10.19C128.866,353,127.156,356.622,125.783,359.7ZM200,378.2v.83c0,17.372-14.731,31.492-32.123,31.492a32.448,32.448,0,0,1-32.216-31.654c-.008-.221.043-.448.043-.668a32.341,32.341,0,0,1,16.915-28.407c.008,0,.029-.009.038-.014a31.94,31.94,0,0,1,15.412-3.9,32.361,32.361,0,0,1,15.4,3.9l.027.014a31.974,31.974,0,0,1,16.62,26.01C200.172,376.546,200,377.33,200,378.2ZM340,372H214a43.013,43.013,0,0,0-8.662-21H340Zm37.138-220H459v17H354.685A23.455,23.455,0,0,1,377.138,152ZM354,183h73.418l22.091,66H354Zm0,80h65.275a32.848,32.848,0,0,1-32.637,28H354ZM456.7,378.958a32.325,32.325,0,0,1-64.633-.04c-.007-.238-.006-.483-.006-.719a32.322,32.322,0,0,1,64.558-2.369c.057.762.086,1.559.086,2.369C456.708,378.442,456.709,378.7,456.7,378.958ZM489,342.114c0,9.123-9.173,21.4-19.628,25.068a46.575,46.575,0,0,0-44.983-35.368A46.059,46.059,0,0,0,378.475,372H354V305h32.638c24.268,0,44.3-19,46.747-42h25.6A29.8,29.8,0,0,1,489,292.716Z"/><path d="M16,321H314a7,7,0,0,0,7-7V172a7,7,0,0,0-7-7H16a7,7,0,0,0-7,7V314A7,7,0,0,0,16,321Zm7-142H307V307H23Z"/><path d="M59,191.978a7,7,0,0,0-7,7v90a7,7,0,0,0,14,0v-90A7,7,0,0,0,59,191.978Z"/><path d="M112,191.978a7,7,0,0,0-7,7v90a7,7,0,0,0,14,0v-90A7,7,0,0,0,112,191.978Z"/><path d="M165,191.978a7,7,0,0,0-7,7v90a7,7,0,0,0,14,0v-90A7,7,0,0,0,165,191.978Z"/><path d="M218,191.978a7,7,0,0,0-7,7v90a7,7,0,0,0,14,0v-90A7,7,0,0,0,218,191.978Z"/><path d="M271,191.978a7,7,0,0,0-7,7v90a7,7,0,1,0,14,0v-90A7,7,0,0,0,271,191.978Z"/></svg>
