<?xml version="1.0" encoding="iso-8859-1"?>
<!-- Generator: Adobe Illustrator 16.0.0, SVG Export Plug-In . SVG Version: 6.00 Build 0)  -->
<!DOCTYPE svg PUBLIC "-//W3C//DTD SVG 1.1//EN" "http://www.w3.org/Graphics/SVG/1.1/DTD/svg11.dtd">

<svg xmlns="http://www.w3.org/2000/svg" fill="#040b00" id="Layer_1" data-name="Layer 1" viewBox="0 0 512 512" width="512" height="512">
<title>Logistic Warehouse</title><path d="M500.073,212.587,260.4,41.109a7,7,0,0,0-8.139-.005L11.935,212.582a7,7,0,0,0,4.071,12.7,7.245,7.245,0,0,0,4.146-1.3L59,196.322V465.039A6.819,6.819,0,0,0,65.825,472h380.35A6.819,6.819,0,0,0,453,465.039V196.249l38.84,27.725a7.026,7.026,0,0,0,8.233-11.387ZM205,458H139V398h11v23.2a6.932,6.932,0,0,0,10.8,5.824l11.1-7.411,11.111,7.411a6.977,6.977,0,0,0,3.88,1.176,7.2,7.2,0,0,0,3.357-.828A7.053,7.053,0,0,0,194,421.2V398h11Zm-41-49.883V398h16v10.117l-4.174-2.744a6.951,6.951,0,0,0-7.737,0ZM159,384V324h11v23.2a6.932,6.932,0,0,0,10.8,5.824l11.1-7.411,11.111,7.411a6.977,6.977,0,0,0,3.88,1.176,7.2,7.2,0,0,0,3.357-.828A7.053,7.053,0,0,0,214,347.2V324h11v60H159Zm25-49.883V324h16v10.117l-4.174-2.744a6.951,6.951,0,0,0-7.737,0ZM285,458H219V398h11v23.2a6.932,6.932,0,0,0,10.8,5.824l11.1-7.411,11.111,7.411a6.977,6.977,0,0,0,3.88,1.176,7.2,7.2,0,0,0,3.357-.828A7.053,7.053,0,0,0,274,421.2V398h11Zm-41-49.883V398h16v10.117l-4.174-2.744a6.951,6.951,0,0,0-7.737,0ZM239,384V324h11v23.2a6.932,6.932,0,0,0,10.8,5.824l11.1-7.411,11.111,7.411a6.977,6.977,0,0,0,3.88,1.176,7.2,7.2,0,0,0,3.357-.828A7.053,7.053,0,0,0,294,347.2V324h11v60H239Zm25-49.883V324h16v10.117l-4.174-2.744a6.951,6.951,0,0,0-7.737,0ZM365,458H299V398h11v23.2a6.932,6.932,0,0,0,10.8,5.824l11.1-7.411,11.111,7.411a6.977,6.977,0,0,0,3.88,1.176,7.2,7.2,0,0,0,3.357-.828A7.053,7.053,0,0,0,354,421.2V398h11Zm-41-49.883V398h16v10.117l-4.174-2.744a6.951,6.951,0,0,0-7.737,0ZM402,458H379V391.2a7.268,7.268,0,0,0-7.113-7.2H319V317.2a7.268,7.268,0,0,0-7.113-7.2h-160A7.076,7.076,0,0,0,145,317.2V384H131.887A7.076,7.076,0,0,0,125,391.2V458H110V270H402Zm0-202H110V246H402Zm0-24H110V221H402Zm0-25H110V197H402Zm37,251H416V189.858A6.659,6.659,0,0,0,409.264,183H102.736A6.659,6.659,0,0,0,96,189.858V458H73V186.333L256.315,55.406,439,186.232Z"/></svg>
