<?xml version="1.0" encoding="iso-8859-1"?>
<!-- Generator: Adobe Illustrator 16.0.0, SVG Export Plug-In . SVG Version: 6.00 Build 0)  -->
<!DOCTYPE svg PUBLIC "-//W3C//DTD SVG 1.1//EN" "http://www.w3.org/Graphics/SVG/1.1/DTD/svg11.dtd">

<svg xmlns="http://www.w3.org/2000/svg" fill="#040b00" id="Layer_1" data-name="Layer 1" viewBox="0 0 512 512" width="512" height="512">
<title>Logistic Operator</title><path d="M103,360.445c-.129.055-.27.114-.395.177a61.476,61.476,0,0,0-33.576,49.584c-.016.193-.031.388-.031.582V466.1a6.912,6.912,0,0,0,7,6.9H282.267c16.942,18,41.184,29.909,68.067,29.909A92.64,92.64,0,1,0,286.148,343.39L267,335.275V300h7.559a17.979,17.979,0,0,0,17.956-15h11.754A30.488,30.488,0,0,0,335,254.482V248h3.036A27.222,27.222,0,0,0,365,220.914V214h6.243a7,7,0,0,0,0-14H365v-5.478c0-13.077-10-23.989-22-26.325V154.713a28.034,28.034,0,0,0-21-26.993V118.8C322,58.278,273.023,9.039,212.5,9.039S103,58.278,103,118.8v33.661A25.465,25.465,0,0,0,85.694,171.2a32.38,32.38,0,0,0,20.4,38.642A108.485,108.485,0,0,0,162,299.554v35.721Zm247.332-28.816A78.666,78.666,0,1,1,271.668,410.3,78.756,78.756,0,0,1,350.334,331.629ZM279,282.693A4.307,4.307,0,0,1,274.693,287H217.307A4.307,4.307,0,0,1,213,282.693v-7.386A4.307,4.307,0,0,1,217.307,271h57.386A4.307,4.307,0,0,1,279,275.307Zm-26,23.174v29.764a96.1,96.1,0,0,1-77,0V306.053a107.669,107.669,0,0,0,77-.186Zm69-163.124a14.224,14.224,0,0,1,7,11.97V168h-7ZM322,182h16.036A12.726,12.726,0,0,1,351,194.522v26.392A13.208,13.208,0,0,1,338.036,234H322Zm-7.057,66H321v6.482A16.473,16.473,0,0,1,304.269,271h-4.3a100.621,100.621,0,0,0,14.659-23.338C314.731,247.667,314.835,248,314.943,248ZM308,164.29c-19-.457-76.406-4.655-121.881-36.9l.633-.082a298.333,298.333,0,0,0,34.407-6.479c8.93,9.5,36.841,34.724,86.841,39.854ZM117,118.8c0-52.8,42.7-95.762,95.5-95.762S308,66,308,118.8v27.785c-37-4.161-60.1-20.4-71.261-30.247,18.725-6.144,34.7-14.222,47.7-24.19a6.993,6.993,0,1,0-8.5-11.109c-26.564,20.373-63.978,28.839-90.691,32.354A327.367,327.367,0,0,1,132.4,116.13a7.016,7.016,0,0,0-7.344,6.565l-2.28,37.428-5.25-2.8a1.031,1.031,0,0,1-.527-1Zm3,85.819v-.154a7.046,7.046,0,0,0-5.844-6.9A18.9,18.9,0,0,1,99.1,174.53a12.021,12.021,0,0,1,7.158-8.474,15.3,15.3,0,0,0,4.673,3.719l12.152,6.242a9.08,9.08,0,0,0,13.2-7.356c0-.044.007-.087.009-.131l2.33-38.241c6.034.056,15.63-.051,27.394-.889,31.215,26.769,69.571,38.645,96.522,43.9A272.31,272.31,0,0,0,308,178.308v45.265a94.525,94.525,0,0,1-19.379,39.8A18.151,18.151,0,0,0,274.559,257H217.194A17.888,17.888,0,0,0,199,274.9v6.9a18.318,18.318,0,0,0,12.121,17.211A94.574,94.574,0,0,1,120,204.62Zm48.576,143.049a110.855,110.855,0,0,0,92.072,0l15.813,6.749A92.3,92.3,0,0,0,271.6,459H83V411.089a47.4,47.4,0,0,1,25.673-37.854Z"/><path d="M168,177.545a7,7,0,0,0-7,7v14.992a7,7,0,1,0,14,0V184.545A7,7,0,0,0,168,177.545Z"/><path d="M265,206.537a7,7,0,0,0,7-7V184.545a7,7,0,1,0-14,0v14.992A7,7,0,0,0,265,206.537Z"/><path d="M296.491,445.429,346.839,474.5a6.991,6.991,0,0,0,7,0l50.509-29.071A7.15,7.15,0,0,0,408,439.367V381.225a7.149,7.149,0,0,0-3.657-6.062l-50.431-29.071a7.07,7.07,0,0,0-7.039,0L296.51,375.163a7.008,7.008,0,0,0-3.51,6.062v58.142A6.991,6.991,0,0,0,296.491,445.429ZM394,435.325l-37,20.988v-41.98l37-20.988Zm-7.317-54.1-36.349,20.985-11.67-6.737,36.349-20.986Zm-36.349-20.986,10.679,6.165-36.349,20.986-10.679-6.165ZM307,393.345l36,20.988v41.98l-36-20.988Z"/></svg>
