<?xml version="1.0" encoding="iso-8859-1"?>
<!-- Generator: Adobe Illustrator 16.0.0, SVG Export Plug-In . SVG Version: 6.00 Build 0)  -->
<!DOCTYPE svg PUBLIC "-//W3C//DTD SVG 1.1//EN" "http://www.w3.org/Graphics/SVG/1.1/DTD/svg11.dtd">

<svg xmlns="http://www.w3.org/2000/svg" fill="#040b00" id="Layer_1" data-name="Layer 1" viewBox="0 0 512 512" width="512" height="512">
<title>Logistics company_1</title><path d="M496.672,213.8l-47.2-4.549A196.256,196.256,0,0,0,425.4,152.082l30.07-36.31a7,7,0,0,0-.41-9.382l-49.07-49.7a7,7,0,0,0-9.446-.473l-36.36,30.11a200.9,200.9,0,0,0-57.121-24.115l-4.549-47.042A6.866,6.866,0,0,0,291.544,9H221.085a6.865,6.865,0,0,0-6.968,6.171L209.568,62.29A196.13,196.13,0,0,0,152.4,86.326L116.087,56.237a7,7,0,0,0-9.415.432l-49.7,49.693a7,7,0,0,0-.442,9.413l30.111,36.359a200.877,200.877,0,0,0-24.116,57.121l-47.2,4.548A7,7,0,0,0,9,220.771v70.458a7,7,0,0,0,6.328,6.968l47.2,4.549A196.256,196.256,0,0,0,86.6,359.918l-30.07,36.31a7,7,0,0,0,.442,9.415l49.7,49.7a7,7,0,0,0,9.415.441l36.36-30.11a200.912,200.912,0,0,0,57.121,24.115l4.549,47.042A6.865,6.865,0,0,0,221.085,503h70.459a6.866,6.866,0,0,0,6.968-6.171l4.55-47.119a196.119,196.119,0,0,0,57.17-24.036l36.31,30.089a7,7,0,0,0,9.415-.432l49.7-49.693a7,7,0,0,0,.442-9.413l-30.111-36.359A200.852,200.852,0,0,0,450.1,302.74L496.68,298.2a7,7,0,0,0,6.32-6.967V220.771A7,7,0,0,0,496.672,213.8ZM489,284.879,443.734,289.3a7,7,0,0,0-6.162,5.487,186.949,186.949,0,0,1-26.091,61.853,7,7,0,0,0,.491,8.26l29.277,35.354-40.686,40.686-35.354-29.278a7,7,0,0,0-8.348-.432A181.558,181.558,0,0,1,295.1,437.258a6.822,6.822,0,0,0-5.489,6.013L285.187,489H227.442l-4.421-45.729a6.912,6.912,0,0,0-5.489-6.092,186.909,186.909,0,0,1-61.852-26.051,7,7,0,0,0-8.26.51l-35.355,29.287L71.38,400.244l29.277-35.352a7,7,0,0,0,.433-8.346,181.557,181.557,0,0,1-26.033-61.764,7,7,0,0,0-6.17-5.488L23,284.872V227.128l45.887-4.422a7,7,0,0,0,6.17-5.488,187.018,187.018,0,0,1,26.09-61.853,7,7,0,0,0-.49-8.26L71.38,111.751l40.685-40.686,35.355,29.278a7,7,0,0,0,8.348.432,181.555,181.555,0,0,1,61.764-26.033,6.822,6.822,0,0,0,5.489-6.013L227.442,23h57.745l4.421,45.729a6.912,6.912,0,0,0,5.489,6.092,186.909,186.909,0,0,1,61.852,26.051,7,7,0,0,0,8.26-.51L400.532,71.1l40.114,40.623-29.3,35.383a7,7,0,0,0-.433,8.346,181.557,181.557,0,0,1,26.033,61.764,7,7,0,0,0,6.17,5.488L489,227.128Z"/><path d="M256.314,89c-92.084,0-167,74.916-167,167s74.916,167,167,167,167-74.916,167-167S348.4,89,256.314,89Zm0,320c-84.364,0-153-68.636-153-153s68.636-153,153-153,153,68.636,153,153S340.679,409,256.314,409Z"/><path d="M337.534,211H318.587c-.4,0-.808-.114-1.228-.114s-.828.114-1.227.114H279.317A7.373,7.373,0,0,0,272,218.112V311H259V208.937a7.278,7.278,0,0,0,0-.9c-.01-.071.009-.142,0-.214a6.913,6.913,0,0,0-.15-.766c-.01-.037-.011-.074-.022-.11a6.912,6.912,0,0,0-.312-.855c-.019-.043-.039-.085-.06-.127a6.771,6.771,0,0,0-.379-.7c-.017-.029-.029-.061-.049-.09l-21.1-32.9A11.6,11.6,0,0,0,226.942,167H161.178a11.6,11.6,0,0,0-9.983,5.277l-21.1,33c-.019.029-.032.012-.049.041a6.6,6.6,0,0,0-.381.677c-.02.043-.042.071-.061.114a6.843,6.843,0,0,0-.316.849c-.011.036-.019.07-.028.107a6.728,6.728,0,0,0-.166.766c-.012.07-.024.14-.033.211a7.006,7.006,0,0,0-.064.9v104.3A11.787,11.787,0,0,0,140.838,325h28.768a27.32,27.32,0,0,0,52.816,0h80.723a27.319,27.319,0,0,0,52.815,0h8.428A18.569,18.569,0,0,0,383,306.464v-52c0-.059-.008-.115-.009-.173,0-.127-.009-.253-.019-.379-.008-.109-.019-.216-.033-.323s-.033-.235-.053-.352-.041-.222-.066-.332-.054-.221-.086-.331-.062-.22-.1-.328-.076-.214-.117-.32-.084-.211-.13-.315-.1-.206-.15-.308-.1-.2-.161-.3-.114-.194-.175-.289-.131-.2-.2-.3-.127-.173-.193-.258-.159-.2-.243-.293c-.039-.044-.072-.091-.111-.134l-29.912-32.647A18.712,18.712,0,0,0,337.534,211ZM201,181h24.757l13.6,21H201Zm2,35v44.522l-18-7.734V216Zm-40.637-35H187v21H148.764Zm33.651,150.4a13.321,13.321,0,1,1,13.321-13.321A13.336,13.336,0,0,1,196.014,331.4ZM245,311H222.422a27.32,27.32,0,0,0-52.816,0H143V216h28v41.443a6.922,6.922,0,0,0,4.211,6.455l32.406,13.6a6.894,6.894,0,0,0,2.686.545,6.521,6.521,0,0,0,3.724-1.171A6.862,6.862,0,0,0,217,271.048V216h28Zm41-86h24v22H286Zm43.552,106.4a13.321,13.321,0,1,1,13.321-13.321A13.336,13.336,0,0,1,329.552,331.4ZM369,306.464A4.553,4.553,0,0,1,364.388,311H355.96a27.319,27.319,0,0,0-52.815,0H286V261h30.138c.4,1,.8.113,1.221.113s.825.887,1.222-.113H369ZM324,247V225h13.534a4.473,4.473,0,0,1,3.4,1.318L360.074,247Z"/></svg>
