<?xml version="1.0" encoding="iso-8859-1"?>
<!-- Generator: Adobe Illustrator 16.0.0, SVG Export Plug-In . SVG Version: 6.00 Build 0)  -->
<!DOCTYPE svg PUBLIC "-//W3C//DTD SVG 1.1//EN" "http://www.w3.org/Graphics/SVG/1.1/DTD/svg11.dtd">

<svg xmlns="http://www.w3.org/2000/svg" fill="#040b00" id="Layer_1" data-name="Layer 1" viewBox="0 0 512 512" width="512" height="512">
<title>Logistics company</title><path d="M266.865,250.634a7.011,7.011,0,0,0-11.267,1.491l-16.9,31.44a7,7,0,0,0,6.158,10.316,7.185,7.185,0,0,0,6.292-3.687L255,283.247V343.42a7,7,0,1,0,14,0V273.051l5.69,6.155a6.929,6.929,0,0,0,9.836.284,7,7,0,0,0,.254-9.9Z"/><path d="M41,338.45a7,7,0,0,0-7,7v25.92a7,7,0,0,0,14,0V345.45A7,7,0,0,0,41,338.45Z"/><path d="M69,357.65a7,7,0,0,0-7,7V388a7,7,0,0,0,14,0V364.65A7,7,0,0,0,69,357.65Z"/><path d="M98,376.85a7,7,0,0,0-7,7v20.56a7,7,0,0,0,14,0V383.85A7,7,0,0,0,98,376.85Z"/><path d="M126,396.05a7,7,0,0,0-7,7v17.77a7,7,0,0,0,14,0V403.05A7,7,0,0,0,126,396.05Z"/><path d="M148,437.61a7,7,0,0,0,14,0V422.25a7,7,0,0,0-14,0Z"/><path d="M276.16,353.467l-31.89,18.41a7,7,0,1,0,7,12.125l31.89-18.41a7,7,0,1,0-7-12.125Z"/><path d="M496.67,355.162l-15.97-1.537a82.861,82.861,0,0,0-7.812-18.581l10.133-12.228a7,7,0,0,0-.411-9.384l-19.629-19.88a7,7,0,0,0-9.445-.473l-12.267,10.156a84.686,84.686,0,0,0-18.543-7.837l-1.538-16.019A7.045,7.045,0,0,0,414.22,273H407V135.55a7.03,7.03,0,0,0-3.535-6.081L211.5,18.638a7,7,0,0,0-7,0L12.628,129.415A7,7,0,0,0,9,135.55v240.9a7,7,0,0,0,3.5,6.062l192,110.85a7,7,0,0,0,7.14-.083L317.8,428.649l-.816.985a7,7,0,0,0,.441,9.416l19.88,19.88a7,7,0,0,0,9.416.44l12.264-10.162a84.271,84.271,0,0,0,18.544,7.838l1.538,15.8A6.851,6.851,0,0,0,386.03,479h28.19a6.851,6.851,0,0,0,6.968-6.154l1.537-15.883a82.748,82.748,0,0,0,18.581-7.768l12.228,10.153a7,7,0,0,0,9.416-.429l19.88-19.875a7,7,0,0,0,.441-9.411l-10.157-12.266a84.6,84.6,0,0,0,7.839-18.548l15.726-1.533A7,7,0,0,0,503,390.32V362.13A7,7,0,0,0,496.67,355.162ZM319.126,96.942,141.141,199.7,106.21,179.53,284.191,76.772ZM134,211.624V339.933l-13.195-14.878a7.229,7.229,0,0,0-8.076-1.845L99,328.816V191.648ZM208,32.783l62.191,35.906L92.206,171.449,30.02,135.541Zm-7,442.392L23,372.409V147.654l62,35.917V339.28a7.135,7.135,0,0,0,9.821,6.47l18.654-7.691,22.058,25.046a7.01,7.01,0,0,0,5.262,2.375,7.563,7.563,0,0,0,2.574-.451A7.1,7.1,0,0,0,148,358.48V219.707l53,30.714ZM208,238.3l-52.859-30.518L333.126,105.025,385.98,135.54Zm7,236.546V250.421L393,147.653V273h-6.97a7.045,7.045,0,0,0-6.968,6.379l-1.537,15.99a83.234,83.234,0,0,0-18.58,7.824l-12.231-10.121a7,7,0,0,0-9.414.445L317.42,313.4a7,7,0,0,0-.441,9.417l10.163,12.264a84.218,84.218,0,0,0-7.838,18.545l-15.974,1.537A7,7,0,0,0,297,362.13v28.19a7,7,0,0,0,6.329,6.968l15.967,1.536A82.211,82.211,0,0,0,322.98,409.1Zm274-90.874-14.309,1.394a7,7,0,0,0-6.162,5.483,70.812,70.812,0,0,1-9.862,23.36,7,7,0,0,0,.491,8.258l9.267,11.192-10.867,10.867-11.192-9.273a7,7,0,0,0-8.351-.432,68.215,68.215,0,0,1-23.262,9.8,6.8,6.8,0,0,0-5.49,6L407.861,465H392.389l-1.4-14.386a6.9,6.9,0,0,0-5.49-6.084,70.291,70.291,0,0,1-23.349-9.813,7,7,0,0,0-8.264.511l-11.192,9.284-10.865-10.86,9.274-11.188a7,7,0,0,0,.442-8.335c-1.236-1.863-2.363-3.75-3.35-5.61l0-.01a68.141,68.141,0,0,1-6.456-17.656,7,7,0,0,0-6.171-5.491L311,383.961V368.489l14.56-1.4a7,7,0,0,0,6.171-5.49,70.436,70.436,0,0,1,9.858-23.348,7,7,0,0,0-.488-8.266l-9.274-11.192,10.867-10.866,11.192,9.265a7,7,0,0,0,8.344.434,68.619,68.619,0,0,1,23.274-9.8,7.058,7.058,0,0,0,5.483-6.22l1.4-14.6h15.472l1.4,14.6a7.029,7.029,0,0,0,5.483,6.195,70.854,70.854,0,0,1,23.361,9.875,7,7,0,0,0,8.257-.486l11.16-9.236L468.2,318.76l-9.3,11.223a7,7,0,0,0-.431,8.353,68.229,68.229,0,0,1,9.8,23.261,7,7,0,0,0,6.171,5.491l14.56,1.4Z"/><path d="M400.13,319.22a57,57,0,1,0,57,57A57.065,57.065,0,0,0,400.13,319.22Zm0,100a43,43,0,1,1,43-43A43.048,43.048,0,0,1,400.13,419.22Z"/></svg>
