<?xml version="1.0" encoding="iso-8859-1"?>
<!-- Generator: Adobe Illustrator 16.0.0, SVG Export Plug-In . SVG Version: 6.00 Build 0)  -->
<!DOCTYPE svg PUBLIC "-//W3C//DTD SVG 1.1//EN" "http://www.w3.org/Graphics/SVG/1.1/DTD/svg11.dtd">

<svg xmlns="http://www.w3.org/2000/svg" fill="#040b00" id="Layer_1" data-name="Layer 1" viewBox="0 0 512 512" width="512" height="512">
<title>Logistic product idea</title><path d="M424.239,259.677a164.835,164.835,0,0,0-3.916-159.711C392,51.27,341.724,21,285.828,18.991q-2.275-.081-4.564-.107A177.085,177.085,0,0,0,102.422,186.2c-.18,2.945-.255,26.969-.275,34.455l-32.183,84.3a14.845,14.845,0,0,0,1.611,13.594A14.7,14.7,0,0,0,83.567,325H127v48.549a44.534,44.534,0,0,0,45.918,44.764c1.139-.035,9.017-.313,49.451-.313h.074A17.1,17.1,0,0,1,239,430.449v55.678A7,7,0,0,0,246.118,493H397.9a6.9,6.9,0,0,0,6.988-7.32c-.06-1-5.9-101.165-.018-164.332C406.449,304.375,422.662,263.612,424.239,259.677ZM390.93,320c-5.038,54.108-1.644,135-.413,159H253V429.509a7.122,7.122,0,0,0-.153-1.732A31.307,31.307,0,0,0,222.444,404h-.133c-30.962,0-47.752.252-49.9.32A30.55,30.55,0,0,1,141,373.549V317.714c0-3.866-3.417-6.714-7.283-6.714H83.567a.856.856,0,0,1-.462-.385.65.65,0,0,1-.061-.59l32.641-85.534a7.136,7.136,0,0,0,.46-2.5c.029-12.38.123-32.816.254-34.975A163.086,163.086,0,0,1,281.112,32.886q2.113.023,4.211.1a145.465,145.465,0,0,1,72.748,22.03,151.832,151.832,0,0,1,53.6,198.5c-.1.2-.2.4-.283.613C410.626,256,392.772,300.21,390.93,320Z"/><path d="M284.766,48.789A116.311,116.311,0,1,0,401.076,165.1,116.443,116.443,0,0,0,284.766,48.789Zm0,218.621A102.311,102.311,0,1,1,387.076,165.1,102.427,102.427,0,0,1,284.766,267.41Z"/><path d="M281.266,78.208l-69.883,40.415A6.9,6.9,0,0,0,208,124.686v80.829a6.893,6.893,0,0,0,3.383,6.062l69.941,40.414a6.917,6.917,0,0,0,6.956,0l70.11-40.414a7.1,7.1,0,0,0,3.61-6.062V124.686a7.113,7.113,0,0,0-3.617-6.063L288.324,78.208A7.111,7.111,0,0,0,281.266,78.208ZM278,233.8l-56-32.33V136.8l56,32.331Zm70-32.33L292,233.8V169.135L348,136.8Zm-7.239-76.792-55.995,32.329L263.08,144.49l56-32.328Zm-91.682,11.725-20.308-11.725,56-32.328,20.308,11.725Z"/></svg>
