<?xml version="1.0" encoding="iso-8859-1"?>
<!-- Generator: Adobe Illustrator 16.0.0, SVG Export Plug-In . SVG Version: 6.00 Build 0)  -->
<!DOCTYPE svg PUBLIC "-//W3C//DTD SVG 1.1//EN" "http://www.w3.org/Graphics/SVG/1.1/DTD/svg11.dtd">

<svg xmlns="http://www.w3.org/2000/svg" fill="#040b00" id="Layer_1" data-name="Layer 1" viewBox="0 0 512 512" width="512" height="512">
<title>Logistics Application</title><path d="M79.545,498H245.7c9.374,0,17.3-8.126,17.3-17.5V428.636c0-9.374-7.928-16.636-17.3-16.636H240V399.922a41.688,41.688,0,0,0,35-41.045V335H422.455C437.343,335,449,322.388,449,307.5V41.5A26.221,26.221,0,0,0,422.455,15h-200C207.567,15,195,26.612,195,41.5V149l-91.545,73.08a6.229,6.229,0,0,0-.578.571A41.341,41.341,0,0,0,91,251.826V412H79.545A16.327,16.327,0,0,0,63,428.636V480.5C63,489.874,70.171,498,79.545,498ZM209,41.5c0-7.168,6.287-12.5,13.455-12.5h200A12.214,12.214,0,0,1,435,41.5v266c0,7.168-5.377,13.5-12.545,13.5h-200A13.847,13.847,0,0,1,209,307.5V289.72l16-16v.779a7.843,7.843,0,0,0,7.455,7.5h180c3.866,0,6.545-3.634,6.545-7.5V54.5a6.213,6.213,0,0,0-6.545-6.5h-180C228.589,48,225,50.634,225,54.5V205.058c0,.042-.116.079-.172.123L209,217.714Zm31.359,170.341L239,210.6V62H405V268H239v-8.279l1.474-1.246A33.013,33.013,0,0,0,240.359,211.841ZM105,251.826a27.314,27.314,0,0,1,7.47-19.075L195,166.9v61.9l-53.121,42.242a6.986,6.986,0,0,0-1.029,9.833,7.07,7.07,0,0,0,9.891,1.143l78.318-61.99,1.727,1.714a19,19,0,0,1,.008,26.834L194.062,285.31a7.007,7.007,0,0,0-2.036,4.544l-.463,8.01c-.007.135-.01.27-.01.405a41.438,41.438,0,0,0,4.093,17.71,40,40,0,0,1-2.694,39.015,6.818,6.818,0,0,0-.952,3.883v17.317a7,7,0,0,0,14,0V360.916a54.6,54.6,0,0,0,7.593-27.743A25.782,25.782,0,0,0,222.455,335H261v23.877a27.822,27.822,0,0,1-27.816,27.633,7.159,7.159,0,0,0-7.184,7V412H105ZM77,429a3,3,0,0,1,3-3H246a3,3,0,0,1,3,3v52a3,3,0,0,1-3,3H80a3,3,0,0,1-3-3Z"/><path d="M333.181,292H311.73a7,7,0,0,0,0,14h21.451a7,7,0,1,0,0-14Z"/><path d="M258.728,205.2l60.114,34.641a7.189,7.189,0,0,0,3.556.938,7.092,7.092,0,0,0,3.529-.938L385.713,205.2A6.808,6.808,0,0,0,389,199.141V129.859a6.8,6.8,0,0,0-3.272-6.062L325.842,89.156a6.893,6.893,0,0,0-6.944,0L258.7,123.8a7.191,7.191,0,0,0-3.7,6.062v69.282A7.22,7.22,0,0,0,258.728,205.2ZM375,195.1l-46,26.558V168.536l46-26.558Zm-6.549-65.243-46,26.555-16.588-9.577,46-26.556Zm-46-26.556,15.408,8.9-46,26.555-15.408-8.9ZM269,141.978l46,26.558v53.122L269,195.1Z"/></svg>
