<?xml version="1.0" encoding="iso-8859-1"?>
<!-- Generator: Adobe Illustrator 16.0.0, SVG Export Plug-In . SVG Version: 6.00 Build 0)  -->
<!DOCTYPE svg PUBLIC "-//W3C//DTD SVG 1.1//EN" "http://www.w3.org/Graphics/SVG/1.1/DTD/svg11.dtd">

<svg xmlns="http://www.w3.org/2000/svg" fill="#040b00" id="Layer_1" data-name="Layer 1" viewBox="0 0 512 512" width="512" height="512">
<title>Mobile</title><path d="M159.843,440h46.466a7,7,0,0,0,0-14H159.843a7,7,0,1,0,0,14Z"/><path d="M184.3,287.607A49.778,49.778,0,1,0,134.52,237.83,49.834,49.834,0,0,0,184.3,287.607Zm0-85.555A35.778,35.778,0,1,1,148.52,237.83,35.818,35.818,0,0,1,184.3,202.052Z"/><path d="M107.726,490h150.7C289.983,490,316,464.566,316,433.008V246.373l4.156-2.561A112.836,112.836,0,1,0,293.5,36.074,57.064,57.064,0,0,0,258.426,24h-150.7C76.167,24,50,49.816,50,81.374V433.008C50,464.566,76.167,490,107.726,490ZM296.443,50.646a98.855,98.855,0,1,1,24.509,178.907,6.984,6.984,0,0,0-5.531.693L265.1,260.021l19.36-43.667a7,7,0,0,0-1.733-8.055A98.866,98.866,0,0,1,296.443,50.646ZM64,81.374C64,57.535,83.887,38,107.726,38h150.7a43.053,43.053,0,0,1,22.4,6.247A112.86,112.86,0,0,0,248.1,83H64ZM64,97H242.111a114.6,114.6,0,0,0-6.335,37.542,113.079,113.079,0,0,0,33.874,80.641l-26.215,59.151a7.011,7.011,0,0,0,6.4,9.852,7.6,7.6,0,0,0,3.733-.973L302,254.658V376H266.516a83.984,83.984,0,0,0-166.881,0H64ZM252.406,376H113.744a69.984,69.984,0,0,1,138.662,0ZM64,390H302v43.008C302,456.847,282.265,476,258.426,476h-150.7C83.887,476,64,456.847,64,433.008Z"/><path d="M285.32,173.679l59.911,34.64a6.838,6.838,0,0,0,3.456.938,6.914,6.914,0,0,0,3.477-.938l60.168-34.64A7.163,7.163,0,0,0,416,167.616V98.334a7.175,7.175,0,0,0-3.68-6.063l-60.089-34.64a7.084,7.084,0,0,0-7.044,0l-59.844,34.64A6.859,6.859,0,0,0,282,98.334v69.282A6.839,6.839,0,0,0,285.32,173.679ZM402,163.575l-46,26.558V137.012l46-26.558Zm-7.362-65.244-46,26.557-16.588-9.578,46-26.555Zm-46-26.555,15.407,8.9-46,26.555-15.407-8.9ZM296,110.454l46,26.558v53.121l-46-26.558Z"/></svg>
