<?xml version="1.0" encoding="iso-8859-1"?>
<!-- Generator: Adobe Illustrator 16.0.0, SVG Export Plug-In . SVG Version: 6.00 Build 0)  -->
<!DOCTYPE svg PUBLIC "-//W3C//DTD SVG 1.1//EN" "http://www.w3.org/Graphics/SVG/1.1/DTD/svg11.dtd">

<svg xmlns="http://www.w3.org/2000/svg" fill="#040b00" id="Layer_1" data-name="Layer 1" viewBox="0 0 512 512" width="512" height="512">
<title>Monitor Package</title><path d="M224.361,265.567a59.889,59.889,0,0,0,58.693-72.018,7,7,0,0,0-11.667-3.673,19.457,19.457,0,0,1-27.1-27.916c.375-.375.8-.767,1.278-1.165a7,7,0,0,0-2.3-12,59.92,59.92,0,1,0-18.9,116.771Zm-32.476-92.379a45.676,45.676,0,0,1,32.371-13.481q2.142,0,4.294.2a33.5,33.5,0,0,0,41.73,47.005,45.932,45.932,0,1,1-78.395-33.726Z"/><path d="M225.183,300.66a93.011,93.011,0,1,0-93.011-93.011A93.116,93.116,0,0,0,225.183,300.66Zm0-172.022a79.011,79.011,0,1,1-79.011,79.011A79.1,79.1,0,0,1,225.183,128.638Z"/><path d="M93.765,308.873a243.328,243.328,0,0,0,199.1,27.823,107,107,0,1,0,136.3-103.266,243.073,243.073,0,0,0,12.7-22.7,7,7,0,0,0,0-6.167,242.774,242.774,0,0,0-436.007,0,7,7,0,0,0,0,6.167A243.362,243.362,0,0,0,93.765,308.873Zm399.094,27.478a93,93,0,1,1-93-93A93.105,93.105,0,0,1,492.859,336.351ZM101.279,118.239a228.773,228.773,0,0,1,326.474,89.41,229.623,229.623,0,0,1-13.293,22.7,107.008,107.008,0,0,0-120.6,91.385A228.829,228.829,0,0,1,19.967,207.649,229.369,229.369,0,0,1,101.279,118.239Z"/><path d="M336.438,295.648A6.941,6.941,0,0,0,333,301.71v69.282a6.935,6.935,0,0,0,3.43,6.062L396.4,411.7a6.949,6.949,0,0,0,6.973,0l60.066-34.641A7.062,7.062,0,0,0,467,370.992V301.71a7.065,7.065,0,0,0-3.57-6.062L403.4,261.007a7.031,7.031,0,0,0-7.018,0ZM393,393.508,347,366.95V313.829l46,26.558Zm60-26.558-46,26.558V340.387l46-26.558Zm-7.145-65.242-46,26.555-16.588-9.577,46-26.556Zm-30.588-17.661-46,26.556-15.408-8.895,46-26.556Z"/></svg>
