<?xml version="1.0" encoding="iso-8859-1"?>
<!-- Generator: Adobe Illustrator 16.0.0, SVG Export Plug-In . SVG Version: 6.00 Build 0)  -->
<!DOCTYPE svg PUBLIC "-//W3C//DTD SVG 1.1//EN" "http://www.w3.org/Graphics/SVG/1.1/DTD/svg11.dtd">

<svg xmlns="http://www.w3.org/2000/svg" fill="#040b00" id="Layer_1" data-name="Layer 1" viewBox="0 0 512 512" width="512" height="512">
<title>On time delivery1</title><path d="M85,397.225v55.786a37.136,37.136,0,0,0-35.97,37.078A6.9,6.9,0,0,0,56,497H366.047a6.878,6.878,0,0,0,6.945-6.911A37.154,37.154,0,0,0,337,453.011V396.692c0-54.82-35.406-101.477-84.439-118.577a126.4,126.4,0,0,0,64.941-51.4A109.109,109.109,0,1,0,266.239,59H56a7.018,7.018,0,0,0-6.97,7.051A37.26,37.26,0,0,0,85,103.269v56.319a126,126,0,0,0,84.217,118.555A126.006,126.006,0,0,0,85,397.225ZM357.968,483H64.079A23.558,23.558,0,0,1,86.2,467H335.849A23.558,23.558,0,0,1,357.968,483ZM138.887,453l47.069-47.62a33.716,33.716,0,0,1,47.621-.271L280.924,453ZM353.927,28.822A95.074,95.074,0,1,1,258.853,123.9,95.181,95.181,0,0,1,353.927,28.822ZM64.079,73H257.427a130.207,130.207,0,0,0-6.948,16H86.2A23.557,23.557,0,0,1,64.079,73ZM99,159.533V103H246.812a115.394,115.394,0,0,0-1.959,20.93A110.817,110.817,0,0,0,260.8,181H100.966A116.77,116.77,0,0,1,99,159.533Zm32.864,79.141A113.23,113.23,0,0,1,104.605,195H270.971A107.182,107.182,0,0,0,304.5,221.223,111.778,111.778,0,0,1,211.521,271h-.8A110.805,110.805,0,0,1,131.864,238.674ZM210.526,285h.8C272.854,285,323,335.157,323,396.708V453H300.61L243.8,395.531l-.377-.382A47.733,47.733,0,0,0,176,395.54L119.2,453H99V397.209A111.895,111.895,0,0,1,210.526,285Z"/><path d="M290.463,164.6l59.982,34.641a6.975,6.975,0,0,0,6.987,0L417.466,164.6A7.032,7.032,0,0,0,421,158.537V89.255a7.033,7.033,0,0,0-3.537-6.062L357.445,48.552a7.014,7.014,0,0,0-7.009,0L290.468,83.193A6.969,6.969,0,0,0,287,89.255v69.282A6.966,6.966,0,0,0,290.463,164.6ZM407,154.5l-46,26.558V127.932l46-26.558Zm-7.077-65.242-46,26.555-16.589-9.577,46-26.556Zm-46-26.556,15.407,8.895-46,26.556-15.407-8.895ZM301,101.374l46,26.558v53.121L301,154.5Z"/></svg>
