<?xml version="1.0" encoding="iso-8859-1"?>
<!-- Generator: Adobe Illustrator 16.0.0, SVG Export Plug-In . SVG Version: 6.00 Build 0)  -->
<!DOCTYPE svg PUBLIC "-//W3C//DTD SVG 1.1//EN" "http://www.w3.org/Graphics/SVG/1.1/DTD/svg11.dtd">

<svg xmlns="http://www.w3.org/2000/svg" fill="#040b00" id="Layer_1" data-name="Layer 1" viewBox="0 0 512 512" width="512" height="512">
<title>On time Delivery</title><path d="M477.691,290.6c-.007-.108-.018-.215-.032-.322s-.033-.235-.054-.353-.041-.221-.065-.33-.055-.223-.086-.333-.062-.219-.1-.326-.076-.216-.118-.323-.083-.209-.129-.312-.1-.208-.149-.311-.105-.2-.16-.3-.115-.195-.177-.291-.129-.2-.2-.3-.127-.174-.195-.26-.158-.2-.241-.292c-.039-.044-.071-.09-.111-.133l-62.9-68.382A31.339,31.339,0,0,0,389.83,208H319V174.04c0-17.325-14.354-31.04-31.68-31.04H259.032a87,87,0,0,0-173.785,0H65.7C48.375,143,34,156.715,34,174.04V377.92C34,395.245,48.375,409,65.7,409H89.722a49.728,49.728,0,0,0,98.466,0H335.112a49.722,49.722,0,0,0,98.456,0H446.3c17.325,0,31.7-13.755,31.7-31.08V291.15c0-.059-.146-.115-.148-.173C477.848,290.85,477.7,290.724,477.691,290.6ZM172.14,73.93a73.083,73.083,0,0,1,73,73c0,.795-.008,1.59-.046,2.459a72.995,72.995,0,0,1-145.907,0l0-.083c-.036-.786-.044-1.581-.044-2.376A73.083,73.083,0,0,1,172.14,73.93ZM138.95,438.07a35.73,35.73,0,1,1,35.74-35.73A35.77,35.77,0,0,1,138.95,438.07ZM305,291.15V395H188.188a49.728,49.728,0,0,0-98.466,0H65.7C56.1,395,48,387.525,48,377.92V174.04C48,164.435,56.1,157,65.7,157h20a87,87,0,0,0,172.878,0H287.32c9.606,0,17.68,7.435,17.68,17.04ZM319,222h70.83a17.242,17.242,0,0,1,12.833,5.424L454.793,284H319Zm65.34,216.07a35.73,35.73,0,1,1,35.73-35.73A35.771,35.771,0,0,1,384.34,438.07ZM464,377.92c0,9.6-8.1,17.08-17.7,17.08H433.568a49.722,49.722,0,0,0-98.456,0H319V298H464Z"/><path d="M194.056,177.04a6.977,6.977,0,1,0,9.5-10.22L179,143.9V95.05a7,7,0,0,0-14,0v51.88a7.066,7.066,0,0,0,2.285,5.11Z"/></svg>
