<?xml version="1.0" encoding="iso-8859-1"?>
<!-- Generator: Adobe Illustrator 16.0.0, SVG Export Plug-In . SVG Version: 6.00 Build 0)  -->
<!DOCTYPE svg PUBLIC "-//W3C//DTD SVG 1.1//EN" "http://www.w3.org/Graphics/SVG/1.1/DTD/svg11.dtd">

<svg xmlns="http://www.w3.org/2000/svg" fill="#040b00" id="Layer_1" data-name="Layer 1" viewBox="0 0 512 512" width="512" height="512">
<title>Operator Logistic</title><path d="M83.09,466H268.979c16.913,22,43.908,37.131,74.265,37.131a92.751,92.751,0,0,0,0-185.5,91.093,91.093,0,0,0-42.776,10.615L260,310.866v-5.082c12,.986,26.808,1.216,27.519,1.216h0a7.1,7.1,0,0,0,5.769-3.137l3.553-5.221,1.364,3.425a7,7,0,0,0,6.958,4.4c21.777-1.4,35.478-4.729,36.05-4.87a7.16,7.16,0,0,0,5.1-8.919L323,218.876V206h1.738C338.455,206,350,195.175,350,181.458V180h4.729a7,7,0,1,0,0-14H350v-.379c0-11.947-9-21.951-20-24.335V120.645a111.65,111.65,0,1,0-223.294,1.233l.225,20.9a24.633,24.633,0,0,0-15.663,17.487,30.779,30.779,0,0,0,16.488,35.02l-30.9,97.393a7,7,0,0,0,5,8.915c1.171.288,22.984,5.48,54.988,5.48,7.745,0,16.16-.31,25.16-1.061v4.856L107.9,333.86c-.128.055-.371.114-.5.177a57.192,57.192,0,0,0-31.276,46.044c-.016.193-.126.387-.126.581v78A7.374,7.374,0,0,0,83.09,466ZM227,388H215.06a7,7,0,1,0,0,14H227v16H215.06a7,7,0,1,0,0,14H227v20H188V357.347A106.573,106.573,0,0,0,210.217,360h.306A105.6,105.6,0,0,0,227,358.417Zm116.244-56.371A78.666,78.666,0,1,1,264.577,410.3,78.755,78.755,0,0,1,343.244,331.629Zm-57.183,5.794a92.888,92.888,0,0,0-35.485,73.042A94.551,94.551,0,0,0,260.34,452H241V355.374a112.533,112.533,0,0,0,39.22-20.443ZM256.693,264H216.307A4.307,4.307,0,0,1,212,259.693v-4.386A4.307,4.307,0,0,1,216.307,251h40.386A4.307,4.307,0,0,1,261,255.307v4.386A4.307,4.307,0,0,1,256.693,264ZM246,285.015V311.2c-23,9.606-48,9.606-70,0V285.184c10,4.014,22.556,6.213,34.766,6.213C222.87,291.4,234,289.21,246,285.015Zm84.506,4.355c-4.944.855-12.193,2-21.169,2.74l-4.3-10.89a7,7,0,0,0-12.278-1.392l-8.644,12.934c-5.358-.07-16.111-.3-24.111-1.024V278.5c1-.6,1.887-1.226,2.938-1.872.149-.091.164-.359.3-.46A17.376,17.376,0,0,0,273.915,264h20.326a28.406,28.406,0,0,0,24.09-13.084ZM291.674,250A94.71,94.71,0,0,0,309,217.745v18.029C309,243.8,302.269,250,294.241,250ZM336,165.621v15.837c0,6-5.264,10.542-11.262,10.542H311V155h13.738C330.736,155,336,159.624,336,165.621ZM148.894,52.009A97.6,97.6,0,0,1,256.432,30.8C234.539,55.714,205.9,71.767,171.177,78.549a179.084,179.084,0,0,1-42.433,3.122A97.582,97.582,0,0,1,148.894,52.009ZM271.942,58.96a7,7,0,0,0-9.828,1.184c-22.477,28.634-53.96,46.563-93.573,53.286a195.016,195.016,0,0,1-47.719,2.117,97.64,97.64,0,0,1,3.135-20.137c3.134.247,7.49.48,12.824.48a194.952,194.952,0,0,0,36.556-3.5c47.953-9.226,78.257-34.1,95.928-54.986A97.68,97.68,0,0,1,316,120.645V141H303.881A6.685,6.685,0,0,0,297,147.744v22.475c-14-2.832-40.943-11.918-48.755-39.51a95.814,95.814,0,0,0,20-22.473,7.01,7.01,0,0,0-11.8-7.567c-28.227,43.941-88.148,47.387-135.52,41.867l-.145-12.929c3.863.3,8.951.568,14.991.568a211.116,211.116,0,0,0,34.628-2.861c42.763-7.151,78.286-27.389,102.726-58.525A7,7,0,0,0,271.942,58.96ZM104.381,167.593a16.808,16.808,0,0,1,.483-4,10.656,10.656,0,0,1,8.019-7.992,6.977,6.977,0,0,0,.717.133,305.666,305.666,0,0,0,40.273,2.831c33.331,0,61.022-6.556,82.353-19.428,6.02,16.5,18.486,29.455,36.463,37.773A98.88,98.88,0,0,0,297,184.487v14.847a6.943,6.943,0,0,0,.4,2.481c-1.291,17.083-8.614,31.725-23.669,47.8A18.368,18.368,0,0,0,256.313,237H216.036A18.1,18.1,0,0,0,198,255.31v4.045a18.207,18.207,0,0,0,14.913,18c-.829.023-1.731.042-2.562.042A86.437,86.437,0,0,1,124,191.121v-.142a7,7,0,0,0-5.787-6.9A16.7,16.7,0,0,1,104.381,167.593ZM148.61,292.809l2.837-12.394a7.041,7.041,0,0,0-13.7-3.243l-3.789,15.853a265.519,265.519,0,0,1-41.382-3.58l22.083-68.889A98.749,98.749,0,0,0,162,278.729v13.23C157,292.362,152.864,292.636,148.61,292.809ZM168.2,323.25a102.474,102.474,0,0,0,84.658,0l12.5,5.333a97.04,97.04,0,0,1-109.653,0ZM90,380.965c1-14.589,10.251-27.7,23.322-34.315l27.493-11.711A110.273,110.273,0,0,0,174,353.45V452H90Z"/><path d="M162,206.537a7,7,0,0,0,7-7V184.545a7,7,0,1,0-14,0v14.992A7,7,0,0,0,162,206.537Z"/><path d="M258,206.537a7,7,0,0,0,7-7V184.545a7,7,0,1,0-14,0v14.992A7,7,0,0,0,258,206.537Z"/><path d="M289.446,445.429,339.771,474.5a6.962,6.962,0,0,0,6.98,0l50.55-29.071a7.192,7.192,0,0,0,3.7-6.062V381.225a7.194,7.194,0,0,0-3.7-6.062l-50.453-29.071a7.093,7.093,0,0,0-7.05,0l-50.324,29.071A6.972,6.972,0,0,0,286,381.225v58.142A6.95,6.95,0,0,0,289.446,445.429ZM387,435.325l-37,20.988v-41.98l37-20.988Zm-7.408-54.1-36.348,20.985-11.67-6.737,36.348-20.986Zm-36.348-20.986,10.679,6.165-36.349,20.986L306.9,381.223ZM300,393.345l36,20.988v41.98l-36-20.988Z"/></svg>
