<?xml version="1.0" encoding="iso-8859-1"?>
<!-- Generator: Adobe Illustrator 16.0.0, SVG Export Plug-In . SVG Version: 6.00 Build 0)  -->
<!DOCTYPE svg PUBLIC "-//W3C//DTD SVG 1.1//EN" "http://www.w3.org/Graphics/SVG/1.1/DTD/svg11.dtd">

<svg xmlns="http://www.w3.org/2000/svg" fill="#040b00" id="Layer_1" data-name="Layer 1" viewBox="0 0 512 512" width="512" height="512">
<title>Package cost</title><path d="M364.461,91.716a7,7,0,0,0,11.469-8.043,144.069,144.069,0,0,0-208.584-29.53L146.607,33.405a6.726,6.726,0,0,0-7.457-1.518A6.845,6.845,0,0,0,135,38.354V88.513c0,3.866,2.791,7.487,6.657,7.487h50.159a7.273,7.273,0,0,0,4.951-12.315L177.312,64.17A130.024,130.024,0,0,1,364.461,91.716ZM149,82V55.253L161.855,68.28c.008.008-.073.016-.066.024.185.208.338.642.541.822L174.917,82Z"/><path d="M147.309,420.284a7,7,0,0,0-11.469,8.041,144.07,144.07,0,0,0,208.585,29.532L365.163,478.6a7,7,0,0,0,4.952,2.051,6.7,6.7,0,0,0,2.62-.533A6.947,6.947,0,0,0,377,473.646V423.487c0-3.866-3.021-7.487-6.887-7.487H319.954A7.272,7.272,0,0,0,315,428.315l19.454,19.515a130.024,130.024,0,0,1-187.149-27.546ZM363,430v26.747L350.029,443.72c-.007-.008.017-.016.01-.024-.184-.207-.365-.64-.568-.82L336.854,430Z"/><path d="M399.408,150.487a102,102,0,1,0,102,102A102.116,102.116,0,0,0,399.408,150.487Zm0,190a88,88,0,1,1,88-88A88.1,88.1,0,0,1,399.408,340.487Z"/><path d="M399.626,210.352a17.311,17.311,0,0,1,17.292,17.292,7,7,0,0,0,7,7,7.162,7.162,0,0,0,7.187-7A31.065,31.065,0,0,0,407,197.151v-7.146a7,7,0,0,0-14,0v7.146a31.265,31.265,0,0,0,6.72,61.784,17.287,17.287,0,0,1,.1,34.574c-.056,0-.124-.009-.18-.009s-.118.008-.175.009a17.308,17.308,0,0,1-17.125-17.282,7,7,0,0,0-7-7,6.844,6.844,0,0,0-6.814,7A31.391,31.391,0,0,0,393,306.718v8.252a7,7,0,0,0,14,0v-8.252a31.063,31.063,0,0,0,24.105-30.491,31.406,31.406,0,0,0-31.385-31.292,17.292,17.292,0,0,1-.094-34.583Z"/><path d="M17.592,229H27V331.747A7.114,7.114,0,0,0,33.873,339h167.68A7.614,7.614,0,0,0,209,331.747V229h8.592A7.557,7.557,0,0,0,225,221.771V180.253A7.578,7.578,0,0,0,217.592,173h-200C13.726,173,11,176.387,11,180.253v41.518C11,225.638,13.726,229,17.592,229ZM195,325H41V229H88v49.1a7.3,7.3,0,0,0,10.986,5.987L117.41,272.96l18.949,11.17a7.048,7.048,0,0,0,3.575.972,7.125,7.125,0,0,0,3.5-.921A7.031,7.031,0,0,0,147,278.1V229h48Zm-93-59.325V229h31v36.841l-11.992-7.065a7.463,7.463,0,0,0-7.439.041ZM25,187H211v28H25Z"/></svg>
