<?xml version="1.0" encoding="iso-8859-1"?>
<!-- Generator: Adobe Illustrator 16.0.0, SVG Export Plug-In . SVG Version: 6.00 Build 0)  -->
<!DOCTYPE svg PUBLIC "-//W3C//DTD SVG 1.1//EN" "http://www.w3.org/Graphics/SVG/1.1/DTD/svg11.dtd">

<svg xmlns="http://www.w3.org/2000/svg" fill="#040b00" id="Layer_1" data-name="Layer 1" viewBox="0 0 512 512" width="512" height="512">
<title>Package industry</title><path d="M486.672,171l-29.886-2.88A133.545,133.545,0,0,0,441.707,132.3l19.016-22.963a7,7,0,0,0-.41-9.382L427.545,66.766a7,7,0,0,0-9.446-.474L395.091,85.346a136.405,136.405,0,0,0-35.778-15.113l-2.881-29.9A7.007,7.007,0,0,0,349.464,34H302.412a7.007,7.007,0,0,0-6.968,6.336l-2.88,29.89a133.537,133.537,0,0,0-35.823,15.081L233.778,66.292a7,7,0,0,0-9.415.441l-33.188,33.19a7,7,0,0,0-.442,9.414l19.054,23.008c-.434.725-.852,1.455-1.271,2.184l-28.761-16.6a7,7,0,0,0-7,0L22.5,204.673a7,7,0,0,0-3.5,6.062v173.5a7,7,0,0,0,3.5,6.062l150.255,86.75a7,7,0,0,0,7,0l150.5-86.75A7.238,7.238,0,0,0,334,384.234V369h15.464a7.01,7.01,0,0,0,6.968-6.339l2.881-29.89a133.553,133.553,0,0,0,35.823-15.082L418.1,336.7a7,7,0,0,0,9.414-.442L460.7,303.073a7,7,0,0,0,.442-9.415L442.09,270.65a136.416,136.416,0,0,0,15.115-35.784l29.475-2.876a7,7,0,0,0,6.32-6.967V177.971A7,7,0,0,0,486.672,171ZM176.255,132.069,235.9,166.5,99.654,245.165,40.01,210.73ZM169,458.86,33,380.193V222.848l136,78.666Zm7.255-169.47-62.6-36.143L249.9,174.587l62.6,36.143ZM320,380.193,183,458.86V301.514l137-78.666Zm10.255-175.52-77.83-44.864A84.951,84.951,0,0,1,326,116.889c46.653,0,84.823,37.955,84.823,84.609A84.617,84.617,0,0,1,334,285.75V210.735A7.239,7.239,0,0,0,330.255,204.673Zm148.745,14-28.129,2.745a7,7,0,0,0-6.162,5.487A122.56,122.56,0,0,1,427.6,267.441a7,7,0,0,0,.491,8.26l18.2,21.978L422.12,321.855l-21.979-18.2a7,7,0,0,0-8.348-.433,118.887,118.887,0,0,1-40.447,17.048,7.01,7.01,0,0,0-5.488,6.18L343.107,355H334V299.819c50-3.879,90.792-46.5,90.792-98.321,0-54.373-44.358-98.609-98.731-98.609a99.212,99.212,0,0,0-85.82,49.921l-19.572-11.282c1.155-2.008,2.35-4.008,3.619-5.974a7,7,0,0,0-.5-8.26l-18.2-21.978L229.758,81.14l21.978,18.2a7,7,0,0,0,8.348.433,118.874,118.874,0,0,1,40.447-17.047,7.009,7.009,0,0,0,5.488-6.179L308.77,48h34.337l2.751,28.548a7,7,0,0,0,5.488,6.175A122.574,122.574,0,0,1,391.882,99.83a7,7,0,0,0,8.259-.49l21.947-18.175L445.9,105.284l-18.227,22.01a7,7,0,0,0-.433,8.348,118.887,118.887,0,0,1,17.047,40.448,7,7,0,0,0,6.17,5.488L479,184.329Z"/></svg>
