<?xml version="1.0" encoding="iso-8859-1"?>
<!-- Generator: Adobe Illustrator 16.0.0, SVG Export Plug-In . SVG Version: 6.00 Build 0)  -->
<!DOCTYPE svg PUBLIC "-//W3C//DTD SVG 1.1//EN" "http://www.w3.org/Graphics/SVG/1.1/DTD/svg11.dtd">

<svg xmlns="http://www.w3.org/2000/svg" fill="#040b00" id="Layer_1" data-name="Layer 1" viewBox="0 0 512 512" width="512" height="512">
<title>Package</title><path d="M459,254.609C459,366.372,368.075,457.3,256.313,457.3a200.8,200.8,0,0,1-116.532-36.834l28.335-38.457a7,7,0,0,0-6.537-11.094l-67.768,8.8a7,7,0,0,0-6,8.138l11.673,67.333a7,7,0,0,0,12.533,2.957l19.455-26.406a216.749,216.749,0,0,0,324.848-260.6,7,7,0,0,0-12.916,5.4A201.313,201.313,0,0,1,459,254.609ZM124.442,417.68c-.019.024-.041.046-.06.07-.031.042-.056.085-.086.127L110.48,436.628l-7.623-43.973,44.258-5.748Z"/><path d="M62.137,345.171a7,7,0,0,0,6.455-9.7A201.313,201.313,0,0,1,53,257.391C53,145.628,143.925,54.7,255.687,54.7A200.8,200.8,0,0,1,372.219,91.538L343.884,130a7,7,0,0,0,6.537,11.094l67.768-8.8a7,7,0,0,0,6-8.138L412.512,56.817a7,7,0,0,0-12.533-2.957L380.524,80.266A216.749,216.749,0,0,0,55.676,340.87,7,7,0,0,0,62.137,345.171ZM387.558,94.32c.019-.024.041-.046.06-.07.031-.042.056-.085.086-.127L401.52,75.372l7.623,43.973-44.258,5.748Z"/><path d="M252.5,406.4a7,7,0,0,0,7,0l125-72.168a7,7,0,0,0,3.5-6.062V183.831a7,7,0,0,0-3.5-6.062L259.5,105.6a7,7,0,0,0-7,0l-125,72.168a7,7,0,0,0-3.5,6.062V328.169a7,7,0,0,0,3.5,6.062ZM374,324.127,263,388.213V260.031l111-64.086Zm-7.008-140.3L256,247.907,206.274,219.2l110.991-64.081ZM256,119.746l47.266,27.288L192.274,211.115l-47.266-27.289Zm-118,76.2,111,64.086V388.213L138,324.127Z"/></svg>
