<?xml version="1.0" encoding="iso-8859-1"?>
<!-- Generator: Adobe Illustrator 16.0.0, SVG Export Plug-In . SVG Version: 6.00 Build 0)  -->
<!DOCTYPE svg PUBLIC "-//W3C//DTD SVG 1.1//EN" "http://www.w3.org/Graphics/SVG/1.1/DTD/svg11.dtd">

<svg xmlns="http://www.w3.org/2000/svg" fill="#040b00" id="Layer_1" data-name="Layer 1" viewBox="0 0 512 512" width="512" height="512">
<title>Package bill rupees</title><path d="M86,429H271.012A98.977,98.977,0,1,0,345,292.466V142a7,7,0,0,0-2.05-4.95l-112-112A7,7,0,0,0,226,23H86A35.04,35.04,0,0,0,51,58V394A35.04,35.04,0,0,0,86,429ZM362,305a84.9,84.9,0,1,1-22.181,2.921A85.1,85.1,0,0,1,362,305ZM233,46.9,321.1,135H254a21.024,21.024,0,0,1-21-21ZM65,58A21.024,21.024,0,0,1,86,37H219v77a35.04,35.04,0,0,0,35,35h77V295.971A99.048,99.048,0,0,0,266.2,415H86a21.024,21.024,0,0,1-21-21Z"/><path d="M320,371a7,7,0,0,0,7,7h41.973c-2.97,10-11.682,16-21.943,16H327a7.208,7.208,0,0,0-4.808,12.372l50.064,47.356a6.983,6.983,0,0,0,9.9-.244,7.223,7.223,0,0,0-.28-10.08L344.6,408h2.43a37.142,37.142,0,0,0,36.361-30H397a7,7,0,0,0,0-14H383.391A38.939,38.939,0,0,0,376,348h21a7,7,0,0,0,0-14H327a7,7,0,0,0,0,14h20.03a23.416,23.416,0,0,1,21.943,16H327A7,7,0,0,0,320,371Z"/><path d="M108,239h9v82.747A7.465,7.465,0,0,0,124.282,329H251.961A7.254,7.254,0,0,0,259,321.747V239h9a7.2,7.2,0,0,0,7-7.229V190.253A7.22,7.22,0,0,0,268,183H108a7.22,7.22,0,0,0-7,7.253v41.518A7.2,7.2,0,0,0,108,239Zm137,76H131V239h28v39.1a6.923,6.923,0,0,0,10.528,5.987l18.357-11.129L206.8,284.13a6.667,6.667,0,0,0,6.848.051A6.836,6.836,0,0,0,217,278.1V239h28Zm-72-49.325V239h30v26.841l-11.789-7.065a6.735,6.735,0,0,0-7.04.041ZM115,197H261v28H115Z"/></svg>
