<?xml version="1.0" encoding="iso-8859-1"?>
<!-- Generator: Adobe Illustrator 16.0.0, SVG Export Plug-In . SVG Version: 6.00 Build 0)  -->
<!DOCTYPE svg PUBLIC "-//W3C//DTD SVG 1.1//EN" "http://www.w3.org/Graphics/SVG/1.1/DTD/svg11.dtd">

<svg xmlns="http://www.w3.org/2000/svg" fill="#040b00" id="Layer_1" data-name="Layer 1" viewBox="0 0 512 512" width="512" height="512">
<title>Packed items</title><path d="M436.748,5.9c-40.1,0-73.117,31.1-76.667,70.1H312.96A6.794,6.794,0,0,0,306,82.8v90.761l-46.48-26.824a7.056,7.056,0,0,0-7.029,0L192,181.64V142.795A6.8,6.8,0,0,0,185.038,136H157.916c-3.55-39-36.57-70.1-76.667-70.1A77.013,77.013,0,1,0,157.916,150H178v39.723l-75.52,43.612A6.981,6.981,0,0,0,99,239.4V412.6a7,7,0,0,0,3.5,6.062l150,86.6a7.005,7.005,0,0,0,7,0l150-86.6A7,7,0,0,0,413,412.6V239.4a6.981,6.981,0,0,0-3.48-6.062L320,181.639V90h40.081A77,77,0,1,0,436.748,5.9ZM81.249,205.8a63,63,0,1,1,63-63A63.072,63.072,0,0,1,81.249,205.8Zm96.751.094v67.005l-58.028-33.5Zm71,281.192L113,408.562V251.51l136,78.52Zm0-173.217-57-32.887V197.806l57-32.887Zm14-148.945,43,24.8v99.339l-43,24.8ZM399,408.562,263,487.081V330.03l136-78.52Zm-6.97-169.171L320,280.978V197.805Zm44.718-93.6a63,63,0,1,1,63-63A63.072,63.072,0,0,1,436.748,145.795Z"/><path d="M454.526,45a6.866,6.866,0,0,0-3.13.581l-14.648,7.245-14.646-7.2A6.885,6.885,0,0,0,418.971,45H396.748A6.525,6.525,0,0,0,390,51.684V71.239A6.588,6.588,0,0,0,396.748,78H408v35.906c0,3.866,2.66,7.094,6.526,7.094h44.445A7.106,7.106,0,0,0,466,113.906V78h10.748A7.021,7.021,0,0,0,484,71.239V51.684c0-3.867-3.386-6.684-7.252-6.684ZM470,64H458.971A7.183,7.183,0,0,0,452,71.239V107H422V71.239A7.626,7.626,0,0,0,414.526,64H404V59h13.318l16.3,7.992a6.993,6.993,0,0,0,6.262.079L456.179,59H470Z"/><path d="M90.023,120.456a15.019,15.019,0,0,0-21.213,0l-.265.265-12.6-12.6-9.9,9.9,12.611,12.611a15.011,15.011,0,0,0,.325,20.934L93,185.51v0a10.565,10.565,0,0,0,7.7,3.214,10.893,10.893,0,0,0,7.742-3.215l15.539-15.559a11.016,11.016,0,0,0-.011-15.556ZM68.811,141.669a1,1,0,0,1,0-1.413l9.9-9.9a1,1,0,0,1,1.414,0L92.75,142.983,81.438,154.3Zm31.819,31.82L91.338,164.2l11.312-11.314,9.293,9.293Z"/></svg>
