<?xml version="1.0" encoding="iso-8859-1"?>
<!-- Generator: Adobe Illustrator 16.0.0, SVG Export Plug-In . SVG Version: 6.00 Build 0)  -->
<!DOCTYPE svg PUBLIC "-//W3C//DTD SVG 1.1//EN" "http://www.w3.org/Graphics/SVG/1.1/DTD/svg11.dtd">

<svg xmlns="http://www.w3.org/2000/svg"  fill="#040b00" id="Layer_1" data-name="Layer 1" viewBox="0 0 512 512" width="512" height="512">
<title>Parcel boxses</title><path d="M494.342,283.719,381,218.373V86.642a6.858,6.858,0,0,0-3.342-6.063L260.325,12.791a6.929,6.929,0,0,0-6.961,0L135.726,80.579A7.221,7.221,0,0,0,132,86.642V217.329L17.255,283.719A6.782,6.782,0,0,0,14,289.781V425.358a7,7,0,0,0,3.5,6.063l117.413,67.788a7.005,7.005,0,0,0,7,0L256,433.341l114.087,65.868a7.005,7.005,0,0,0,7,0L494.5,431.421a7,7,0,0,0,3.5-6.063V289.781A7.154,7.154,0,0,0,494.342,283.719ZM131,481.022l-103-59.7V301.9l34,19.415V404.13a6.834,6.834,0,0,0,1.9,4.982L98.16,443a6.89,6.89,0,0,0,7.555,1.474A6.99,6.99,0,0,0,110,438.008l-.365-88.936L131,361.592ZM96.137,421.25,76,401.2v-80.09l57.787-33.3,18.95,11.635L99.306,330.873a6.939,6.939,0,0,0-3.382,6.044Zm42.285-71.777-21.737-12.612,53.121-31.269a7,7,0,0,0,.1-12L137.367,273.7a6.993,6.993,0,0,0-7.137-.1L68.461,309.091,35,289.78l103.412-59.7,103.413,59.705ZM249,421.317l-104,59.7V361.6l104-59.7Zm1-143.038-104-59.7V98.764l34,19.416v82.81a7.066,7.066,0,0,0,2.149,4.983l34.379,33.889a7.017,7.017,0,0,0,11.945-4.994l-.1-88.936L250,158.452ZM214.383,218.11,194,198.063V117.975l58.032-33.3,19.074,11.636-53.354,31.426a7,7,0,0,0-3.449,6.044Zm20.793-84.387L288.3,102.452a7,7,0,0,0,.1-12L255.858,70.562a7,7,0,0,0-7.137-.1l-61.769,35.487-33.46-19.312L256.9,26.937l103.412,59.7-103.4,59.692ZM367,98.765V217.53L264,277.235V158.463Zm0,382.257L263,421.116V301.7l34,19.615V404.13a6.91,6.91,0,0,0,1.99,4.982L333.29,443a6.975,6.975,0,0,0,11.876-4.994l.05-88.936L367,361.592ZM331.224,421.25,311,401.2v-80.09l57.874-33.3,18.994,11.635-53.433,31.426a7,7,0,0,0-3.449,6.044ZM373.6,349.473l-21.737-12.612,53.121-31.269a7,7,0,0,0,.1-12L372.541,273.7a6.993,6.993,0,0,0-7.137-.1l-61.769,35.486-33.459-19.31,103.411-59.705L477,289.781ZM484,421.317l-103,59.7V361.6l103-59.7Z"/></svg>
