<?xml version="1.0" encoding="iso-8859-1"?>
<!-- Generator: Adobe Illustrator 16.0.0, SVG Export Plug-In . SVG Version: 6.00 Build 0)  -->
<!DOCTYPE svg PUBLIC "-//W3C//DTD SVG 1.1//EN" "http://www.w3.org/Graphics/SVG/1.1/DTD/svg11.dtd">

<svg xmlns="http://www.w3.org/2000/svg" fill="#040b00" id="Layer_1" data-name="Layer 1" viewBox="0 0 512 512" width="512" height="512">
<title>Premium Package_1</title><path d="M287.878,223a7,7,0,0,0-7-7H227V141.49a7,7,0,0,0-14,0v81.659A6.591,6.591,0,0,0,219.66,230h61.218A7,7,0,0,0,287.878,223Z"/><path d="M219.935,49.924C125.681,49.924,49,126.605,49,220.859s76.681,170.934,170.935,170.934a171.866,171.866,0,0,0,37.012-4.037A105.365,105.365,0,1,0,387.313,255.615a172.006,172.006,0,0,0,3.556-34.756C390.869,126.605,314.188,49.924,219.935,49.924Zm33.791,324.205a157.8,157.8,0,0,1-33.791,3.664C133.4,377.793,63,307.393,63,220.859S133.4,63.924,219.935,63.924s156.934,70.4,156.934,156.935a157.969,157.969,0,0,1-3.223,31.709,105.373,105.373,0,0,0-119.92,121.561ZM449,356.715a91.361,91.361,0,1,1-91.36-91.361A91.464,91.464,0,0,1,449,356.715Z"/><path d="M354.14,281.371l-59.82,34.641a6.837,6.837,0,0,0-3.32,6.062v69.282a6.837,6.837,0,0,0,3.32,6.062l59.909,34.641a6.828,6.828,0,0,0,3.456.938,6.9,6.9,0,0,0,3.477-.938l60.169-34.641A7.162,7.162,0,0,0,425,391.356V322.074a7.173,7.173,0,0,0-3.68-6.062l-60.18-34.641A7,7,0,0,0,354.14,281.371ZM351,413.873l-46-26.559v-53.12l46,26.558Zm60-26.559-46,26.559V360.752l46-26.558Zm-7.364-65.242-46,26.555-16.589-9.577,46-26.556Zm-30.589-17.66-46,26.555-15.407-8.895,46-26.556Z"/></svg>
