<?xml version="1.0" encoding="iso-8859-1"?>
<!-- Generator: Adobe Illustrator 16.0.0, SVG Export Plug-In . SVG Version: 6.00 Build 0)  -->
<!DOCTYPE svg PUBLIC "-//W3C//DTD SVG 1.1//EN" "http://www.w3.org/Graphics/SVG/1.1/DTD/svg11.dtd">

<svg xmlns="http://www.w3.org/2000/svg" fill="#040b00" id="Layer_1" data-name="Layer 1" viewBox="0 0 512 512" width="512" height="512">
<title>Priority Package proctection</title><path d="M499.083,317.013,428.96,282.606a213.515,213.515,0,0,0,3.579-38.888c0-116.771-95-211.77-211.769-211.77S9,126.947,9,243.718s95,211.769,211.77,211.769a212.429,212.429,0,0,0,124.641-40.564q.7,1.712,1.49,3.424c5.244,11.285,13.087,21.051,21.517,26.794l49.456,33.7a7,7,0,0,0,7.883,0l49.456-33.7C490.794,434.527,503,411.465,503,392.637V323.3A7,7,0,0,0,499.083,317.013Zm-154.344-.107A6.836,6.836,0,0,0,341,323.194v69.443a49.4,49.4,0,0,0,.492,7.885A196.01,196.01,0,0,1,220.77,441.487C111.719,441.487,23,352.769,23,243.718s88.719-197.77,197.77-197.77,197.769,88.719,197.769,197.77a199.274,199.274,0,0,1-3.827,38.861ZM489,392.637c0,14.187-9.923,32.932-21.669,40.933l-45.516,31.011L376.3,433.57c-6.31-4.3-12.369-12.195-16.519-21.124A48.467,48.467,0,0,1,355,392.637V327.562l67-32.87L489,327.659Z"/><path d="M328.1,179.657c-.129-.129-.273-.244-.412-.363-.095-.08-.181-.168-.28-.244-.154-.118-.323-.22-.488-.327-.093-.059-.179-.128-.275-.184l-.019-.01-.009-.007-.009,0L291,157.955c-.053-.031-.107-.061-.161-.091L224.27,119.432a7,7,0,0,0-7,0l-102.551,59.1A7.19,7.19,0,0,0,111,184.606V302.83a7.187,7.187,0,0,0,3.692,6.063L217.173,368a7.175,7.175,0,0,0,3.549.937,7.086,7.086,0,0,0,3.524-.937l102.319-59.111A6.942,6.942,0,0,0,330,302.83V184.606a6.933,6.933,0,0,0-1.812-4.761C328.131,179.784,328.159,179.717,328.1,179.657Zm-54.6-15.639L185.12,215.042l-12.1-6.985L261.4,157.034ZM178,227.06V274.7l-1.3-1.437a7.04,7.04,0,0,0-7.952-1.845L166,272.543V220.181Zm42.77-93.483L247.4,148.951l-88.376,51.023L132.4,184.6ZM214,349.817l-89-51.028V196.719L152,212.1v70.91a7.014,7.014,0,0,0,9.687,6.47l7.776-3.21,10.216,11.6a7,7,0,0,0,5.257,2.375,7.147,7.147,0,0,0,2.5-.451A7.03,7.03,0,0,0,192,293.246v-58.1l22,12.607Zm6.77-114.192-21.65-12.5L287.5,172.1l21.646,12.5ZM316,298.789l-88,51.028V247.749l88-51.03Z"/><path d="M391.815,327a7,7,0,0,0,0,14h17.169a18.808,18.808,0,0,1,17.374,12H391.815a7,7,0,0,0,0,14h34.543c-2.78,7-9.514,11-17.374,11H391.815a7.243,7.243,0,0,0-4.807,12.42l42.912,40.6a6.983,6.983,0,1,0,9.615-10.128l-30.123-28.311A33.267,33.267,0,0,0,440.966,367h10.849a7,7,0,1,0,0-14H440.966a26.476,26.476,0,0,0-5.157-12h16.006a7,7,0,1,0,0-14h-60Z"/></svg>
