<?xml version="1.0" encoding="iso-8859-1"?>
<!-- Generator: Adobe Illustrator 16.0.0, SVG Export Plug-In . SVG Version: 6.00 Build 0)  -->
<!DOCTYPE svg PUBLIC "-//W3C//DTD SVG 1.1//EN" "http://www.w3.org/Graphics/SVG/1.1/DTD/svg11.dtd">

<svg xmlns="http://www.w3.org/2000/svg" fill="#040b00" id="Layer_1" data-name="Layer 1" viewBox="0 0 512 512" width="512" height="512">
<title>Priority Package security</title><path d="M499.083,317.013,428.96,282.606a213.515,213.515,0,0,0,3.579-38.888c0-116.771-95-211.77-211.769-211.77S9,126.947,9,243.718s95,211.769,211.77,211.769a212.429,212.429,0,0,0,124.641-40.564q.7,1.712,1.49,3.424c5.244,11.285,13.087,21.051,21.517,26.794l49.456,33.7a7,7,0,0,0,7.883,0l49.456-33.7C490.794,434.527,503,411.465,503,392.637V323.3A7,7,0,0,0,499.083,317.013Zm-154.344-.107A6.836,6.836,0,0,0,341,323.194v69.443a49.4,49.4,0,0,0,.492,7.885A196.01,196.01,0,0,1,220.77,441.487C111.719,441.487,23,352.769,23,243.718s88.719-197.77,197.77-197.77,197.769,88.719,197.769,197.77a199.274,199.274,0,0,1-3.827,38.861ZM489,392.637c0,14.187-9.923,32.932-21.669,40.933l-45.516,31.011L376.3,433.57c-6.31-4.3-12.369-12.195-16.519-21.124A48.467,48.467,0,0,1,355,392.637V327.562l67-32.87L489,327.659Z"/><path d="M337.507,178.351c-.059-.211-.133-.414-.211-.618-.038-.1-.073-.2-.115-.3-.076-.174-.161-.341-.25-.507-.065-.121-.13-.241-.2-.358-.088-.144-.183-.284-.281-.422s-.186-.252-.286-.374-.2-.237-.308-.351-.24-.243-.366-.359c-.109-.1-.218-.2-.334-.294-.14-.113-.288-.217-.438-.319-.118-.082-.234-.166-.358-.241-.035-.02-.065-.046-.1-.066l-38.3-22.116c-.056-.032-.112-.064-.169-.094L224.27,110.639a7,7,0,0,0-7,0L107.5,174.081a6.9,6.9,0,0,0-3.5,6.128V307.227a6.9,6.9,0,0,0,3.385,6.062L217.327,376.8a6.925,6.925,0,0,0,6.957,0l110.108-63.509A7.1,7.1,0,0,0,338,307.227V180.209a7.087,7.087,0,0,0-.342-1.7C337.645,178.457,337.521,178.4,337.507,178.351Zm-59.048-20.26-95.99,55.42-14.04-8.106,95.991-55.42ZM175,225.521v52.865l-2.137-2.58a7.223,7.223,0,0,0-8.072-1.845l-3.791,1.5V217.529Zm45.77-100.737L250.419,141.9l-95.99,55.42L124.781,180.2ZM214,358.611l-96-55.425V192.323l29,17.123v76.485a7.292,7.292,0,0,0,9.993,6.469l8.748-3.59,11.248,12.746a7.026,7.026,0,0,0,5.269,2.375,6.3,6.3,0,0,0,2.342-.452,6.884,6.884,0,0,0,4.4-6.548V233.6l25,14.145Zm6.77-122.987-24.3-14.03,95.993-55.422,24.3,14.031ZM324,303.186l-96,55.425V247.748l96-55.426Z"/><path d="M415,328.53v4.915a26.575,26.575,0,0,0-20.092,26.075,26.992,26.992,0,0,0,26.953,27,13,13,0,0,1,.111,25.992c-.049,0-.1-.007-.151-.007s-.1.006-.148.007a13.011,13.011,0,0,1-12.856-12.992,7,7,0,0,0-7-7,6.921,6.921,0,0,0-6.908,7A26.575,26.575,0,0,0,415,425.594v5.824a7,7,0,0,0,14,0v-5.824c11-3.092,19.908-13.608,19.908-26.074a27.071,27.071,0,0,0-27.047-27,13,13,0,1,1,12.96-13,7,7,0,0,0,7,7,7.078,7.078,0,0,0,7.091-7c0-12.467-8.909-22.983-19.909-26.075V328.53a7,7,0,0,0-14,0Z"/></svg>
