<?xml version="1.0" encoding="iso-8859-1"?>
<!-- Generator: Adobe Illustrator 16.0.0, SVG Export Plug-In . SVG Version: 6.00 Build 0)  -->
<!DOCTYPE svg PUBLIC "-//W3C//DTD SVG 1.1//EN" "http://www.w3.org/Graphics/SVG/1.1/DTD/svg11.dtd">

<svg xmlns="http://www.w3.org/2000/svg" fill="#040b00" id="Layer_1" data-name="Layer 1" viewBox="0 0 512 512" width="512" height="512">
<title>Product Data</title><path d="M274,20.925V198.061c0,3.866,3.5,6.939,7.364,6.939H458.5a6.974,6.974,0,0,0,7-6.97c0-48.676-19.11-94.913-53.812-130.223-.028-.029-.056-.05-.085-.078-35.31-34.7-81.746-53.808-130.421-53.808A7.161,7.161,0,0,0,274,20.925ZM451.356,191H375.914l61.262-61.262A170.7,170.7,0,0,1,451.356,191Zm-20.712-74.5L356.113,191h-58.4L406.283,82.44A175.427,175.427,0,0,1,430.644,116.5ZM288,28.068a169.294,169.294,0,0,1,60.485,13.844L288,102.4Zm0,94.13,73.988-73.806a174.5,174.5,0,0,1,34.1,24.217L288,180.6Z"/><path d="M253.038,498H454.253A6.725,6.725,0,0,0,461,491.075V366h12.5c3.866,0,6.5-3.03,6.5-6.9V309.281c0-3.866-2.634-7.281-6.5-7.281H395.469a181.424,181.424,0,0,0,4.3-39.3,6.748,6.748,0,0,0-7-6.7H223V85.545a7.156,7.156,0,0,0-7.18-7A183.241,183.241,0,0,0,85.4,132.439C50.7,167.749,31.545,214,31.545,262.675c0,101.535,82.563,184.14,184.1,184.14A187.71,187.71,0,0,0,246,444.341v46.734A6.969,6.969,0,0,0,253.038,498ZM447,484H260V366h60v60.7a6.977,6.977,0,0,0,10.6,5.987L353.35,418.9l23.422,13.831a7,7,0,0,0,3.558.971,6.4,6.4,0,0,0,3.306-.921A6.851,6.851,0,0,0,387,426.7V366h60ZM334,414.273V366h39v48.438l-16.309-9.724a6.818,6.818,0,0,0-7.085.042ZM466,316v36H240V316ZM215.621,432.815c-93.816,0-170.131-76.325-170.131-170.14,0-44.981,17.869-87.748,49.936-120.379A169.2,169.2,0,0,1,209,92.685v169.99c0,3.866,2.773,7.325,6.64,7.325H385.627a156.624,156.624,0,0,1-4.54,32H233.5a7.687,7.687,0,0,0-7.5,7.281V359.1c0,3.866,3.634,6.9,7.5,6.9H246v64.139A174.052,174.052,0,0,1,215.621,432.815Z"/></svg>
