<?xml version="1.0" encoding="iso-8859-1"?>
<!-- Generator: Adobe Illustrator 16.0.0, SVG Export Plug-In . SVG Version: 6.00 Build 0)  -->
<!DOCTYPE svg PUBLIC "-//W3C//DTD SVG 1.1//EN" "http://www.w3.org/Graphics/SVG/1.1/DTD/svg11.dtd">

<svg xmlns="http://www.w3.org/2000/svg" fill="#040b00" id="Layer_1" data-name="Layer 1" viewBox="0 0 512 512" width="512" height="512">
<title>Protection</title><path d="M447.166,167.373a7,7,0,0,0-3.758,9.158A201.313,201.313,0,0,1,459,254.609C459,366.372,368.075,457.3,256.313,457.3a200.8,200.8,0,0,1-116.532-36.834l28.335-38.457a7,7,0,0,0-6.537-11.094l-67.768,8.8a7,7,0,0,0-6,8.138l11.673,67.333a7,7,0,0,0,12.533,2.957l19.455-26.406a216.749,216.749,0,0,0,324.848-260.6A7,7,0,0,0,447.166,167.373ZM124.44,417.681c-.018.024-.039.045-.058.069-.03.041-.054.083-.084.124L110.48,436.628l-7.623-43.973,44.258-5.748Z"/><path d="M422.923,129.5a7,7,0,0,0,1.262-5.348L412.512,56.817a7,7,0,0,0-12.533-2.957L380.524,80.266A216.749,216.749,0,0,0,55.676,340.87a7,7,0,0,0,12.916-5.4A201.313,201.313,0,0,1,53,257.391C53,145.628,143.925,54.7,255.687,54.7A200.8,200.8,0,0,1,372.219,91.538L343.884,130a7,7,0,0,0,6.537,11.094l67.768-8.8A7,7,0,0,0,422.923,129.5Zm-58.038-4.4L387.56,94.319c.018-.024.039-.045.058-.069.03-.041.054-.083.084-.124L401.52,75.372l7.623,43.973Z"/><path d="M318.3,148H193.7a15.879,15.879,0,0,0-13.632,7.243L140.1,217.831a6.619,6.619,0,0,0-1.1,3.646V348.3c0,8.914,7.252,15.7,16.167,15.7H356.833c8.915,0,16.167-6.786,16.167-15.7V221.477a7.006,7.006,0,0,0-1.1-3.763l-39.972-62.47A15.878,15.878,0,0,0,318.3,148ZM191.874,162.53c.4-.627,1.083-.53,1.827-.53H249v52H158.764ZM280,350H232V264.961l48,19.9Zm79-1.7c0,1.195-.972,1.7-2.167,1.7H294V280.21a7.124,7.124,0,0,0-4.425-6.456l-61.54-25.774a7.328,7.328,0,0,0-6.747.627A7.159,7.159,0,0,0,218,254.436V350H155.167c-1.195,0-2.167-.5-2.167-1.7V228H359ZM263,214V162h55.3c.744,0,1.427-.1,1.827.53L353.236,214Z"/></svg>
