<?xml version="1.0" encoding="iso-8859-1"?>
<!-- Generator: Adobe Illustrator 16.0.0, SVG Export Plug-In . SVG Version: 6.00 Build 0)  -->
<!DOCTYPE svg PUBLIC "-//W3C//DTD SVG 1.1//EN" "http://www.w3.org/Graphics/SVG/1.1/DTD/svg11.dtd">

<svg xmlns="http://www.w3.org/2000/svg" fill="#040b00" id="Layer_1" data-name="Layer 1" viewBox="0 0 512 512" width="512" height="512">
<title>Search Logistics</title><path d="M73.8,339.268a187.693,187.693,0,0,0,260.414,4.85l24.542,24.541-10.225,10.225a7,7,0,0,0,0,9.9l96.777,96.778a26.031,26.031,0,0,0,36.769,0l3.479-3.478h0a26.033,26.033,0,0,0,0-36.77l-96.778-96.776a7,7,0,0,0-9.9,0l-10.224,10.223-24.542-24.541A187.705,187.705,0,0,0,73.805,73.8a187.536,187.536,0,0,0,0,265.464Zm310.029,24.117,91.827,91.827a12.012,12.012,0,0,1,0,16.971l-3.478,3.478a12.013,12.013,0,0,1-16.97,0l-91.827-91.828ZM35.241,177.575A173.722,173.722,0,0,1,329.367,83.7,173.744,173.744,0,1,1,35.241,177.575Z"/><path d="M103.268,270.333l99.884,57.735a6.788,6.788,0,0,0,3.442.938,6.892,6.892,0,0,0,3.471-.938l100.217-57.735A7.21,7.21,0,0,0,314,264.271V148.8a7.224,7.224,0,0,0-3.732-6.062L210.152,85a7.106,7.106,0,0,0-7.058,0l-99.8,57.735A6.816,6.816,0,0,0,100,148.8v115.47A6.792,6.792,0,0,0,103.268,270.333ZM300,260.229l-86,49.652V210.569l86-49.652ZM292.529,148.8l-85.993,49.648-36.981-21.351,85.993-49.648ZM206.536,99.149l35.012,20.214-85.993,49.648L120.543,148.8ZM114,160.917l86,49.652v99.312l-86-49.652Z"/></svg>
