<?xml version="1.0" encoding="iso-8859-1"?>
<!-- Generator: Adobe Illustrator 16.0.0, SVG Export Plug-In . SVG Version: 6.00 Build 0)  -->
<!DOCTYPE svg PUBLIC "-//W3C//DTD SVG 1.1//EN" "http://www.w3.org/Graphics/SVG/1.1/DTD/svg11.dtd">

<svg xmlns="http://www.w3.org/2000/svg" fill="#040b00" id="Layer_1" data-name="Layer 1" viewBox="0 0 512 512" width="512" height="512">
<title>Security checked package</title><path d="M253.672,209.968l-53.667,49.158-26.34-28.553a7,7,0,0,0-10.291,9.493l31.07,33.681a7,7,0,0,0,9.874.415l58.811-53.87a7,7,0,0,0-9.457-10.324Z"/><path d="M442.771,297.088A15.392,15.392,0,0,0,429.66,290H393.8a127.381,127.381,0,0,0,2.2-23.31V112.24a6.972,6.972,0,0,0-3.885-6.283L216.552,19.717a6.989,6.989,0,0,0-6.158,0L34.853,105.723A6.938,6.938,0,0,0,31,112.01V266.69c0,44.721,27.809,97.446,64.771,122.643l113.777,77.62a6.944,6.944,0,0,0,7.854,0L262,436.527V477.45A15.58,15.58,0,0,0,277.56,493H465.59A15.453,15.453,0,0,0,481,477.45V359.21a6.775,6.775,0,0,0-1.031-3.71Zm-57.681,6.917c.019,0,.037,0,.056,0H429.66a1.4,1.4,0,0,1,1.307.512L461.367,352H379V304h5.993C385.025,304,385.057,304.005,385.09,304.005ZM262,419.58,213.45,452.7l-109.8-74.931C70.176,354.944,45,307.192,45,266.69V116.376L213.511,33.8,382,116.6V266.69A114.457,114.457,0,0,1,379.518,290H349.159A97.005,97.005,0,0,0,353,264.69V140.78a7.04,7.04,0,0,0-3.959-6.283L216.568,69.447a7.026,7.026,0,0,0-6.175,0L77.937,134.3A7.015,7.015,0,0,0,74,140.59v124.1c0,31.476,21.187,71.528,47.216,89.283l88.3,60.22a6.991,6.991,0,0,0,7.883,0L262,383.767ZM365,304v48H281.782l30.4-47.485A1.4,1.4,0,0,1,313.49,304ZM263.106,355.5A6.846,6.846,0,0,0,262,359.21v7.611l-48.55,33.116-84.35-57.53C106.824,327.212,88,291.623,88,264.69V144.956l125.49-61.43L339,145.141V264.69c0,7.678-1.6,16.31-4.468,25.31H313.49a15.389,15.389,0,0,0-13.113,7.093ZM383,479H360V402.869l23,14.891Zm84-1.55a1.441,1.441,0,0,1-1.41,1.55H397V413.97a7.009,7.009,0,0,0-3.184-5.862L357,384.079a7.16,7.16,0,0,0-7.247-.3A7.083,7.083,0,0,0,346,389.94V479H277.56a1.563,1.563,0,0,1-1.56-1.55V366H467Z"/></svg>
