<?xml version="1.0" encoding="iso-8859-1"?>
<!-- Generator: Adobe Illustrator 16.0.0, SVG Export Plug-In . SVG Version: 6.00 Build 0)  -->
<!DOCTYPE svg PUBLIC "-//W3C//DTD SVG 1.1//EN" "http://www.w3.org/Graphics/SVG/1.1/DTD/svg11.dtd">

<svg xmlns="http://www.w3.org/2000/svg" fill="#040b00" id="Layer_1" data-name="Layer 1" viewBox="0 0 512 512" width="512" height="512">
<title>Service center</title><path d="M495.64,259.4a104.24,104.24,0,0,0-2.534-100.878,102.285,102.285,0,0,0-85.089-51.226q-1.435-.052-2.877-.068c-.422,0-.842-.007-1.264-.007A111.788,111.788,0,0,0,292.243,212.837c-.109,1.809-.157,15.138-.173,20.891l-19.652,51.478A11.641,11.641,0,0,0,283.31,301H307v18.2a21.83,21.83,0,0,0-14.385,6.381,21.034,21.034,0,0,0-5.974,15.121,21.294,21.294,0,0,0,21.275,20.926l.258,0,42.034-.643a6.981,6.981,0,0,0,5.166-2.4c4.525-.022,9.3-.043,13.459-.061a8.01,8.01,0,0,1,7.833,6.081l8.775,34.993a7.1,7.1,0,0,0,6.788,5.4h97.625a7.16,7.16,0,0,0,6.764-8.967c-.162-.61-16.219-61.492-12.68-99.513C484.742,287.886,492.538,267.1,495.64,259.4ZM412.6,229h.231a24.853,24.853,0,0,1,24.6,24.5l.053,4.065a25.027,25.027,0,0,1-7.006,17.779A24.438,24.438,0,0,1,413.108,283h-.231a24.819,24.819,0,0,1-24.6-24.46l-.052-4.046a25.091,25.091,0,0,1,7-17.808C399.841,231.972,406.007,230,412.6,229ZM308,348h-.083a7.4,7.4,0,0,1-7.227-7.309,7.61,7.61,0,0,1,2.053-5.329A7.252,7.252,0,0,1,307.759,333H342.8l.2,14.192Zm48.8-15.367-.1-6.647a7.078,7.078,0,0,0-7-6.986H321V294.021A6.845,6.845,0,0,0,314.206,287h-27.5l18.9-49.486a6.987,6.987,0,0,0,.46-2.475c.023-9.4.083-20.083.154-21.4a97.539,97.539,0,0,1,97.651-92.419c.368,0,.98,0,1.349.008a6.122,6.122,0,0,0,.779.013v94.923a37.841,37.841,0,0,0-20.545,10.924,38.445,38.445,0,0,0-11.108,27.5l-.006,3.949a38.675,38.675,0,0,0,30.482,37.216l.063,8.32a28.211,28.211,0,0,1-27.9,28.437Zm126.386-79.407c-.1.2-.316.4-.4.613C481.6,256.771,471.149,282.96,470,295.332c-2.97,31.9,6.441,76.668,10.9,95.668H397.687l-7.442-29.7a22.082,22.082,0,0,0-12.294-14.768,42.243,42.243,0,0,0,40.92-42.565l-.072-7.792A38.627,38.627,0,0,0,451.477,257.5l.181-3.95C451.406,234.764,437,219.22,420,216.063V122.542a89.309,89.309,0,0,1,61.238,43.016A90.308,90.308,0,0,1,483.187,253.226Z"/><path d="M358.145,88.4A7,7,0,0,0,367.7,78.17,136.543,136.543,0,0,0,168.714,91.463L145.765,76.531A7,7,0,0,0,135.1,83.848l9.816,46.38a7,7,0,0,0,8.3,5.4l46.38-9.816a7,7,0,0,0,2.368-12.716L180.528,99.15A122.54,122.54,0,0,1,358.145,88.4ZM157.162,120.48l-4.867-23,13.806,8.983.016.014c.029.021.063.036.093.057l13.951,9.077Z"/><path d="M255.827,454a122.739,122.739,0,0,1-109.1-30.4,7,7,0,1,0-9.557,10.23,136.542,136.542,0,0,0,198.987-13.293l22.949,14.932a7,7,0,0,0,10.666-7.317l-9.816-46.38a7,7,0,0,0-8.3-5.4l-46.38,9.816a7,7,0,0,0-2.368,12.716l21.434,13.946A122.371,122.371,0,0,1,255.827,454Zm91.881-62.478,4.867,23-13.806-8.984-.015-.012a6.953,6.953,0,0,0-.683-.441l-13.362-8.694Z"/><path d="M121.2,399.575a7.1,7.1,0,0,0,3.528-.937l100.793-58.206A6.98,6.98,0,0,0,229,334.369V217.957a6.948,6.948,0,0,0-.45-2.521c-.027-.066-.028-.135-.055-.2-.078-.183-.161-.357-.255-.532-.054-.1-.1-.212-.16-.313-.087-.147-.183-.285-.28-.425-.083-.12-.163-.24-.254-.354s-.2-.235-.3-.349-.215-.238-.331-.35-.22-.2-.333-.293-.258-.216-.4-.316c-.119-.086-.243-.166-.368-.246-.084-.053-.162-.116-.249-.166l-35.1-20.27-.161-.09-65.547-37.843a7,7,0,0,0-7,0L16.805,211.847a7.214,7.214,0,0,0-3.8,6.11V334.369a7.216,7.216,0,0,0,3.721,6.063l100.926,58.206A7.2,7.2,0,0,0,121.2,399.575ZM215,330.328l-87,50.123V280.194l87-50.123Zm-6.935-112.377-86.808,50.12-21.1-12.184,86.812-50.12Zm-35.1-20.266L86.155,247.8l-11.7-6.755,86.809-50.118ZM79,259.822v46.566l-1.072-1.2a7.354,7.354,0,0,0-8.16-1.845L67,304.387V253.173Zm42.258-91.988,26.007,15.014L60.457,232.966,34.452,217.952ZM114,380.451,27,330.328V230.071L53,245.09v69.762a7.313,7.313,0,0,0,10.014,6.469l7.639-3.132L80.69,329.558A7.037,7.037,0,0,0,93,324.933V267.9l21,12.289Z"/></svg>
