<?xml version="1.0" encoding="iso-8859-1"?>
<!-- Generator: Adobe Illustrator 16.0.0, SVG Export Plug-In . SVG Version: 6.00 Build 0)  -->
<!DOCTYPE svg PUBLIC "-//W3C//DTD SVG 1.1//EN" "http://www.w3.org/Graphics/SVG/1.1/DTD/svg11.dtd">

<svg xmlns="http://www.w3.org/2000/svg" fill="#040b00" id="Layer_1" data-name="Layer 1" viewBox="0 0 512 512" width="512" height="512">
<title>Service hours</title><path d="M222.749,265h56.014a7,7,0,0,0,0-14H230V183.068a7,7,0,1,0-14,0v74.719A6.976,6.976,0,0,0,222.749,265Z"/><path d="M66.15,255.691c0,85.856,69.2,155.824,154.788,156.973a6.73,6.73,0,0,0,1.119.258c.333,0,.62.078.941.078h0a157.915,157.915,0,0,0,33.46-3.75A97.024,97.024,0,1,0,376.841,287.079,158.018,158.018,0,0,0,380,255.691a156.081,156.081,0,0,0-25.075-85.026l17.148-17.147a14.792,14.792,0,0,0,0-20.9l-11.83-11.83a14.793,14.793,0,0,0-20.9,0l-15.2,15.051A156.312,156.312,0,0,0,245,100.282V81h9.559A14.273,14.273,0,0,0,269,66.505V49.774A14.51,14.51,0,0,0,254.559,35H191.44A14.509,14.509,0,0,0,177,49.774V66.505A14.272,14.272,0,0,0,191.44,81H201v19.282C125,111.144,66.15,176.691,66.15,255.691ZM432,380a83,83,0,1,1-83-83A83.094,83.094,0,0,1,432,380ZM349.247,130.693a.777.777,0,0,1,1.095,0l11.831,11.829a.776.776,0,0,1,0,1.1L346.688,159.1a158.39,158.39,0,0,0-12.107-13.744ZM191.775,67a.775.775,0,0,1-.775-.774V49.774a.775.775,0,0,1,.775-.774h63.45a.775.775,0,0,1,.775.774V66.226a.775.775,0,0,1-.775.774ZM231,81V98.911c-2-.144-5.366-.22-8.15-.22-.148,0-.22.006-.369.006-.177-.014-.318-.027-.5-.027a4.205,4.205,0,0,0-.6.044c-2.195.024-4.385.083-6.385.2V81Zm-16,31.918V134.11a7,7,0,0,0,14,0V112.827C303,115.911,362.8,176,365.865,250H343.628a7,7,0,1,0,0,14h22.141a138.875,138.875,0,0,1-2.6,20.189,96.96,96.96,0,0,0-109.945,111.3A145.862,145.862,0,0,1,229,398.551V377.327a7,7,0,0,0-14,0v21.138C143,394.456,84.25,336,80.228,264h20.183a7,7,0,0,0,0-14H80.135A143.15,143.15,0,0,1,215,112.918Z"/><path d="M345.451,312.282,292.278,343.11A6.8,6.8,0,0,0,289,349.173v61.654a6.826,6.826,0,0,0,3.3,6.063l53.3,30.828a6.818,6.818,0,0,0,3.45.937,6.909,6.909,0,0,0,3.476-.937L405.71,416.89a6.815,6.815,0,0,0,3.29-6.063V349.173a6.826,6.826,0,0,0-3.3-6.063l-53.3-30.828A6.909,6.909,0,0,0,345.451,312.282ZM342,429.531l-39-22.745V361.293l39,22.745Zm53-22.745-39,22.745V384.038l39-22.745Zm-6.609-57.616L349,371.913l-13.221-7.633,39.391-22.743ZM361.17,333.454,321.778,356.2l-12.169-7.026L349,326.428Z"/></svg>
