<?xml version="1.0" encoding="iso-8859-1"?>
<!-- Generator: Adobe Illustrator 16.0.0, SVG Export Plug-In . SVG Version: 6.00 Build 0)  -->
<!DOCTYPE svg PUBLIC "-//W3C//DTD SVG 1.1//EN" "http://www.w3.org/Graphics/SVG/1.1/DTD/svg11.dtd">

<svg xmlns="http://www.w3.org/2000/svg" fill="#040b00" id="Layer_1" data-name="Layer 1" viewBox="0 0 512 512" width="512" height="512">
<title>Share status</title><path d="M101.914,435h39a7,7,0,0,0,0-14h-39a7,7,0,1,0,0,14Z"/><path d="M122.362,228.474A40.126,40.126,0,1,0,162.487,268.6,40.171,40.171,0,0,0,122.362,228.474Zm0,66.251A26.126,26.126,0,1,1,148.487,268.6,26.155,26.155,0,0,1,122.362,294.725Z"/><path d="M453.834,84H364V61.447C364,46.621,351.657,35,336.831,35H178.588A26.29,26.29,0,0,0,152,61.447V84H58.166A49.174,49.174,0,0,0,9,133.11V428.274A48.847,48.847,0,0,0,58.166,477h126.5C211.775,477,234,455.385,234,428.274V257h44V428.274C278,455.385,300.225,477,327.335,477h126.5A48.847,48.847,0,0,0,503,428.274V133.11A49.174,49.174,0,0,0,453.834,84ZM58.166,98H152v35H23A35.156,35.156,0,0,1,58.166,98ZM220,428.274C220,447.665,204.056,463,184.665,463H58.166A34.832,34.832,0,0,1,23,428.274V393H220ZM69.311,379c3.576-25,25.573-45.3,52.1-45.3s48.529,20.3,52.1,45.3ZM220,379H187.631c-3.659-33-31.953-59.3-66.215-59.3S58.86,346,55.2,379H23V147H152v83.383A26.433,26.433,0,0,0,178.588,257H187v25.709a7.182,7.182,0,0,0,4.571,6.49,7.473,7.473,0,0,0,2.717.51,7.3,7.3,0,0,0,5.171-2.139L220,266.43Zm5.7-136a7.58,7.58,0,0,0-5.229,2.273L201,265.379V250.271c0-3.866-2.747-7.271-6.613-7.271h-15.8A12.42,12.42,0,0,1,166,230.383V61.447A12.279,12.279,0,0,1,178.588,49H336.831C343.938,49,350,54.341,350,61.447V230.383c0,7.106-6.062,12.617-13.169,12.617ZM489,428.274A34.832,34.832,0,0,1,453.834,463h-126.5C307.944,463,292,447.665,292,428.274V393H489ZM338.479,379c3.576-25,25.573-45.3,52.105-45.3S439.113,354,442.689,379ZM489,379H456.8c-3.659-33-31.953-59.3-66.215-59.3S328.028,346,324.369,379H292V257h44.831a26.637,26.637,0,0,0,16.463-5.516,40.155,40.155,0,1,0,36.344-23.019A39.626,39.626,0,0,0,362.3,239.394a26.842,26.842,0,0,0,1.7-9.011V147H489ZM363.513,268.6a26.126,26.126,0,1,1,26.125,26.126A26.154,26.154,0,0,1,363.513,268.6ZM364,133V98h89.834A35.156,35.156,0,0,1,489,133Z"/><path d="M371.082,435h39a7,7,0,0,0,0-14h-39a7,7,0,0,0,0,14Z"/><path d="M319.5,105.685l-60-34.641a7,7,0,0,0-7,0l-60,34.641a7,7,0,0,0-3.5,6.062v69.282a7,7,0,0,0,3.5,6.063l60,34.64a7,7,0,0,0,7,0l60-34.64a7,7,0,0,0,3.5-6.063V111.747A7,7,0,0,0,319.5,105.685ZM256,85.189l15.407,8.9L225.412,120.64,210,111.744Zm-7,118.357-46-26.558V123.867l46,26.559Zm7-65.245-16.588-9.578,46-26.555L302,111.744Zm53,38.687-46,26.558v-53.12l46-26.559Z"/></svg>
