<?xml version="1.0" encoding="iso-8859-1"?>
<!-- Generator: Adobe Illustrator 16.0.0, SVG Export Plug-In . SVG Version: 6.00 Build 0)  -->
<!DOCTYPE svg PUBLIC "-//W3C//DTD SVG 1.1//EN" "http://www.w3.org/Graphics/SVG/1.1/DTD/svg11.dtd">

<svg xmlns="http://www.w3.org/2000/svg" fill="#040b00" id="Layer_1" data-name="Layer 1" viewBox="0 0 512 512" width="512" height="512">
<title>Shopping Cart</title><path d="M27.837,90H76.545a33.426,33.426,0,0,1,33.1,28.266L148.2,407.422c.008.056.016.27.025.327A47.444,47.444,0,0,0,195.162,448H202.7a35.074,35.074,0,0,0,69.408,0h68.378a35.183,35.183,0,1,0,.78-14H271.328a35.077,35.077,0,0,0-67.848,0h-8.318a33.6,33.6,0,0,1-33.1-28.467L150.292,317H400.583a47.443,47.443,0,0,0,44.9-31.843l45.289-130.649a7.221,7.221,0,0,0-.911-6.459,7.106,7.106,0,0,0-5.7-3.049H400V91.383a6.888,6.888,0,0,0-3.377-6.062l-86.7-50.093a6.94,6.94,0,0,0-6.969,0L216.343,85.321A6.858,6.858,0,0,0,213,91.383V145H127.361l-3.852-28.748c-.007-.057-.015-.108-.024-.164A47.3,47.3,0,0,0,76.545,76H27.837a7,7,0,0,0,0,14ZM375.19,421.558a21.076,21.076,0,1,1-21.076,21.076A21.1,21.1,0,0,1,375.19,421.558Zm-137.786,0a21.076,21.076,0,1,1-21.076,21.076A21.1,21.1,0,0,1,237.4,421.558ZM432.26,280.71A33.312,33.312,0,0,1,400.583,303H148.426l-4.87-36H437.1ZM441.951,253H141.689l-4.218-32H256.853l46.128,26.68a6.818,6.818,0,0,0,7-.012L356.109,221h96.8ZM400,191.571V159h74.33l-16.568,48h-77.4l16.265-9.414A6.812,6.812,0,0,0,400,191.571Zm-14-4.041-73,42.011V145.512L386,103.5Zm-6.76-96.15-72.759,42.007-30.233-17.455,72.759-42.007ZM306.481,49.373l28.526,16.469-72.759,42.007L233.722,91.38ZM227,103.5l72,42.011v84.029L227,187.53ZM213,159v32.571a6.8,6.8,0,0,0,3.358,6.015L232.6,207h-97l-6.376-48Z"/></svg>
