<?xml version="1.0" encoding="iso-8859-1"?>
<!-- Generator: Adobe Illustrator 16.0.0, SVG Export Plug-In . SVG Version: 6.00 Build 0)  -->
<!DOCTYPE svg PUBLIC "-//W3C//DTD SVG 1.1//EN" "http://www.w3.org/Graphics/SVG/1.1/DTD/svg11.dtd">

<svg xmlns="http://www.w3.org/2000/svg" fill="#040b00" id="Layer_1" data-name="Layer 1" viewBox="0 0 512 512" width="512" height="512">
<title>Support Logistic</title><path d="M411.6,400a91.333,91.333,0,0,0-91.4,91.2,6.834,6.834,0,0,0,7,6.8H496a6.834,6.834,0,0,0,7-6.8A91.333,91.333,0,0,0,411.6,400Zm-77.085,84c3.55-39,36.767-70.4,77.085-70.4S485.136,445,488.687,484Z"/><path d="M100.4,128.882A57.639,57.639,0,1,0,42.76,71.243,57.7,57.7,0,0,0,100.4,128.882Zm0-101.278A43.639,43.639,0,1,1,56.76,71.243,43.688,43.688,0,0,1,100.4,27.6Z"/><path d="M16,247H184.8a6.982,6.982,0,0,0,7-6.979A91.4,91.4,0,0,0,9,240.015,6.987,6.987,0,0,0,16,247Zm84.4-84.4c40.318,0,73.535,31.4,77.085,70.4H23.313C26.864,194,60.081,162.6,100.4,162.6Z"/><path d="M37.943,481H257.371A28.367,28.367,0,0,0,286,452.459V443.53a.746.746,0,0,1,.493-.623c28.646-5.062,37.811-23.857,39.633-28.473a7.118,7.118,0,0,0,.794-4.275,7.328,7.328,0,0,0-5.552-6,44.22,44.22,0,0,0-7.131-1C299.439,401.784,286,399.1,286,381.735V316.807A28.593,28.593,0,0,0,257.371,288H37.943A28.859,28.859,0,0,0,9,316.807V452.459A28.634,28.634,0,0,0,37.943,481ZM23,316.807A14.844,14.844,0,0,1,37.943,302H257.371A14.578,14.578,0,0,1,272,316.807v64.928c0,13.469,5.85,23.636,16.62,29.4,6.539,3.5,13.825,4.813,19.729,5.5-4.145,4.684-11.559,10.232-24.291,12.482A14.658,14.658,0,0,0,272,443.53v8.929A14.355,14.355,0,0,1,257.371,467H37.943A14.621,14.621,0,0,1,23,452.459Z"/><path d="M474.057,21H254.629C238.67,21,226,34.26,226,50.22v64.928c0,17.37-13.439,20.049-28.237,21.432a42.983,42.983,0,0,0-7.057,1,7.391,7.391,0,0,0-5.587,5.994,7.069,7.069,0,0,0,.695,4.275c1.823,4.616,11.057,23.411,39.7,28.473a.739.739,0,0,1,.483.623v8.929C226,201.832,238.67,215,254.629,215H474.057A29.134,29.134,0,0,0,503,185.872V50.22A29.214,29.214,0,0,0,474.057,21ZM489,185.872A15.119,15.119,0,0,1,474.057,201H254.629A14.854,14.854,0,0,1,240,185.872v-8.929a14.658,14.658,0,0,0-12.058-14.409c-12.743-2.252-20.236-7.807-24.375-12.481,5.9-.69,13.311-2,19.852-5.5,10.77-5.765,16.581-15.932,16.581-29.4V50.22C240,41.98,246.389,35,254.629,35H474.057A15.2,15.2,0,0,1,489,50.22Z"/><path d="M281.169,107h92.468a7,7,0,0,0,0-14H281.169a7,7,0,0,0,0,14Z"/><path d="M445.747,93H396.482a7,7,0,0,0,0,14h49.265a7,7,0,1,0,0-14Z"/><path d="M281.169,143h26.649a7,7,0,0,0,0-14H281.169a7,7,0,0,0,0,14Z"/><path d="M445.747,129H331.011a7,7,0,0,0,0,14H445.747a7,7,0,1,0,0-14Z"/><path d="M362.859,166h-81.69a7,7,0,0,0,0,14h81.69a7,7,0,0,0,0-14Z"/><path d="M445.747,166H386.86a7,7,0,0,0,0,14h58.887a7,7,0,1,0,0-14Z"/><path d="M281.169,70h57.092a7,7,0,0,0,0-14H281.169a7,7,0,0,0,0,14Z"/><path d="M445.747,56H361.562a7,7,0,0,0,0,14h84.185a7,7,0,0,0,0-14Z"/><path d="M472,289.762a7,7,0,0,0-7,7v3.4a57.76,57.76,0,1,0-53.361,80.253A57.345,57.345,0,0,0,460.122,354H465v19H451a7,7,0,1,0,0,14h20.689c3.867,0,7.308-2.867,7.308-6.733V352.3a19.045,19.045,0,0,0,12-17.647v-8.574a19.047,19.047,0,0,0-12-17.647V296.762A7,7,0,0,0,472,289.762Zm-60.4,76.476A43.64,43.64,0,1,1,455.24,322.6,43.689,43.689,0,0,1,411.6,366.238ZM477,334.65a5.587,5.587,0,0,1-5.308,5.35h-5.028a62.045,62.045,0,0,0,2.576-17.265c0-.51-.025-.735-.038-1.735h2.49A5.343,5.343,0,0,1,477,326.076Z"/><path d="M151.323,419.766l50.264,29.071a6.834,6.834,0,0,0,3.455.938,6.917,6.917,0,0,0,3.478-.938l50.167-29.071A6.83,6.83,0,0,0,262,413.7V355.562a6.841,6.841,0,0,0-3.325-6.062L208.41,320.429a6.915,6.915,0,0,0-6.956,0L151.3,349.5a6.82,6.82,0,0,0-3.3,6.062V413.7A6.839,6.839,0,0,0,151.323,419.766ZM248,409.663l-36,20.988V388.67l36-20.988Zm-6.653-54.1L205,376.546l-11.67-6.738,36.349-20.986ZM205,334.574l10.679,6.166-36.349,20.986-10.679-6.166Zm-43,33.108,36,20.988v41.981l-36-20.988Z"/><path d="M50.253,390H112.14a7,7,0,0,0,0-14H50.253a7,7,0,1,0,0,14Z"/><path d="M50.253,353H119.14a7,7,0,0,0,0-14H50.253a7,7,0,1,0,0,14Z"/><path d="M112.14,416H90.253a7,7,0,0,0,0,14H112.14a7,7,0,0,0,0-14Z"/><path d="M50.253,430H66.14a7,7,0,0,0,0-14H50.253a7,7,0,1,0,0,14Z"/></svg>
