<?xml version="1.0" encoding="iso-8859-1"?>
<!-- Generator: Adobe Illustrator 16.0.0, SVG Export Plug-In . SVG Version: 6.00 Build 0)  -->
<!DOCTYPE svg PUBLIC "-//W3C//DTD SVG 1.1//EN" "http://www.w3.org/Graphics/SVG/1.1/DTD/svg11.dtd">

<svg xmlns="http://www.w3.org/2000/svg" fill="#040b00" id="Layer_1" data-name="Layer 1" viewBox="0 0 512 512" width="512" height="512">
<title>Track Package 2</title><path d="M269.406,404H242.594a7,7,0,0,0,0,14h26.812a7,7,0,0,0,0-14Z"/><path d="M381,58H131A32,32,0,0,0,99,90V423a32,32,0,0,0,32,32H381a32,32,0,0,0,32-32V90A32,32,0,0,0,381,58Zm18,365a18,18,0,0,1-18,18H131a18,18,0,0,1-18-18V90a18,18,0,0,1,18-18H381a18,18,0,0,1,18,18Z"/><path d="M368,99H143a7,7,0,0,0-7,7V381a7,7,0,0,0,7,7H368a7,7,0,0,0,7-7V106A7,7,0,0,0,368,99Zm-7,275H150V113H361Z"/><path d="M192.5,278.157l60,34.641a7.005,7.005,0,0,0,7,0l60-34.641A7,7,0,0,0,323,272.1V202.812a7,7,0,0,0-3.5-6.062l-60-34.641a7,7,0,0,0-7,0l-60,34.641a7,7,0,0,0-3.5,6.062V272.1A7,7,0,0,0,192.5,278.157Zm116.5-10.1-46,26.557V241.49l46-26.558Zm-7-65.244-46,26.555-16.588-9.577,45.995-26.555Zm-46-26.555,15.406,8.9-45.995,26.555L210,202.81Zm-53,38.677,46,26.558v53.121l-46-26.557Z"/></svg>
