<?xml version="1.0" encoding="iso-8859-1"?>
<!-- Generator: Adobe Illustrator 16.0.0, SVG Export Plug-In . SVG Version: 6.00 Build 0)  -->
<!DOCTYPE svg PUBLIC "-//W3C//DTD SVG 1.1//EN" "http://www.w3.org/Graphics/SVG/1.1/DTD/svg11.dtd">

<svg xmlns="http://www.w3.org/2000/svg" fill="#040b00" id="Layer_1" data-name="Layer 1" viewBox="0 0 512 512" width="512" height="512">
<title>Track delivery 2</title><path d="M102,57.223a38.539,38.539,0,1,0,38.539,38.539A38.582,38.582,0,0,0,102,57.223Zm0,63.078a24.539,24.539,0,1,1,24.539-24.539A24.279,24.279,0,0,1,102,120.3Z"/><path d="M503.838,327.286c0-.127-.163-.253-.174-.379-.008-.108-.018-.216-.032-.323s-.033-.235-.054-.352-.041-.222-.066-.332-.054-.221-.085-.331-.063-.22-.1-.328-.076-.214-.117-.32-.084-.211-.131-.315-.1-.206-.148-.308-.105-.2-.161-.3-.115-.194-.175-.289-.131-.2-.2-.3-.126-.173-.193-.258-.159-.2-.243-.293c-.038-.044-.071-.09-.11-.133l-36.485-39.813A21.273,21.273,0,0,0,449.772,276H426.551c-.448,0-.912-.139-1.388-.139s-.939.139-1.388.139H378.76a6.9,6.9,0,0,0-6.76,7.118V398H353V271.926c0-.305-.234-.6-.272-.9-.009-.072-.124-.143-.136-.215a7.63,7.63,0,0,0-.219-.766c-.01-.036-.043-.074-.054-.11a7.059,7.059,0,0,0-.33-.855c-.018-.043-.047-.084-.067-.127a6.693,6.693,0,0,0-.384-.7c-.017-.03-.031-.062-.05-.091L325.753,227.88a12.764,12.764,0,0,0-10.88-5.88h-80.22a12.76,12.76,0,0,0-10.879,5.88l-25.735,40.327c-.018.029-.031.039-.049.068a7.123,7.123,0,0,0-.381.692c-.019.042-.042.078-.06.12a7.013,7.013,0,0,0-.317.852c-.01.037-.018.073-.028.11a6.9,6.9,0,0,0-.166.766c-.012.071.006.141,0,.212a7.033,7.033,0,0,0-.035.9v62.839l-85.848-90.826,63.584-84.958c14.036-19.089,20.907-41.541,19.36-63.206a96.542,96.542,0,0,0-27.871-61.4,90.551,90.551,0,0,0-128.446,0A96.523,96.523,0,0,0,9.912,95.764c-1.549,21.676,5.328,44.128,19.4,63.266L96.4,248.642c.018.024.04.045.059.07l-.015.041L197,355.149v44A12.82,12.82,0,0,0,209.844,412h36.3a31.78,31.78,0,0,0,62,0H409.034a31.78,31.78,0,0,0,62,0h11.491C494.2,412,504,402.56,504,390.89V327.459C504,327.4,503.84,327.344,503.838,327.286ZM40.556,150.688C28.487,134.275,22.564,115.124,23.877,96.75A82.532,82.532,0,0,1,47.7,44.256a76.548,76.548,0,0,1,108.6,0,82.545,82.545,0,0,1,23.821,52.506c1.312,18.362-4.611,37.513-16.643,53.878L102,232.766ZM282,236h32.271l18.549,29H282Zm6,43v58.163l-26-10.725V279Zm-52.744-43H268v29H216.705Zm41.89,186.842a17.788,17.788,0,1,1,17.789-17.788A17.808,17.808,0,0,1,277.146,422.842ZM339,398H308.148a31.78,31.78,0,0,0-62,0H211V350.135l.276-.261-.276-.292V279h37v52.094a6.989,6.989,0,0,0,4.279,6.455l39.574,16.6a6.97,6.97,0,0,0,2.7.544,7.741,7.741,0,0,0,4.1-1.17,7.223,7.223,0,0,0,3.346-5.83V279h37Zm93-108h17.772a7.028,7.028,0,0,1,5.279,2.15L480.767,320H432Zm-46,0h32v30H386Zm54.036,132.842a17.788,17.788,0,1,1,17.787-17.788A17.809,17.809,0,0,1,440.036,422.842ZM490,390.89a7.4,7.4,0,0,1-7.472,7.11H471.037a31.781,31.781,0,0,0-62,0H386V334h37.782c.447,1,.908.138,1.381.138s.935.862,1.381-.138H490Z"/></svg>
