<?xml version="1.0" encoding="iso-8859-1"?>
<!-- Generator: Adobe Illustrator 16.0.0, SVG Export Plug-In . SVG Version: 6.00 Build 0)  -->
<!DOCTYPE svg PUBLIC "-//W3C//DTD SVG 1.1//EN" "http://www.w3.org/Graphics/SVG/1.1/DTD/svg11.dtd">

<svg xmlns="http://www.w3.org/2000/svg" fill="#040b00" id="Layer_1" data-name="Layer 1" viewBox="0 0 512 512" width="512" height="512">
<title>Trolley 2</title><path d="M35.478,86.717,86.955,76.006a34.109,34.109,0,0,1,40.294,26.414L179.6,354.052a49.65,49.65,0,0,0,15.817,96.671,50.073,50.073,0,0,0,10.213-1.057A49.657,49.657,0,0,0,245.1,398.442L479.374,349.7a7,7,0,1,0-2.852-13.706L242.385,384.708a49.621,49.621,0,0,0-49.02-33.237l-52.41-251.9A48.067,48.067,0,0,0,84.1,62.3L32.626,73.011a7,7,0,1,0,2.852,13.706ZM195.594,365.411a35.754,35.754,0,1,1-7.333.759A35.983,35.983,0,0,1,195.594,365.411Z"/><path d="M199.517,197.278a6.988,6.988,0,0,0,8.279,5.427l17.058-3.549L258.049,358.7a7,7,0,0,0,8.279,5.427l207.084-43.085a7,7,0,0,0,5.427-8.279L445.644,153.219l16.7-3.475a7,7,0,0,0,5.427-8.279l-9.63-46.287a7,7,0,0,0-8.279-5.427L195.314,142.712a7,7,0,0,0-5.427,8.279Zm264.19,111.487L270.329,349,238.56,196.3l57.182-11.9,16.8,80.767a7,7,0,0,0,11.624,3.7l25.1-23.38,33.18,11.3a7,7,0,0,0,9.11-8.053l-16.805-80.766,57.182-11.9ZM309.448,181.556l51.6-10.737,14.307,68.763-25.537-8.695a7,7,0,0,0-7.028,1.5l-19.071,17.764Zm136.413-76.673,6.779,32.581L211.8,187.573l-6.778-32.58Z"/></svg>
