<?xml version="1.0" encoding="iso-8859-1"?>
<!-- Generator: Adobe Illustrator 16.0.0, SVG Export Plug-In . SVG Version: 6.00 Build 0)  -->
<!DOCTYPE svg PUBLIC "-//W3C//DTD SVG 1.1//EN" "http://www.w3.org/Graphics/SVG/1.1/DTD/svg11.dtd">

<svg xmlns="http://www.w3.org/2000/svg" fill="#040b00" id="Layer_1" data-name="Layer 1" viewBox="0 0 512 512" width="512" height="512">
<title>Trolley</title><path d="M50.921,68H103.5c18.785,0,34.5,15.283,34.5,34.067V359.092A49.64,49.64,0,1,0,192.649,416h268.43a7,7,0,0,0,0-14H192.785A49.626,49.626,0,0,0,152,359.367v-257.3c0-26.5-22-48.067-48.5-48.067H50.921a7,7,0,1,0,0,14Zm128.3,340.358a35.642,35.642,0,1,1-35.642-35.643A35.682,35.682,0,0,1,179.22,408.358Z"/><path d="M217.6,379H443.474C453,379,461,371.541,461,362.02V219.975a7.187,7.187,0,0,0-.193-.9c-.01-.071-.087-.142-.1-.214a7.191,7.191,0,0,0-.2-.764c-.011-.038-.034-.076-.045-.113a7.084,7.084,0,0,0-.323-.852c-.02-.045-.048-.088-.069-.133a7.087,7.087,0,0,0-.376-.691c-.019-.031-.033-.066-.053-.1l-44.77-70.228A17.188,17.188,0,0,0,400.314,138H260.762a17.189,17.189,0,0,0-14.561,7.984l-44.768,70.229c-.02.031-.034.065-.053.1a6.941,6.941,0,0,0-.374.69c-.021.045-.044.088-.064.133a6.887,6.887,0,0,0-.316.852c-.011.037-.018.075-.028.113a6.866,6.866,0,0,0-.166.764c-.011.072-.191.143-.2.214a7.316,7.316,0,0,0-.231.9V362.02C200,371.541,208.081,379,217.6,379ZM358,365H303V267.415l55,23ZM338,152h62.314a3.263,3.263,0,0,1,2.755,1.522L440.977,213H338Zm-79.994,1.522A3.266,3.266,0,0,1,260.762,152H324v61H220.1ZM214,227H447V362.02c0,1.8-1.725,2.98-3.526,2.98H372V285.757a7.014,7.014,0,0,0-4.312-6.455l-68.861-28.868A7.094,7.094,0,0,0,289,256.889V365H217.6c-1.8,0-3.6-1.179-3.6-2.98Z"/></svg>
