<?xml version="1.0" encoding="iso-8859-1"?>
<!-- Generator: Adobe Illustrator 16.0.0, SVG Export Plug-In . SVG Version: 6.00 Build 0)  -->
<!DOCTYPE svg PUBLIC "-//W3C//DTD SVG 1.1//EN" "http://www.w3.org/Graphics/SVG/1.1/DTD/svg11.dtd">

<svg xmlns="http://www.w3.org/2000/svg"  fill="#040b00" id="Layer_1" data-name="Layer 1" viewBox="0 0 512 512" width="512" height="512">
<title>TruckDelivery1</title>
<path d="M266.865,250.634a7.011,7.011,0,0,0-11.267,1.491l-16.9,31.44a7,7,0,0,0,6.158,10.316,7.185,
7.185,0,0,0,6.292-3.687L255,283.247V343.42a7,7,0,1,0,14,0V273.051l5.69,6.155a6.968,6.968,0,1,0,10.09-9.612Z"/>
<path d="M41,338.45a7,7,0,0,0-7,7v25.92a7,7,0,0,0,14,0V345.45A7,7,0,0,0,41,338.45Z"/>
<path d="M69,357.65a7,7,0,0,0-7,7V388a7,7,0,0,0,14,0V364.65A7,7,0,0,0,69,357.65Z"/>
<path d="M98,376.85a7,7,0,0,0-7,7v20.56a7,7,0,0,0,14,0V383.85A7,7,0,0,0,98,376.85Z"/>
<path d="M126,396.05a7,7,0,0,0-7,7v17.77a7,7,0,0,0,14,0V403.05A7,7,0,0,0,126,396.05Z"/>
<path d="M148,437.61a7,7,0,0,0,14,0V422.25a7,7,0,0,0-14,0Z"/>
<path d="M276.16,353.467l-31.89,18.41a7,7,0,1,0,7,12.125l31.89-18.41a7,7,0,1,0-7-12.125Z"/>
<path d="M502.917,379.908c-.03-.2-.067-.406-.115-.6-.017-.072-.035-.143-.054-.214q-.086-.312-.2-.612c-.02-.052-.037-.105-.058-.158a6.974,
6.974,0,0,0-.35-.748l-22.919-41.948a6.183,6.183,0,0,0-.977-1.243A19.953,19.953,0,0,0,463.47,328H418v-9.63a20.108,
20.108,0,0,0-11-17.888V135.55a7.03,7.03,0,0,0-3.54-6.083L211.5,18.638a7,7,0,0,0-7,0L12.628,129.415A7,7,0,0,0,9,135.55v240.9a7,
7,0,0,0,3.5,6.062l192,110.85a7,7,0,0,0,3.5.938,7.181,7.181,0,0,0,3.5-1.088L319.005,431h8.183a29.82,29.82,0,0,0,57.974,
0h35.706a29.82,29.82,0,0,0,57.974,0h4.118A19.813,19.813,0,0,0,503,411.25V380.93a7.041,7.041,0,0,0-.051-.813C502.941,380.047,
502.928,379.978,502.917,379.908ZM418,342h45.47a5.961,5.961,0,0,1,3.953,1.385L484.2,374H418Zm-19.089-29.764A6.212,6.212,0,0,1,
404,318.37V374H311V318.37a6.338,6.338,0,0,1,6.04-6.37h80.99A6.159,6.159,0,0,1,398.911,312.236ZM319.126,96.942,141.141,199.7,
106.21,179.53,284.191,76.772ZM134,211.624V339.933l-13.195-14.878a7.229,7.229,0,0,0-8.076-1.845L99,
328.816V191.648ZM208,32.783l62.191,35.906L92.205,171.449,30.02,135.541Zm-7,442.392L23,372.409V147.654l62,
35.917V339.28a7.136,7.136,0,0,0,9.822,6.47l18.653-7.691,22.058,25.046a7.01,7.01,0,0,0,5.262,2.375,7.553,7.553,
0,0,0,2.573-.451A7.094,7.094,0,0,0,148,358.48V219.707l53,30.714ZM208,238.3l-52.859-30.518L333.126,105.025,385.98,135.54Zm94.3,
186.481-87.3,50.4V250.421L393,147.653V298H317.04A20.348,20.348,0,0,0,297,318.37v92.88A19.918,19.918,0,0,0,302.3,
424.778ZM356.17,440.12A15.825,15.825,0,1,1,372,424.3,15.838,15.838,0,0,1,356.17,440.12Zm93.69,0a15.825,15.825,
0,1,1,15.82-15.82A15.843,15.843,0,0,1,449.86,440.12ZM489,411.25a5.8,5.8,0,0,1-6.04,5.75h-4.117a29.819,29.819,0,0,
0-57.976,0h-35.7a29.818,29.818,0,0,0-57.975,0H317.04a5.8,5.8,0,0,1-6.04-5.75V388H489Z"  />
</svg>