<?xml version="1.0" encoding="iso-8859-1"?>
<!-- Generator: Adobe Illustrator 16.0.0, SVG Export Plug-In . SVG Version: 6.00 Build 0)  -->
<!DOCTYPE svg PUBLIC "-//W3C//DTD SVG 1.1//EN" "http://www.w3.org/Graphics/SVG/1.1/DTD/svg11.dtd">

<svg xmlns="http://www.w3.org/2000/svg" fill="#040b00" id="Layer_1" data-name="Layer 1" viewBox="0 0 512 512" width="512" height="512">
<title>Trucks transportation</title><path d="M57.65,370h53.627a41.992,41.992,0,0,0,82.812,0H341.277a41.992,41.992,0,0,0,82.812,0h18.594A27.374,27.374,0,0,0,470,342.917V253.352c0-.057-.166-.113-.167-.17,0-.129-.168-.257-.178-.385-.009-.106-.019-.212-.032-.317s-.033-.239-.055-.358-.04-.218-.065-.326-.055-.225-.086-.336-.062-.218-.1-.324-.076-.216-.118-.323-.083-.21-.129-.313-.1-.207-.15-.31-.1-.2-.16-.3-.115-.193-.176-.289-.13-.2-.2-.3-.127-.173-.194-.258-.159-.2-.242-.293c-.038-.044-.071-.09-.111-.133l-51.517-56A26.948,26.948,0,0,0,396.431,184H363.3c-.52,0-1.061-.2-1.619-.2s-1.1.2-1.619.2h-63.9A6.925,6.925,0,0,0,289,190.744V356H256.25c.038-1-.25-.966-.25-1.416V174.94a7.4,7.4,0,0,0,.1-.9c-.01-.072.057-.143.046-.214a6.855,6.855,0,0,0-.126-.765c-.01-.037,0-.075-.009-.112a7,7,0,0,0-.3-.852c-.02-.045-.038-.089-.059-.133a7.054,7.054,0,0,0-.372-.691c-.02-.031-.032-.066-.051-.1l-36.337-57.045A15.3,15.3,0,0,0,205.953,107H92.682a15.3,15.3,0,0,0-12.93,7.133L43.414,171.157c-.02.031-.033.076-.053.108a7.037,7.037,0,0,0-.374.7c-.021.044-.044.09-.064.135a7.14,7.14,0,0,0-.315.854c-.011.037-.019.075-.029.113a6.882,6.882,0,0,0-.165.765c-.012.071-.183.142-.191.214a7.271,7.271,0,0,0-.223.9V354.584A15.7,15.7,0,0,0,57.65,370Zm325.033,20.917a28,28,0,1,1,28-28A28.031,28.031,0,0,1,382.683,390.917ZM369,198h27.431a12.751,12.751,0,0,1,9.577,3.906L446.757,246H369Zm-66,0h52v48H303Zm0,62h57.064c.52,0,1.061.2,1.619.2s1.1-.2,1.619-.2H456v82.917A13.36,13.36,0,0,1,442.683,356H424.089a41.992,41.992,0,0,0-82.812,0H303ZM152.683,390.917a28,28,0,1,1,28-28A28.031,28.031,0,0,1,152.683,390.917ZM156,121h49.953a1.4,1.4,0,0,1,1.124.688L236.553,168H156Zm14,61v89.392l-42-17.561V182ZM91.558,121.687A1.4,1.4,0,0,1,92.682,121H142v47H62.081ZM56,182h58v76.486a7.176,7.176,0,0,0,4.48,6.455l55.979,23.432a7.221,7.221,0,0,0,2.753.544,6.665,6.665,0,0,0,3.771-1.171A6.9,6.9,0,0,0,184,281.917V182h58V354.584c0,.735-.281,1.416-1.016,1.416h-46.9a41.992,41.992,0,0,0-82.812,0H57.65A1.714,1.714,0,0,1,56,354.584Z"/></svg>
