<?xml version="1.0" encoding="iso-8859-1"?>
<!-- Generator: Adobe Illustrator 16.0.0, SVG Export Plug-In . SVG Version: 6.00 Build 0)  -->
<!DOCTYPE svg PUBLIC "-//W3C//DTD SVG 1.1//EN" "http://www.w3.org/Graphics/SVG/1.1/DTD/svg11.dtd">

<svg xmlns="http://www.w3.org/2000/svg" fill="#040b00" id="Layer_1" data-name="Layer 1" viewBox="0 0 512 512" width="512" height="512">
<title>Warehouse</title><path d="M500.073,212.666,260.4,41.188a7,7,0,0,0-8.139,0L11.935,212.661a7,7,0,0,0,4.071,12.7,7.237,7.237,0,0,0,4.146-1.3L59,196.4V465.118A6.753,6.753,0,0,0,65.825,472h380.35A6.753,6.753,0,0,0,453,465.118V196.328l38.84,27.725a7.026,7.026,0,0,0,8.233-11.387ZM402,458H110V432H402Zm0-40H110V393H402Zm0-39H110V355H402Zm0-38H110V316H402Zm0-39H110V278H402Zm0-38H110V239H402Zm0-39H110V197H402Zm37,233H416V189.938A6.726,6.726,0,0,0,409.264,183H102.736A6.726,6.726,0,0,0,96,189.938V458H73V186.412L256.315,55.485,439,186.312Z"/></svg>
